<svg width="156" height="49" viewBox="0 0 156 49" fill="none" xmlns="http://www.w3.org/2000/svg">
<path d="M139.692 22.656C139.543 22.656 139.421 22.6187 139.328 22.544C139.235 22.4694 139.188 22.3294 139.188 22.124C139.188 21.956 139.207 21.5547 139.244 20.92C139.281 20.2854 139.319 19.548 139.356 18.708C139.393 17.868 139.412 17.0747 139.412 16.328C139.412 15.5627 139.384 15.0027 139.328 14.648C139.272 14.2934 139.197 13.9947 139.104 13.752C139.048 13.64 139.057 13.5467 139.132 13.472C139.225 13.3787 139.337 13.3694 139.468 13.444C139.58 13.5 139.757 13.6027 140 13.752C140.261 13.8827 140.532 14.0227 140.812 14.172C141.092 14.3214 141.316 14.452 141.484 14.564H148.316C148.484 14.564 148.596 14.5267 148.652 14.452C148.783 14.3027 148.932 14.1347 149.1 13.948C149.287 13.7427 149.436 13.584 149.548 13.472C149.716 13.2854 149.912 13.2854 150.136 13.472C150.248 13.5654 150.407 13.7147 150.612 13.92C150.836 14.1067 151.051 14.2934 151.256 14.48C151.461 14.6667 151.611 14.816 151.704 14.928C151.928 15.152 151.9 15.3294 151.62 15.46C151.508 15.516 151.377 15.5814 151.228 15.656C151.097 15.712 150.976 15.7774 150.864 15.852C150.789 15.8894 150.733 15.936 150.696 15.992C150.659 16.048 150.64 16.1694 150.64 16.356C150.64 16.7667 150.649 17.2614 150.668 17.84C150.687 18.4 150.705 18.9507 150.724 19.492C150.761 20.0334 150.789 20.5 150.808 20.892C150.827 21.2654 150.836 21.48 150.836 21.536C150.836 21.6854 150.687 21.844 150.388 22.012C150.089 22.1614 149.744 22.236 149.352 22.236C149.184 22.236 149.053 22.208 148.96 22.152C148.867 22.096 148.82 21.9747 148.82 21.788V21.032H141.176V22.012C141.176 22.18 141.008 22.3294 140.672 22.46C140.336 22.5907 140.009 22.656 139.692 22.656ZM136.304 12.268L136.08 11.036C136.547 11.148 136.948 11.2134 137.284 11.232C137.62 11.2507 137.788 11.26 137.788 11.26H144.032V6.80802H139.972C139.58 7.57336 139.151 8.31069 138.684 9.02002C138.217 9.71069 137.741 10.3547 137.256 10.952C137.125 10.9707 137.013 10.952 136.92 10.896C136.845 10.8214 136.799 10.728 136.78 10.616C137.433 9.44002 138.021 8.15202 138.544 6.75202C139.085 5.33336 139.449 3.97069 139.636 2.66402C139.673 2.42136 139.683 2.22535 139.664 2.07602C139.664 1.90802 139.664 1.77735 139.664 1.68402C139.645 1.51602 139.655 1.40402 139.692 1.34802C139.748 1.25469 139.841 1.24536 139.972 1.32002C140.271 1.39469 140.681 1.53469 141.204 1.74002C141.745 1.94536 142.193 2.12269 142.548 2.27202C142.697 2.34669 142.753 2.46802 142.716 2.63602C142.697 2.72936 142.651 2.79469 142.576 2.83202C142.52 2.86936 142.455 2.88802 142.38 2.88802C141.951 2.83202 141.661 2.99069 141.512 3.36402C141.363 3.81202 141.195 4.25069 141.008 4.68002C140.821 5.10935 140.625 5.53869 140.42 5.96802H144.032V2.38402C144.032 1.69336 143.967 1.25469 143.836 1.06802C143.761 0.956021 143.761 0.853355 143.836 0.760021C143.892 0.704021 143.985 0.685354 144.116 0.704022C144.321 0.741355 144.592 0.797354 144.928 0.872021C145.264 0.928022 145.6 0.993355 145.936 1.06802C146.272 1.12402 146.543 1.18002 146.748 1.23602C146.935 1.29202 147.009 1.40402 146.972 1.57202C146.972 1.74002 146.879 1.84269 146.692 1.88002C146.487 1.89869 146.281 1.93602 146.076 1.99202C145.889 2.04802 145.796 2.21602 145.796 2.49602V5.96802H149.268C149.399 5.96802 149.492 5.93069 149.548 5.85602C149.641 5.74402 149.819 5.54802 150.08 5.26802C150.36 4.96935 150.537 4.76402 150.612 4.65202C150.761 4.50269 150.929 4.49335 151.116 4.62402C151.321 4.75469 151.601 4.98802 151.956 5.32402C152.311 5.64135 152.572 5.89335 152.74 6.08002C152.908 6.24802 152.964 6.41602 152.908 6.58402C152.871 6.73335 152.749 6.80802 152.544 6.80802H145.796V11.26H150.64C150.771 11.26 150.864 11.2227 150.92 11.148C151.032 10.9987 151.2 10.784 151.424 10.504C151.667 10.2054 151.844 9.99069 151.956 9.86002C152.068 9.71069 152.236 9.70136 152.46 9.83202C152.591 9.92535 152.768 10.0747 152.992 10.28C153.216 10.4667 153.44 10.6627 153.664 10.868C153.888 11.0734 154.056 11.2414 154.168 11.372C154.317 11.54 154.373 11.708 154.336 11.876C154.299 12.0254 154.177 12.1 153.972 12.1H137.816C137.816 12.1 137.657 12.1094 137.34 12.128C137.023 12.128 136.677 12.1747 136.304 12.268ZM131.152 25.932C130.984 26.0254 130.844 26.0067 130.732 25.876C130.601 25.6894 130.424 25.4467 130.2 25.148C129.976 24.868 129.743 24.5787 129.5 24.28C129.276 23.9814 129.08 23.7294 128.912 23.524C128.837 23.3934 128.828 23.2907 128.884 23.216C128.977 23.1227 129.145 23.0947 129.388 23.132C129.631 23.1507 129.883 23.1227 130.144 23.048C130.573 22.9174 131.096 22.74 131.712 22.516C132.347 22.2734 132.916 22.04 133.42 21.816V13.808H130.788C130.788 13.808 130.629 13.8174 130.312 13.836C130.013 13.836 129.677 13.8734 129.304 13.948L129.052 12.716C129.519 12.828 129.92 12.8934 130.256 12.912C130.611 12.9307 130.788 12.94 130.788 12.94H132.832C132.963 12.94 133.065 12.9027 133.14 12.828C133.252 12.6974 133.411 12.52 133.616 12.296C133.821 12.072 133.961 11.9134 134.036 11.82C134.129 11.7267 134.213 11.68 134.288 11.68C134.381 11.6614 134.493 11.708 134.624 11.82C134.736 11.8947 134.904 12.0347 135.128 12.24C135.352 12.4267 135.567 12.6227 135.772 12.828C135.996 13.0147 136.145 13.1547 136.22 13.248C136.425 13.4347 136.388 13.6027 136.108 13.752L135.296 14.2C135.221 14.256 135.165 14.312 135.128 14.368C135.091 14.4054 135.072 14.5174 135.072 14.704V21.088C135.072 21.984 135.595 22.684 136.64 23.188C137.704 23.692 139.253 23.944 141.288 23.944C142.221 23.944 143.285 23.9254 144.48 23.888C145.675 23.8507 146.897 23.804 148.148 23.748C149.417 23.692 150.612 23.6174 151.732 23.524C152.871 23.4307 153.832 23.328 154.616 23.216C154.299 23.5147 154.047 23.8787 153.86 24.308C153.673 24.756 153.561 25.1667 153.524 25.54C153.281 25.54 152.805 25.54 152.096 25.54C151.405 25.54 150.584 25.5307 149.632 25.512C148.68 25.512 147.681 25.512 146.636 25.512C145.609 25.512 144.62 25.512 143.668 25.512C142.735 25.512 141.932 25.512 141.26 25.512C139.281 25.512 137.732 25.1854 136.612 24.532C135.492 23.8787 134.783 23.0667 134.484 22.096C134.129 22.4134 133.653 22.824 133.056 23.328C132.477 23.8134 131.964 24.2147 131.516 24.532C131.348 24.6627 131.236 24.784 131.18 24.896C131.124 25.0267 131.152 25.2414 131.264 25.54C131.357 25.6894 131.32 25.82 131.152 25.932ZM141.176 20.164H148.82V15.404H141.176V20.164ZM135.1 6.55602C134.913 6.64936 134.727 6.67735 134.54 6.64002C134.372 6.58402 134.213 6.40669 134.064 6.10802C133.616 5.19335 133.065 4.39069 132.412 3.70002C131.759 2.99069 131.003 2.43069 130.144 2.02002C130.088 1.72135 130.181 1.54402 130.424 1.48802C131.021 1.61869 131.665 1.82402 132.356 2.10402C133.065 2.38402 133.709 2.72002 134.288 3.11202C134.867 3.48536 135.259 3.92402 135.464 4.42802C135.688 4.93202 135.744 5.38002 135.632 5.77202C135.539 6.14535 135.361 6.40669 135.1 6.55602Z" fill="#071923"/>
<path d="M95.48 26.016C95.088 26.016 94.892 25.848 94.892 25.512C94.892 25.4 94.9013 24.9053 94.92 24.028C94.9573 23.1507 94.9947 22.012 95.032 20.612C95.0693 19.212 95.0973 17.6533 95.116 15.936C95.1533 14.2187 95.172 12.464 95.172 10.672C95.172 9.79466 95.1533 9.11333 95.116 8.628C95.0973 8.124 95.0693 7.75066 95.032 7.508C94.9947 7.24666 94.9387 7.04133 94.864 6.892C94.8267 6.78 94.8453 6.68666 94.92 6.612C95.0133 6.51866 95.116 6.50933 95.228 6.584C95.4147 6.67733 95.7227 6.84533 96.152 7.088C96.5813 7.33066 96.936 7.536 97.216 7.704H99.316V3.476H95.06C95.06 3.476 94.9013 3.48533 94.584 3.504C94.2853 3.504 93.9493 3.54133 93.576 3.616L93.352 2.412C93.8187 2.524 94.22 2.58933 94.556 2.608C94.892 2.62666 95.06 2.636 95.06 2.636H108.108C108.239 2.636 108.341 2.59866 108.416 2.524C108.509 2.412 108.687 2.20666 108.948 1.908C109.209 1.60933 109.387 1.41333 109.48 1.32C109.629 1.152 109.797 1.14266 109.984 1.292C110.171 1.42266 110.441 1.656 110.796 1.992C111.151 2.30933 111.412 2.56133 111.58 2.748C111.748 2.916 111.804 3.084 111.748 3.252C111.711 3.40133 111.599 3.476 111.412 3.476H104.412V7.704H107.772C107.884 7.704 107.977 7.65733 108.052 7.564C108.201 7.41466 108.341 7.26533 108.472 7.116C108.603 6.948 108.724 6.79866 108.836 6.668C108.985 6.48133 109.172 6.472 109.396 6.64C109.601 6.808 109.891 7.05066 110.264 7.368C110.656 7.66666 110.927 7.89066 111.076 8.04C111.3 8.264 111.272 8.45066 110.992 8.6C110.861 8.67466 110.712 8.74933 110.544 8.824C110.395 8.88 110.264 8.936 110.152 8.992C110.077 9.02933 110.021 9.076 109.984 9.132C109.947 9.188 109.928 9.30933 109.928 9.496V11.932C109.928 12.9213 109.937 13.9853 109.956 15.124C109.975 16.244 109.993 17.3547 110.012 18.456C110.049 19.5573 110.077 20.5747 110.096 21.508C110.115 22.4227 110.133 23.1693 110.152 23.748C110.171 24.3267 110.18 24.6627 110.18 24.756C110.18 24.9053 110.059 25.064 109.816 25.232C109.592 25.4187 109.228 25.512 108.724 25.512C108.369 25.512 108.192 25.372 108.192 25.092V23.86H96.852V25.344C96.852 25.4747 96.7213 25.6147 96.46 25.764C96.2173 25.932 95.8907 26.016 95.48 26.016ZM96.852 18.12H108.192V8.544H104.412V13.276C104.412 13.7053 104.627 13.92 105.056 13.92C105.317 13.92 105.523 13.8827 105.672 13.808C105.821 13.7147 105.933 13.5467 106.008 13.304C106.045 13.136 106.111 12.8373 106.204 12.408C106.297 11.9787 106.353 11.6427 106.372 11.4C106.596 11.2133 106.792 11.2227 106.96 11.428C107.016 12.1747 107.091 12.716 107.184 13.052C107.277 13.388 107.455 13.612 107.716 13.724C108.015 13.836 108.164 14.0507 108.164 14.368C108.164 14.6107 108.08 14.8253 107.912 15.012C107.763 15.18 107.473 15.3107 107.044 15.404C106.633 15.4973 106.157 15.5627 105.616 15.6C105.093 15.6373 104.599 15.6373 104.132 15.6C103.199 15.5253 102.732 15.04 102.732 14.144V8.544H100.996C100.996 10.28 100.856 11.6987 100.576 12.8C100.296 13.8827 99.8947 14.7787 99.372 15.488C98.8493 16.1973 98.224 16.8693 97.496 17.504C97.1973 17.5413 97.048 17.42 97.048 17.14C97.496 16.5613 97.8693 16.02 98.168 15.516C98.4667 14.9933 98.6907 14.4333 98.84 13.836C99.008 13.22 99.1293 12.492 99.204 11.652C99.2787 10.812 99.316 9.776 99.316 8.544H96.852V18.12ZM96.852 23.02H108.192V18.96H96.852V23.02ZM90.384 26.016C89.9547 26.0533 89.6467 25.9973 89.46 25.848C89.2733 25.6987 89.18 25.4747 89.18 25.176C89.18 25.1013 89.18 25.008 89.18 24.896C89.18 24.784 89.1893 24.6533 89.208 24.504C89.2267 23.9813 89.236 23.328 89.236 22.544C89.236 21.76 89.18 21.0693 89.068 20.472C88.9747 19.856 88.7413 19.464 88.368 19.296C87.9947 19.1093 87.3787 18.9507 86.52 18.82C86.4453 18.7267 86.4173 18.624 86.436 18.512C86.4733 18.4 86.5387 18.316 86.632 18.26C86.688 18.26 86.7533 18.26 86.828 18.26C87.3693 18.2787 87.808 18.2693 88.144 18.232C88.4987 18.1947 88.7973 18.0453 89.04 17.784C89.264 17.5227 89.5347 17.1027 89.852 16.524C90.1693 15.9267 90.496 15.236 90.832 14.452C91.1867 13.668 91.532 12.8653 91.868 12.044C92.2227 11.204 92.54 10.42 92.82 9.692C93.1 8.964 93.3333 8.348 93.52 7.844C93.7067 7.34 93.8187 7.032 93.856 6.92C94.0987 6.808 94.2853 6.864 94.416 7.088C94.3787 7.18133 94.2667 7.508 94.08 8.068C93.8933 8.60933 93.66 9.29066 93.38 10.112C93.1187 10.9333 92.8293 11.82 92.512 12.772C92.2133 13.724 91.9147 14.648 91.616 15.544C91.336 16.44 91.0933 17.2333 90.888 17.924C90.6827 18.596 90.5427 19.0813 90.468 19.38C90.3373 20.0333 90.3653 20.696 90.552 21.368C90.7573 22.0213 90.972 22.628 91.196 23.188C91.308 23.4493 91.4013 23.692 91.476 23.916C91.5693 24.14 91.6347 24.3453 91.672 24.532C91.7467 24.8867 91.6627 25.2133 91.42 25.512C91.1773 25.8107 90.832 25.9787 90.384 26.016ZM92.064 5.912C91.896 6.024 91.7187 6.052 91.532 5.996C91.364 5.92133 91.1773 5.716 90.972 5.38C90.5987 4.72666 90.1227 4.12 89.544 3.56C88.9653 2.98133 88.3493 2.51466 87.696 2.16C87.6027 1.89866 87.6867 1.72133 87.948 1.628C88.732 1.796 89.5067 2.05733 90.272 2.412C91.056 2.748 91.6627 3.168 92.092 3.672C92.428 4.08266 92.5867 4.512 92.568 4.96C92.5493 5.38933 92.3813 5.70666 92.064 5.912ZM90.328 12.38C90.1413 12.4547 89.964 12.4453 89.796 12.352C89.628 12.2587 89.4507 12.044 89.264 11.708C88.9467 11.1107 88.5453 10.5413 88.06 10C87.5747 9.44 87.052 8.98266 86.492 8.628C86.4547 8.516 86.464 8.41333 86.52 8.32C86.576 8.208 86.6507 8.13333 86.744 8.096C87.5093 8.28266 88.2467 8.544 88.956 8.88C89.684 9.216 90.2347 9.65466 90.608 10.196C90.9253 10.6627 91.028 11.12 90.916 11.568C90.804 11.9973 90.608 12.268 90.328 12.38ZM100.996 7.704H102.732V3.476H100.996V7.704Z" fill="#071923"/>
<path d="M63.644 26.044C63.4013 25.26 63.0653 24.728 62.636 24.448C62.2253 24.168 61.5533 23.9814 60.62 23.888C60.5453 23.7947 60.5173 23.692 60.536 23.58C60.5733 23.468 60.6293 23.384 60.704 23.328C61.0213 23.3467 61.4787 23.3747 62.076 23.412C62.692 23.4494 63.252 23.468 63.756 23.468C64.0547 23.468 64.26 23.412 64.372 23.3C64.484 23.188 64.54 23.0294 64.54 22.824V12.94H53.452C53.4893 15.4414 53.5173 17.2707 53.536 18.428C53.5733 19.5667 53.592 20.1827 53.592 20.276C53.592 20.4254 53.4707 20.5747 53.228 20.724C53.004 20.8734 52.696 20.948 52.304 20.948C51.9867 20.948 51.828 20.8174 51.828 20.556V19.016H46.704V22.292C46.704 22.4227 46.5733 22.5627 46.312 22.712C46.0507 22.8614 45.752 22.936 45.416 22.936C45.08 22.936 44.912 22.8054 44.912 22.544C44.912 22.376 44.9213 21.7227 44.94 20.584C44.9773 19.4454 45.0053 17.6907 45.024 15.32C45.0613 12.9494 45.08 9.84136 45.08 5.99602C45.08 5.66002 45.0613 5.40802 45.024 5.24002C45.0053 5.07202 44.9587 4.94136 44.884 4.84802C44.828 4.71735 44.8373 4.61469 44.912 4.54002C44.9493 4.48402 45.0333 4.45602 45.164 4.45602C45.4627 4.51202 45.8733 4.60535 46.396 4.73602C46.9373 4.84802 47.3573 4.94135 47.656 5.01602C47.8427 5.07202 47.9173 5.19336 47.88 5.38002C47.8613 5.56669 47.7587 5.66002 47.572 5.66002C47.3853 5.67869 47.1893 5.72535 46.984 5.80002C46.7973 5.85602 46.704 6.02402 46.704 6.30402V18.176H48.552V2.58002C48.552 1.92669 48.4867 1.48802 48.356 1.26402C48.3 1.13335 48.3 1.03069 48.356 0.956022C48.3933 0.881355 48.4867 0.862688 48.636 0.900021C48.9347 0.937355 49.336 1.01202 49.84 1.12402C50.3627 1.23602 50.7733 1.33869 51.072 1.43202C51.2587 1.48802 51.3333 1.60002 51.296 1.76802C51.296 1.95469 51.1933 2.04802 50.988 2.04802C50.8013 2.06669 50.6053 2.11335 50.4 2.18802C50.2133 2.24402 50.12 2.41202 50.12 2.69202V18.176H51.828V7.00402C51.828 6.33202 51.7627 5.90269 51.632 5.71602C51.5573 5.58535 51.5573 5.48269 51.632 5.40802C51.6693 5.35202 51.7627 5.32402 51.912 5.32402C52.2107 5.38002 52.6213 5.47336 53.144 5.60402C53.6853 5.71602 54.1053 5.80936 54.404 5.88402C54.5533 5.94002 54.628 6.06135 54.628 6.24802C54.6093 6.43469 54.5067 6.52802 54.32 6.52802C54.1147 6.54669 53.9093 6.59335 53.704 6.66802C53.5173 6.72402 53.424 6.89202 53.424 7.17202C53.424 8.08669 53.424 8.96402 53.424 9.80402C53.424 10.6254 53.4333 11.3907 53.452 12.1H65.968C66.0987 12.1 66.2013 12.0627 66.276 11.988C66.3693 11.876 66.5467 11.6707 66.808 11.372C67.0693 11.0734 67.2467 10.8774 67.34 10.784C67.4893 10.616 67.6573 10.6067 67.844 10.756C68.0493 10.8867 68.32 11.12 68.656 11.456C69.0107 11.7734 69.2813 12.016 69.468 12.184C69.6173 12.3707 69.6733 12.548 69.636 12.716C69.5987 12.8654 69.4773 12.94 69.272 12.94H66.164V17.98C66.164 18.54 66.1733 19.1747 66.192 19.884C66.2107 20.5934 66.2293 21.2374 66.248 21.816C66.2667 22.3947 66.276 22.7774 66.276 22.964C66.276 23.7667 66.0987 24.4014 65.744 24.868C65.408 25.3534 64.708 25.7454 63.644 26.044ZM56.196 23.412C55.8787 23.412 55.72 23.2814 55.72 23.02C55.72 22.7774 55.7387 22.1147 55.776 21.032C55.8133 19.9494 55.832 18.6147 55.832 17.028C55.832 16.0947 55.8133 15.4787 55.776 15.18C55.7573 14.8814 55.7013 14.648 55.608 14.48C55.5707 14.3494 55.5893 14.2467 55.664 14.172C55.7573 14.0974 55.86 14.088 55.972 14.144C56.14 14.2374 56.4107 14.3867 56.784 14.592C57.1573 14.7974 57.4653 14.9747 57.708 15.124H59.92C60.0507 15.124 60.1533 15.0867 60.228 15.012L60.956 14.256C61.1053 14.0694 61.292 14.06 61.516 14.228C61.7213 14.3774 61.964 14.592 62.244 14.872C62.524 15.152 62.7387 15.3667 62.888 15.516C63.1493 15.7774 63.112 15.9734 62.776 16.104C62.6453 16.16 62.5427 16.2067 62.468 16.244C62.3933 16.2814 62.3 16.3187 62.188 16.356C62.1133 16.3934 62.0573 16.44 62.02 16.496C61.9827 16.552 61.964 16.6734 61.964 16.86C61.964 17.588 61.9733 18.2974 61.992 18.988C62.0293 19.6787 62.0573 20.2574 62.076 20.724C62.0947 21.172 62.104 21.4427 62.104 21.536C62.104 21.704 61.9733 21.8627 61.712 22.012C61.4693 22.1427 61.1613 22.208 60.788 22.208C60.4893 22.208 60.34 22.0587 60.34 21.76V20.948H57.428V22.796C57.428 22.908 57.3067 23.0387 57.064 23.188C56.84 23.3374 56.5507 23.412 56.196 23.412ZM54.096 11.792C53.9653 11.7547 53.8813 11.68 53.844 11.568C53.8067 11.456 53.8067 11.3534 53.844 11.26C55.5053 10.588 56.84 9.74802 57.848 8.74002C58.856 7.71336 59.4907 6.50002 59.752 5.10002H55.692C55.692 5.10002 55.5333 5.10936 55.216 5.12802C54.8987 5.12802 54.5533 5.17469 54.18 5.26802L53.956 4.03602C54.4227 4.14802 54.824 4.21336 55.16 4.23202C55.496 4.25069 55.664 4.26002 55.664 4.26002H59.864C59.8827 4.14802 59.892 4.03602 59.892 3.92402C59.892 3.79335 59.892 3.66269 59.892 3.53202C59.892 2.71069 59.8547 2.14135 59.78 1.82402C59.724 1.50669 59.64 1.25469 59.528 1.06802C59.472 0.937354 59.472 0.834688 59.528 0.760021C59.584 0.704021 59.6773 0.685354 59.808 0.704022C60.032 0.722688 60.3213 0.778688 60.676 0.872021C61.0307 0.946688 61.3853 1.03069 61.74 1.12402C62.0947 1.19869 62.384 1.26402 62.608 1.32002C62.7947 1.37602 62.8693 1.48802 62.832 1.65602C62.832 1.82402 62.7293 1.92669 62.524 1.96402C62.244 1.98269 62.0387 2.03869 61.908 2.13202C61.796 2.20669 61.74 2.36535 61.74 2.60802C61.74 2.90669 61.7307 3.19602 61.712 3.47602C61.6933 3.73735 61.6653 3.99869 61.628 4.26002H65.268C65.3987 4.26002 65.5013 4.22269 65.576 4.14802C65.6693 4.03602 65.8467 3.83069 66.108 3.53202C66.3693 3.23335 66.5467 3.03735 66.64 2.94402C66.7707 2.77602 66.9387 2.76669 67.144 2.91602C67.3493 3.04669 67.6293 3.28002 67.984 3.61602C68.3387 3.93336 68.6 4.18535 68.768 4.37202C68.936 4.54002 68.992 4.70802 68.936 4.87602C68.8987 5.02536 68.7773 5.10002 68.572 5.10002H61.488C61.4507 5.28669 61.404 5.46402 61.348 5.63202C61.292 5.80002 61.2453 5.95869 61.208 6.10802C61.768 6.31335 62.356 6.55602 62.972 6.83602C63.588 7.09735 64.1573 7.39602 64.68 7.73202C65.2213 8.04936 65.6507 8.41336 65.968 8.82402C66.304 9.25335 66.444 9.70135 66.388 10.168C66.332 10.6347 66.1733 10.9427 65.912 11.092C65.744 11.1854 65.5853 11.2134 65.436 11.176C65.3053 11.12 65.156 10.9707 64.988 10.728C64.4653 9.86935 63.868 9.11336 63.196 8.46002C62.524 7.80669 61.7773 7.21869 60.956 6.69602C60.508 7.74135 59.9013 8.59069 59.136 9.24402C58.3707 9.89736 57.54 10.42 56.644 10.812C55.7667 11.204 54.9173 11.5307 54.096 11.792ZM57.428 20.108H60.34V15.964H57.428V20.108Z" fill="#071923"/>
<path d="M6.384 26.044C5.992 26.044 5.796 25.876 5.796 25.54C5.796 25.4654 5.80533 25.092 5.824 24.42C5.86133 23.748 5.89866 22.8987 5.936 21.872C5.992 20.8454 6.02933 19.744 6.048 18.568C6.08533 17.392 6.104 16.272 6.104 15.208V12.744C5.41333 14.3494 4.648 15.8614 3.808 17.28C2.968 18.6987 2.14666 19.9027 1.344 20.892C1.232 20.9107 1.12933 20.8827 1.036 20.808C0.942663 20.7334 0.895996 20.64 0.895996 20.528C1.43733 19.5574 2.016 18.4094 2.632 17.084C3.248 15.7587 3.836 14.34 4.396 12.828C4.97466 11.2974 5.44133 9.75737 5.796 8.20804H3.052C3.052 8.20804 2.89333 8.21737 2.576 8.23603C2.27733 8.23603 1.932 8.27337 1.54 8.34803L1.316 7.14403C1.78266 7.25603 2.184 7.32137 2.52 7.34003C2.856 7.3587 3.024 7.36803 3.024 7.36803H6.104V2.46803C6.104 1.83337 6.02933 1.3947 5.88 1.15203C5.80533 1.0587 5.81466 0.965367 5.908 0.872034C5.964 0.778701 6.048 0.7507 6.16 0.788033C6.45866 0.844034 6.86933 0.928034 7.392 1.04003C7.93333 1.15203 8.35333 1.2547 8.652 1.34803C8.83866 1.40403 8.91333 1.51603 8.876 1.68403C8.876 1.79603 8.848 1.8707 8.792 1.90803C8.736 1.94537 8.67066 1.97337 8.596 1.99203C8.39066 2.0107 8.18533 2.04803 7.98 2.10403C7.79333 2.16003 7.7 2.33737 7.7 2.63603V7.36803H8.876C9.00666 7.36803 9.10933 7.3307 9.184 7.25603C9.27733 7.12537 9.41733 6.94803 9.604 6.72403C9.80933 6.48137 9.94933 6.31337 10.024 6.22003C10.192 6.05203 10.3693 6.0427 10.556 6.19203C10.7427 6.3227 10.976 6.52804 11.256 6.80803C11.5547 7.08803 11.7973 7.31203 11.984 7.48003C12.1333 7.64803 12.18 7.81603 12.124 7.98403C12.0867 8.13337 11.9933 8.20804 11.844 8.20804H7.7V11.708C8.05466 11.8947 8.43733 12.1374 8.848 12.436C9.25866 12.716 9.66 13.0334 10.052 13.388C10.6307 12.6974 11.1907 11.876 11.732 10.924C12.292 9.97204 12.768 8.9547 13.16 7.87203C13.552 6.78937 13.7853 5.71603 13.86 4.65203C13.8787 4.37203 13.8787 4.1387 13.86 3.95203C13.86 3.7467 13.8507 3.58803 13.832 3.47603C13.8133 3.2707 13.832 3.14937 13.888 3.11203C14 3.03737 14.1213 3.03737 14.252 3.11203C14.5693 3.22403 14.952 3.37337 15.4 3.56003C15.848 3.72803 16.24 3.8867 16.576 4.03603C16.7253 4.1107 16.7813 4.24137 16.744 4.42803C16.688 4.6147 16.576 4.68937 16.408 4.65203C16.1653 4.63337 15.988 4.66137 15.876 4.73603C15.7827 4.79203 15.7173 4.96003 15.68 5.24004C15.4373 6.39737 15.0547 7.51737 14.532 8.60003C14.0093 9.66403 13.4027 10.644 12.712 11.54C12.0213 12.4174 11.2933 13.1827 10.528 13.836C10.7707 14.0974 10.9853 14.368 11.172 14.648C11.3587 14.928 11.4987 15.208 11.592 15.488C11.7413 15.9547 11.704 16.384 11.48 16.776C11.256 17.168 10.9947 17.3827 10.696 17.42C10.4533 17.4387 10.2667 17.3827 10.136 17.252C10.024 17.1027 9.92133 16.8507 9.828 16.496C9.604 15.768 9.31466 15.0587 8.96 14.368C8.60533 13.6587 8.18533 13.0427 7.7 12.52V15.208C7.7 16.2347 7.70933 17.3174 7.728 18.456C7.74666 19.576 7.756 20.64 7.756 21.648C7.77466 22.656 7.79333 23.496 7.812 24.168C7.83066 24.8587 7.84 25.26 7.84 25.372C7.84 25.5214 7.672 25.6707 7.336 25.82C7.01866 25.9694 6.70133 26.044 6.384 26.044ZM11.228 25.092C11.06 25.1667 10.9387 25.1107 10.864 24.924C10.7707 24.7187 10.6493 24.448 10.5 24.112C10.3507 23.776 10.192 23.44 10.024 23.104C9.87466 22.768 9.75333 22.5067 9.66 22.32C9.604 22.1894 9.61333 22.096 9.688 22.04C9.78133 21.984 9.97733 21.984 10.276 22.04C10.4067 22.0587 10.5653 22.0867 10.752 22.124C10.9387 22.1427 11.172 22.152 11.452 22.152C11.6387 22.152 11.844 22.152 12.068 22.152C12.292 22.152 12.5253 22.152 12.768 22.152C12.8987 22.152 13.0293 22.152 13.16 22.152C13.3093 22.152 13.4587 22.152 13.608 22.152C13.8133 21.5547 14.0373 20.836 14.28 19.996C14.5227 19.1374 14.7653 18.2507 15.008 17.336C15.2507 16.4214 15.456 15.544 15.624 14.704C15.8107 13.8454 15.9413 13.108 16.016 12.492C16.0533 12.1934 16.0627 11.9507 16.044 11.764C16.044 11.5587 16.0347 11.3907 16.016 11.26C15.9787 11.0174 15.9973 10.8774 16.072 10.84C16.072 10.84 16.0813 10.84 16.1 10.84C16.1747 10.8027 16.2587 10.8027 16.352 10.84C16.5387 10.9147 16.8187 11.0267 17.192 11.176C17.584 11.3254 17.976 11.484 18.368 11.652C18.76 11.8014 19.0587 11.9227 19.264 12.016C19.432 12.0907 19.4787 12.212 19.404 12.38C19.348 12.548 19.2267 12.632 19.04 12.632C18.7787 12.5947 18.5733 12.604 18.424 12.66C18.2933 12.6974 18.1813 12.8654 18.088 13.164C17.92 13.7614 17.6867 14.452 17.388 15.236C17.108 16.02 16.7907 16.832 16.436 17.672C16.1 18.512 15.7547 19.3147 15.4 20.08C15.064 20.8454 14.756 21.5174 14.476 22.096C15.3907 22.0587 16.3427 22.012 17.332 21.956C18.34 21.9 19.32 21.8347 20.272 21.76C21.2427 21.6667 22.1107 21.5827 22.876 21.508C21.924 19.772 20.776 18.232 19.432 16.888C19.4133 16.7574 19.4413 16.6547 19.516 16.58C19.6093 16.5054 19.712 16.468 19.824 16.468C20.6453 16.9347 21.4667 17.504 22.288 18.176C23.128 18.848 23.8653 19.548 24.5 20.276C25.1533 20.9854 25.5733 21.6574 25.76 22.292C25.928 22.8147 25.9653 23.328 25.872 23.832C25.7973 24.336 25.5827 24.6627 25.228 24.812C25.0227 24.9054 24.8173 24.9147 24.612 24.84C24.4067 24.784 24.248 24.5974 24.136 24.28C23.912 23.6267 23.6133 22.936 23.24 22.208C22.456 22.376 21.5693 22.5534 20.58 22.74C19.5907 22.908 18.5733 23.0854 17.528 23.272C16.5013 23.44 15.512 23.5987 14.56 23.748C13.6267 23.8974 12.8053 24.0187 12.096 24.112C11.8533 24.1307 11.6853 24.1774 11.592 24.252C11.4987 24.3454 11.4613 24.5134 11.48 24.756C11.48 24.924 11.396 25.036 11.228 25.092ZM24.724 14.312C23.9027 13.6027 23.1187 12.716 22.372 11.652C21.6253 10.588 21.0187 9.3467 20.552 7.92803C20.0853 6.4907 19.852 4.88537 19.852 3.11203H17.416C17.416 3.11203 17.2573 3.12137 16.94 3.14003C16.6413 3.14003 16.3053 3.17737 15.932 3.25203L15.68 2.04803C16.1653 2.16003 16.576 2.22537 16.912 2.24403C17.248 2.2627 17.416 2.27203 17.416 2.27203H18.956C19.1053 2.27203 19.1987 2.22537 19.236 2.13204C19.3293 2.0387 19.46 1.88937 19.628 1.68403C19.8147 1.4787 19.964 1.32003 20.076 1.20803C20.1693 1.09603 20.2533 1.04003 20.328 1.04003C20.4027 1.04003 20.496 1.0867 20.608 1.18003C20.8507 1.32937 21.1587 1.54403 21.532 1.82403C21.9053 2.10403 22.1853 2.32804 22.372 2.49604C22.4653 2.5707 22.5027 2.67337 22.484 2.80403C22.484 2.91603 22.4093 3.0187 22.26 3.11203C22.092 3.1867 21.896 3.28003 21.672 3.39203C21.4667 3.48537 21.2987 3.56937 21.168 3.64403C21.056 3.70003 20.9813 3.75603 20.944 3.81203C20.9067 3.86803 20.888 3.98003 20.888 4.14803C20.888 5.19337 21.0747 6.16403 21.448 7.06003C21.84 7.93737 22.3533 8.74937 22.988 9.49604C23.6227 10.224 24.3133 10.868 25.06 11.428C25.8253 11.988 26.5813 12.464 27.328 12.856C26.7867 12.9307 26.2733 13.1174 25.788 13.416C25.3213 13.7147 24.9667 14.0134 24.724 14.312Z" fill="#071923"/>
<path d="M149.998 38.124C151.044 38.124 151.954 38.334 152.728 38.754C153.512 39.174 154.119 39.7667 154.548 40.532C154.987 41.2974 155.206 42.1934 155.206 43.22C155.206 44.2467 154.987 45.1427 154.548 45.908C154.119 46.6734 153.512 47.266 152.728 47.686C151.954 48.106 151.044 48.316 149.998 48.316C148.972 48.316 148.066 48.106 147.282 47.686C146.508 47.266 145.901 46.6734 145.462 45.908C145.033 45.1427 144.818 44.2467 144.818 43.22C144.818 42.1934 145.033 41.2974 145.462 40.532C145.901 39.7667 146.508 39.174 147.282 38.754C148.066 38.334 148.972 38.124 149.998 38.124ZM149.998 47.84C150.754 47.84 151.408 47.6487 151.958 47.266C152.509 46.8834 152.938 46.3467 153.246 45.656C153.554 44.9654 153.708 44.1534 153.708 43.22C153.708 42.2867 153.554 41.4747 153.246 40.784C152.938 40.0934 152.509 39.5567 151.958 39.174C151.408 38.7914 150.754 38.6 149.998 38.6C149.261 38.6 148.612 38.7914 148.052 39.174C147.502 39.5567 147.072 40.0934 146.764 40.784C146.456 41.4747 146.302 42.2867 146.302 43.22C146.302 44.1534 146.456 44.9654 146.764 45.656C147.072 46.3467 147.502 46.8834 148.052 47.266C148.612 47.6487 149.261 47.84 149.998 47.84Z" fill="#071923"/>
<path d="M141.772 38.124C141.772 38.124 141.772 38.1473 141.772 38.194C141.772 38.2313 141.772 38.25 141.772 38.25L135.78 48.12H134.31V47.994L139.938 38.782H134.506V38.306H140.288C140.475 38.306 140.671 38.2967 140.876 38.278C141.091 38.2593 141.277 38.236 141.436 38.208C141.604 38.18 141.716 38.152 141.772 38.124ZM141.786 47.644L141.702 48.12H135.234V47.644H141.786ZM142.248 45.74L141.772 48.12H139.686L139.812 47.742L139.994 47.644C140.545 47.644 140.997 47.4667 141.352 47.112C141.716 46.748 141.968 46.2907 142.108 45.74H142.248ZM135.668 38.782C135.369 38.7913 135.122 38.894 134.926 39.09C134.739 39.2767 134.646 39.5193 134.646 39.818V40.042H134.506V38.74H135.668V38.782ZM134.506 38.054C134.599 38.0913 134.739 38.1287 134.926 38.166C135.122 38.2033 135.337 38.236 135.57 38.264C135.803 38.292 136.018 38.306 136.214 38.306L134.506 38.46V38.054Z" fill="#071923"/>
<path d="M123.896 38.32V44.48C123.896 45.152 124.013 45.74 124.246 46.244C124.489 46.748 124.825 47.14 125.254 47.42C125.693 47.6907 126.201 47.826 126.78 47.826C127.387 47.826 127.914 47.6953 128.362 47.434C128.819 47.1727 129.169 46.804 129.412 46.328C129.664 45.852 129.79 45.2967 129.79 44.662V38.32H130.56V44.634C130.56 45.3713 130.401 46.0153 130.084 46.566C129.776 47.1167 129.328 47.546 128.74 47.854C128.161 48.162 127.48 48.316 126.696 48.316C125.847 48.316 125.114 48.1667 124.498 47.868C123.882 47.56 123.411 47.1307 123.084 46.58C122.757 46.0293 122.594 45.3853 122.594 44.648V38.32H123.896ZM122.636 38.32V39.16H122.594C122.594 38.9547 122.519 38.7867 122.37 38.656C122.23 38.5253 122.057 38.46 121.852 38.46C121.852 38.46 121.815 38.46 121.74 38.46C121.665 38.46 121.628 38.46 121.628 38.46V38.32H122.636ZM124.862 38.32V38.46C124.862 38.46 124.825 38.46 124.75 38.46C124.675 38.46 124.638 38.46 124.638 38.46C124.433 38.46 124.255 38.5253 124.106 38.656C123.966 38.7867 123.896 38.9547 123.896 39.16H123.868V38.32H124.862ZM129.832 38.32V39.16H129.79C129.79 38.9547 129.715 38.7867 129.566 38.656C129.426 38.5253 129.253 38.46 129.048 38.46C129.048 38.46 129.011 38.46 128.936 38.46C128.861 38.46 128.824 38.46 128.824 38.46V38.32H129.832ZM131.526 38.32V38.46C131.526 38.46 131.489 38.46 131.414 38.46C131.339 38.46 131.302 38.46 131.302 38.46C131.097 38.46 130.919 38.5253 130.77 38.656C130.63 38.7867 130.56 38.9547 130.56 39.16H130.532V38.32H131.526Z" fill="#071923"/>
<path d="M112.531 38.334L115.317 43.472L114.253 43.864L110.935 38.334H112.531ZM115.471 43.612V48.12H114.169V43.612H115.471ZM117.879 38.334H118.817L115.359 43.906L114.785 43.752L117.879 38.334ZM117.305 39.328C117.389 39.1973 117.412 39.0667 117.375 38.936C117.337 38.796 117.267 38.684 117.165 38.6C117.062 38.5067 116.945 38.46 116.815 38.46C116.815 38.46 116.787 38.46 116.731 38.46C116.675 38.46 116.647 38.46 116.647 38.46V38.32H119.839V38.46H119.643C119.353 38.46 119.083 38.544 118.831 38.712C118.579 38.88 118.378 39.0713 118.229 39.286L117.305 39.328ZM113.063 39.328L111.495 39.286C111.364 39.0713 111.173 38.88 110.921 38.712C110.669 38.544 110.393 38.46 110.095 38.46H109.899V38.32H113.735V38.46C113.735 38.46 113.702 38.46 113.637 38.46C113.581 38.46 113.553 38.46 113.553 38.46C113.347 38.46 113.189 38.558 113.077 38.754C112.974 38.9407 112.969 39.132 113.063 39.328ZM114.197 47.098V48.12H113.091V47.98C113.091 47.98 113.119 47.98 113.175 47.98C113.231 47.98 113.263 47.98 113.273 47.98C113.515 47.98 113.721 47.896 113.889 47.728C114.066 47.5507 114.159 47.3407 114.169 47.098H114.197ZM115.429 47.098H115.471C115.471 47.3407 115.559 47.5507 115.737 47.728C115.914 47.896 116.124 47.98 116.367 47.98C116.367 47.98 116.395 47.98 116.451 47.98C116.507 47.98 116.535 47.98 116.535 47.98V48.12H115.429V47.098Z" fill="#071923"/>
<path d="M105.254 38.124C105.412 38.124 105.594 38.1334 105.8 38.152C106.005 38.1707 106.21 38.1987 106.416 38.236C106.63 38.264 106.817 38.2967 106.976 38.334C107.144 38.362 107.265 38.3947 107.34 38.432L107.284 40.098H107.158C107.158 39.6407 106.994 39.2767 106.668 39.006C106.341 38.7354 105.93 38.6 105.436 38.6C104.913 38.6 104.488 38.754 104.162 39.062C103.844 39.3607 103.686 39.7154 103.686 40.126C103.676 40.3314 103.728 40.5507 103.84 40.784C103.961 41.008 104.143 41.218 104.386 41.414L107.116 43.696C107.442 43.948 107.671 44.242 107.802 44.578C107.942 44.9047 108.007 45.2454 107.998 45.6C107.979 46.4214 107.704 47.0794 107.172 47.574C106.64 48.0687 105.921 48.316 105.016 48.316C104.726 48.316 104.414 48.288 104.078 48.232C103.751 48.176 103.443 48.092 103.154 47.98C102.864 47.8587 102.631 47.7047 102.454 47.518C102.407 47.35 102.384 47.1447 102.384 46.902C102.393 46.65 102.421 46.3934 102.468 46.132C102.524 45.8707 102.594 45.6374 102.678 45.432H102.804C102.757 45.908 102.822 46.3327 103 46.706C103.186 47.0794 103.452 47.3687 103.798 47.574C104.152 47.77 104.558 47.8587 105.016 47.84C105.566 47.8214 106.019 47.6534 106.374 47.336C106.738 47.0094 106.92 46.5847 106.92 46.062C106.92 45.7914 106.859 45.544 106.738 45.32C106.616 45.096 106.43 44.8954 106.178 44.718L103.574 42.506C103.219 42.2447 102.967 41.9367 102.818 41.582C102.668 41.2274 102.603 40.8727 102.622 40.518C102.64 40.098 102.752 39.706 102.958 39.342C103.163 38.9687 103.457 38.6747 103.84 38.46C104.232 38.236 104.703 38.124 105.254 38.124ZM107.34 38.264V38.558H106.08V38.264H107.34Z" fill="#071923"/>
<path d="M93.5004 38.32V48.12H92.1984V38.32H93.5004ZM92.2404 47.098V48.12H91.1204V47.98C91.1204 47.98 91.1484 47.98 91.2044 47.98C91.2697 47.98 91.3024 47.98 91.3024 47.98C91.545 47.98 91.7504 47.896 91.9184 47.728C92.0957 47.5507 92.189 47.3407 92.1984 47.098H92.2404ZM92.2404 39.342H92.1984C92.189 39.0993 92.0957 38.894 91.9184 38.726C91.7504 38.5487 91.545 38.46 91.3024 38.46C91.3024 38.46 91.2697 38.46 91.2044 38.46C91.1484 38.46 91.1204 38.46 91.1204 38.46V38.32H92.2404V39.342ZM93.4584 47.098H93.5004C93.5097 47.3407 93.5984 47.5507 93.7664 47.728C93.9437 47.896 94.1537 47.98 94.3964 47.98C94.3964 47.98 94.4244 47.98 94.4804 47.98C94.5364 47.98 94.569 47.98 94.5784 47.98V48.12H93.4584V47.098ZM93.4584 39.342V38.32H94.5784V38.46C94.569 38.46 94.5364 38.46 94.4804 38.46C94.4244 38.46 94.3964 38.46 94.3964 38.46C94.1537 38.46 93.9437 38.5487 93.7664 38.726C93.5984 38.894 93.5097 39.0993 93.5004 39.342H93.4584Z" fill="#071923"/>
<path d="M83.9184 42.52L87.7964 47.308C88.0017 47.5227 88.207 47.686 88.4124 47.798C88.6177 47.91 88.865 47.9707 89.1544 47.98V48.12H88.3704C88.277 48.12 88.1324 48.1153 87.9364 48.106C87.7404 48.0873 87.5257 48.05 87.2924 47.994C87.059 47.938 86.8257 47.8493 86.5924 47.728C86.359 47.5973 86.1537 47.42 85.9764 47.196C85.9577 47.1773 85.869 47.0747 85.7104 46.888C85.561 46.692 85.3697 46.4493 85.1364 46.16C84.903 45.8613 84.6557 45.5487 84.3944 45.222C84.1424 44.8953 83.8997 44.592 83.6664 44.312C83.433 44.0227 83.2417 43.7893 83.0924 43.612C82.9524 43.4253 82.8824 43.332 82.8824 43.332L83.9184 42.52ZM87.7964 38.418L83.5964 43.304L82.8824 43.332L86.7324 38.418H87.7964ZM88.7624 38.32V38.446H88.7064C88.3984 38.446 88.109 38.5067 87.8384 38.628C87.577 38.7493 87.353 38.9173 87.1664 39.132L86.2004 39.104C86.3217 38.9453 86.3404 38.796 86.2564 38.656C86.1817 38.516 86.051 38.446 85.8644 38.446H85.7244V38.32H88.7064H88.7624ZM82.4344 38.32V48.12H81.1324V38.32H82.4344ZM81.1744 47.098V48.12H80.0544V47.98C80.0544 47.98 80.0824 47.98 80.1384 47.98C80.2037 47.98 80.2364 47.98 80.2364 47.98C80.479 47.98 80.6844 47.896 80.8524 47.728C81.0297 47.5507 81.123 47.3407 81.1324 47.098H81.1744ZM81.1744 39.342H81.1324C81.123 39.0993 81.0297 38.894 80.8524 38.726C80.6844 38.5487 80.479 38.46 80.2364 38.46C80.2364 38.46 80.2037 38.46 80.1384 38.46C80.0824 38.46 80.0544 38.46 80.0544 38.46V38.32H81.1744V39.342ZM82.3924 47.098H82.4344C82.4437 47.3407 82.5324 47.5507 82.7004 47.728C82.8777 47.896 83.0877 47.98 83.3304 47.98C83.3397 47.98 83.3677 47.98 83.4144 47.98C83.4704 47.98 83.503 47.98 83.5124 47.98V48.12H82.3924V47.098ZM82.3924 39.342V38.32H83.5124V38.46C83.503 38.46 83.4704 38.46 83.4144 38.46C83.3677 38.46 83.3397 38.46 83.3304 38.46C83.0877 38.46 82.8777 38.5487 82.7004 38.726C82.5324 38.894 82.4437 39.0993 82.4344 39.342H82.3924Z" fill="#071923"/>
<path d="M72.9022 38.096L77.2002 48.036H75.5622L72.4402 39.888L72.9022 38.096ZM69.8922 47.098C69.8269 47.2847 69.8175 47.4433 69.8642 47.574C69.9109 47.7047 69.9855 47.8073 70.0882 47.882C70.2002 47.9473 70.3122 47.98 70.4242 47.98H70.5502V48.12H67.6802V47.98C67.6802 47.98 67.7035 47.98 67.7502 47.98C67.7875 47.98 67.8062 47.98 67.8062 47.98C68.0209 47.98 68.2402 47.9147 68.4642 47.784C68.6975 47.644 68.8889 47.4153 69.0382 47.098H69.8922ZM72.9022 38.096L73.0142 39.314L69.5142 48.078H68.6042L72.2022 39.664C72.2115 39.6453 72.2442 39.5753 72.3002 39.454C72.3655 39.3233 72.4309 39.1693 72.4962 38.992C72.5709 38.8147 72.6362 38.642 72.6922 38.474C72.7482 38.306 72.7762 38.18 72.7762 38.096H72.9022ZM74.7082 44.466V44.942H70.4242V44.466H74.7082ZM75.1982 47.098H76.7802C76.9295 47.4153 77.1162 47.644 77.3402 47.784C77.5735 47.9147 77.7975 47.98 78.0122 47.98C78.0122 47.98 78.0309 47.98 78.0682 47.98C78.1055 47.98 78.1242 47.98 78.1242 47.98V48.12H74.5402V47.98H74.6662C74.8529 47.98 75.0162 47.9053 75.1562 47.756C75.2962 47.5973 75.3102 47.378 75.1982 47.098Z" fill="#071923"/>
<path d="M65.5761 38.124C65.5761 38.124 65.5761 38.1473 65.5761 38.194C65.5761 38.2313 65.5761 38.25 65.5761 38.25L59.5841 48.12H58.1141V47.994L63.7421 38.782H58.3101V38.306H64.0921C64.2787 38.306 64.4747 38.2967 64.6801 38.278C64.8947 38.2593 65.0814 38.236 65.2401 38.208C65.4081 38.18 65.5201 38.152 65.5761 38.124ZM65.5901 47.644L65.5061 48.12H59.0381V47.644H65.5901ZM66.0521 45.74L65.5761 48.12H63.4901L63.6161 47.742L63.7981 47.644C64.3487 47.644 64.8014 47.4667 65.1561 47.112C65.5201 46.748 65.7721 46.2907 65.9121 45.74H66.0521ZM59.4721 38.782C59.1734 38.7913 58.9261 38.894 58.7301 39.09C58.5434 39.2767 58.4501 39.5193 58.4501 39.818V40.042H58.3101V38.74H59.4721V38.782ZM58.3101 38.054C58.4034 38.0913 58.5434 38.1287 58.7301 38.166C58.9261 38.2033 59.1407 38.236 59.3741 38.264C59.6074 38.292 59.8221 38.306 60.0181 38.306L58.3101 38.46V38.054Z" fill="#071923"/>
<path d="M47.6998 38.32V44.48C47.6998 45.152 47.8165 45.74 48.0498 46.244C48.2925 46.748 48.6285 47.14 49.0578 47.42C49.4965 47.6907 50.0051 47.826 50.5838 47.826C51.1905 47.826 51.7178 47.6953 52.1658 47.434C52.6231 47.1727 52.9731 46.804 53.2158 46.328C53.4678 45.852 53.5938 45.2967 53.5938 44.662V38.32H54.3638V44.634C54.3638 45.3713 54.2051 46.0153 53.8878 46.566C53.5798 47.1167 53.1318 47.546 52.5438 47.854C51.9651 48.162 51.2838 48.316 50.4998 48.316C49.6505 48.316 48.9178 48.1667 48.3018 47.868C47.6858 47.56 47.2145 47.1307 46.8878 46.58C46.5611 46.0293 46.3978 45.3853 46.3978 44.648V38.32H47.6998ZM46.4398 38.32V39.16H46.3978C46.3978 38.9547 46.3231 38.7867 46.1738 38.656C46.0338 38.5253 45.8611 38.46 45.6558 38.46C45.6558 38.46 45.6185 38.46 45.5438 38.46C45.4691 38.46 45.4318 38.46 45.4318 38.46V38.32H46.4398ZM48.6658 38.32V38.46C48.6658 38.46 48.6285 38.46 48.5538 38.46C48.4791 38.46 48.4418 38.46 48.4418 38.46C48.2365 38.46 48.0591 38.5253 47.9098 38.656C47.7698 38.7867 47.6998 38.9547 47.6998 39.16H47.6718V38.32H48.6658ZM53.6358 38.32V39.16H53.5938C53.5938 38.9547 53.5191 38.7867 53.3698 38.656C53.2298 38.5253 53.0571 38.46 52.8518 38.46C52.8518 38.46 52.8145 38.46 52.7398 38.46C52.6651 38.46 52.6278 38.46 52.6278 38.46V38.32H53.6358ZM55.3298 38.32V38.46C55.3298 38.46 55.2925 38.46 55.2178 38.46C55.1431 38.46 55.1058 38.46 55.1058 38.46C54.9005 38.46 54.7231 38.5253 54.5738 38.656C54.4338 38.7867 54.3638 38.9547 54.3638 39.16H54.3358V38.32H55.3298Z" fill="#071923"/>
<path d="M39.9594 38.124C40.1181 38.124 40.3001 38.1334 40.5054 38.152C40.7108 38.1707 40.9161 38.1987 41.1214 38.236C41.3361 38.264 41.5228 38.2967 41.6814 38.334C41.8494 38.362 41.9708 38.3947 42.0454 38.432L41.9894 40.098H41.8634C41.8634 39.6407 41.7001 39.2767 41.3734 39.006C41.0468 38.7354 40.6361 38.6 40.1414 38.6C39.6188 38.6 39.1941 38.754 38.8674 39.062C38.5501 39.3607 38.3914 39.7154 38.3914 40.126C38.3821 40.3314 38.4334 40.5507 38.5454 40.784C38.6668 41.008 38.8488 41.218 39.0914 41.414L41.8214 43.696C42.1481 43.948 42.3768 44.242 42.5074 44.578C42.6474 44.9047 42.7128 45.2454 42.7034 45.6C42.6848 46.4214 42.4094 47.0794 41.8774 47.574C41.3454 48.0687 40.6268 48.316 39.7214 48.316C39.4321 48.316 39.1194 48.288 38.7834 48.232C38.4568 48.176 38.1488 48.092 37.8594 47.98C37.5701 47.8587 37.3368 47.7047 37.1594 47.518C37.1128 47.35 37.0894 47.1447 37.0894 46.902C37.0988 46.65 37.1268 46.3934 37.1734 46.132C37.2294 45.8707 37.2994 45.6374 37.3834 45.432H37.5094C37.4628 45.908 37.5281 46.3327 37.7054 46.706C37.8921 47.0794 38.1581 47.3687 38.5034 47.574C38.8581 47.77 39.2641 47.8587 39.7214 47.84C40.2721 47.8214 40.7248 47.6534 41.0794 47.336C41.4434 47.0094 41.6254 46.5847 41.6254 46.062C41.6254 45.7914 41.5648 45.544 41.4434 45.32C41.3221 45.096 41.1354 44.8954 40.8834 44.718L38.2794 42.506C37.9248 42.2447 37.6728 41.9367 37.5234 41.582C37.3741 41.2274 37.3088 40.8727 37.3274 40.518C37.3461 40.098 37.4581 39.706 37.6634 39.342C37.8688 38.9687 38.1628 38.6747 38.5454 38.46C38.9374 38.236 39.4088 38.124 39.9594 38.124ZM42.0454 38.264V38.558H40.7854V38.264H42.0454Z" fill="#071923"/>
<path d="M31.1424 38.362V48.12H29.8404V38.362H31.1424ZM34.6844 38.306V38.782H26.2984V38.306H34.6844ZM34.6844 38.74V40.042L34.5444 40.028V39.818C34.5444 39.5193 34.4464 39.2767 34.2504 39.09C34.0637 38.894 33.8211 38.7913 33.5224 38.782V38.74H34.6844ZM34.6844 38.054V38.46L32.9764 38.306C33.1817 38.306 33.3964 38.292 33.6204 38.264C33.8537 38.236 34.0684 38.2033 34.2644 38.166C34.4604 38.1287 34.6004 38.0913 34.6844 38.054ZM29.8824 47.098V48.12H28.7624V47.98C28.7624 47.98 28.7904 47.98 28.8464 47.98C28.9117 47.98 28.9444 47.98 28.9444 47.98C29.1871 47.98 29.3924 47.896 29.5604 47.728C29.7377 47.5507 29.8311 47.3407 29.8404 47.098H29.8824ZM31.1004 47.098H31.1424C31.1517 47.3407 31.2404 47.5507 31.4084 47.728C31.5857 47.896 31.7957 47.98 32.0384 47.98C32.0384 47.98 32.0664 47.98 32.1224 47.98C32.1877 47.98 32.2204 47.98 32.2204 47.98V48.12H31.1004V47.098ZM27.4604 38.74V38.782C27.1617 38.7913 26.9144 38.894 26.7184 39.09C26.5317 39.2767 26.4384 39.5193 26.4384 39.818V40.028L26.2984 40.042V38.74H27.4604ZM26.2984 38.054C26.3917 38.0913 26.5317 38.1287 26.7184 38.166C26.9144 38.2033 27.1291 38.236 27.3624 38.264C27.5957 38.292 27.8104 38.306 28.0064 38.306L26.2984 38.46V38.054Z" fill="#071923"/>
<path d="M20.7167 38.096L25.0147 48.036H23.3767L20.2547 39.888L20.7167 38.096ZM17.7067 47.098C17.6413 47.2847 17.632 47.4433 17.6787 47.574C17.7253 47.7047 17.8 47.8073 17.9027 47.882C18.0147 47.9473 18.1267 47.98 18.2387 47.98H18.3647V48.12H15.4947V47.98C15.4947 47.98 15.518 47.98 15.5647 47.98C15.602 47.98 15.6207 47.98 15.6207 47.98C15.8353 47.98 16.0547 47.9147 16.2787 47.784C16.512 47.644 16.7033 47.4153 16.8527 47.098H17.7067ZM20.7167 38.096L20.8287 39.314L17.3287 48.078H16.4187L20.0167 39.664C20.026 39.6453 20.0587 39.5753 20.1147 39.454C20.18 39.3233 20.2453 39.1693 20.3107 38.992C20.3853 38.8147 20.4507 38.642 20.5067 38.474C20.5627 38.306 20.5907 38.18 20.5907 38.096H20.7167ZM22.5227 44.466V44.942H18.2387V44.466H22.5227ZM23.0127 47.098H24.5947C24.744 47.4153 24.9307 47.644 25.1547 47.784C25.388 47.9147 25.612 47.98 25.8267 47.98C25.8267 47.98 25.8453 47.98 25.8827 47.98C25.92 47.98 25.9387 47.98 25.9387 47.98V48.12H22.3547V47.98H22.4807C22.6673 47.98 22.8307 47.9053 22.9707 47.756C23.1107 47.5973 23.1247 47.378 23.0127 47.098Z" fill="#071923"/>
<path d="M11.736 38.124L11.848 39.258L8.12399 46.874C8.12399 46.874 8.08199 46.958 7.99799 47.126C7.92333 47.2847 7.84399 47.476 7.75999 47.7C7.68533 47.924 7.63866 48.1387 7.61999 48.344H7.47999L7.17199 47.35L11.736 38.124ZM2.83199 47.098L2.83199 48.12H1.27799V47.98C1.28733 47.98 1.32466 47.98 1.38999 47.98C1.46466 47.98 1.50199 47.98 1.50199 47.98C1.75399 47.98 1.97799 47.9054 2.17399 47.756C2.36999 47.5974 2.48666 47.378 2.52399 47.098H2.83199ZM3.30799 47.322C3.30799 47.3314 3.30799 47.3407 3.30799 47.35C3.30799 47.3594 3.30799 47.3734 3.30799 47.392C3.30799 47.5414 3.35933 47.6814 3.46199 47.812C3.57399 47.9334 3.70466 47.994 3.85399 47.994H4.06399V48.12H3.20999V47.322H3.30799ZM3.61599 38.124H3.74199L4.09199 39.146L3.23799 48.12H2.39799L3.61599 38.124ZM3.74199 38.124L7.95599 46.44L7.47999 48.344L3.44799 40.28L3.74199 38.124ZM11.862 38.124L13.108 48.12H11.624L10.882 40.322L11.736 38.124H11.862ZM12.688 47.098H12.982C13.0287 47.378 13.15 47.5974 13.346 47.756C13.542 47.9054 13.7613 47.98 14.004 47.98C14.004 47.98 14.0413 47.98 14.116 47.98C14.1907 47.98 14.228 47.98 14.228 47.98V48.12H12.688V47.098ZM11.554 47.322H11.652V48.12H10.798V47.994H11.008C11.1667 47.994 11.2973 47.9334 11.4 47.812C11.5027 47.6814 11.554 47.5414 11.554 47.392C11.554 47.3734 11.554 47.3594 11.554 47.35C11.554 47.3407 11.554 47.3314 11.554 47.322Z" fill="#071923"/>
</svg>
