<?xml version="1.0" encoding="UTF-8"?>
<svg xmlns="http://www.w3.org/2000/svg" version="1.1" viewBox="0 0 91 412">
  <defs>
    <style>
      .cls-1 {
        fill: #fff;
      }
    </style>
  </defs>
  <!-- Generator: Adobe Illustrator 28.7.1, SVG Export Plug-In . SVG Version: 1.2.0 Build 142)  -->
  <g>
    <g id="_レイヤー_1" data-name="レイヤー_1">
      <path class="cls-1" d="M59.2,34.5c.5,0,.9-.3,1.1-.8h.7v-.9c0,0,.2,0,.2,0,.1-.1.2-.3.3-.4.2,0,.5,0,.8-.2.5-.2,1-.1,1.5-.1.5,0,1-.2,1.5-.2.7,0,1.4.1,2.2.3.6.2,1.3.5,1.9.8.6.3,1.1.7,1.4,1.3,0,.1.2.2.3.4.1.2.2.4.4.6,0,0,0,.2,0,.2.5.5.6,1.2.6,1.9v5.5c.6.3,1.2.2,1.7.2.8,0,1.5-.5,2.3-.9.6-.3,1.1-.7,1.5-1.2.2-.2.3-.5.4-.8h4.2c.5.5,1,1,1.4,1.5.2,0,.4-.1.6-.2.8,0,1.4.3,2,.7.6.4,1,.9,1.5,1.4.5.5.9.9,1.4,1.4,0,.4-.2.7-.3,1.1-.1.5-.3,1.1-.4,1.6,0,0-.1.1-.1.2-.3,0-.6.1-.9.2-.2,0-.4.2-.6.1-.3,0-.6.2-.9.2-.5.1-.9.3-1.4.3-.7,0-.7,0-1.2.3-.2,0-.3.1-.4.1h-.7c-.3.3-.6.5-1,.4-.3,0-.6,0-.9.2-.3.3-.7.2-1.1.3-.5.1-1,.4-1.6.3,0,0-.1,0-.2,0-.3.1-.6.2-1,.2-.1,0-.2,0-.4,0-.2,0-.4.1-.6,0-.3.2-.6.4-.9.6-.4.4-.7.6-1.2.5h-.2s0,0,0,0,0,0,0,0c0,0,0,0,.1.2-.6-.1-1.1.2-1.6.4-.5.2-1,.5-1.4.8-.3.2-.6.4-1,.7v.6h-.9c-.3.5-.6.9-.9,1.3,0,.3-.2.6-.3.9-.1.3-.3.6-.6.8.1.6-.3,1-.5,1.5-.2,0-.3-.1-.5-.2.1.5.4.9.6,1.4-.1,0-.2,0-.3.2,0,0,0,.1,0,.1.2.2.4.4.7.6,0,0,.2,0,.4,0,0,0,0,0,0,0,.6-.5,1.3-1,1.9-1.5,1.5-1.1,3.3-1.9,4.9-2.7.3-.2.6-.5,1.1-.2,0,0,.2-.2.3-.2,0,0,0-.2.1-.2.2,0,.2-.3.4-.4.2,0,.4-.1.7-.2,0-.4.5-.3.7-.7,0,.5.2.9.2,1.3.3,0,.7,0,1.1.2.2,0,.4.2.6.3.5.4,1.1.6,1.8.7.7.1,1.4.4,2.2.4.3.3.7.2,1.1.4.1,0,.3,0,.4,0,.1.1.2.3.3.4h.8c.2.2.5.4.6.6.1.3.4.2.5.5,0,0,.1.2.2.2.5,0,.5.3.5.6.3.3.8,0,.9.6.5,0,.6.4.9.7,0,.7.2,1.4.1,2.1,0,.3,0,.6-.1.8,0,.3,0,.5-.1.8,0,.6-.5.7-.9.8-.4.1-.8.2-1.2.4-.3.2-.6.1-.9.1-.1.1-.2.2-.4.4h-.3c-.3,0-.6,0-.6.4h-3.4c0,0-.2,0-.3,0-.4-.6-1.2-.4-1.7-.7-.5-.3-1-.3-1.5-.6-.3-.1-.5,0-.8-.2-.6-.2-1.2,0-1.8,0-.2,0-.5,0-.7.2-.4.2-.7.2-1.1.2-.8,0-1.6,0-2.4.2-.5,0-1,.2-1.5.4-.5.2-1,.4-1.6.6-.5.2-1,.4-1.5.6-.6.2-1.2.6-1.9.9-.5.3-1.1.5-1.6.8-.7.4-1.5.8-2.1,1.4-.3.2-.6.4-.8.6-.1.8-.4,1.6-.7,2.3.3.3.6.7.9,1.1,0,.6-.2,1.2-.3,1.8.4.1.3.6.5.8.2,0,1.2-.2,1.4-.3.4-.2.9-.4,1.3-.6.4-.2.8-.5,1.2-.8.3-.2.6-.4.8-.7.3-.2.7-.5,1-.7.3-.2.8-.3,1.2-.6.3.1.4-.3.7-.3s.5,0,.7-.2c.4-.1.8-.3,1.2-.2,0,0,0-.2.1-.3.2,0,.5.3.7,0,.5,0,1-.1,1.5-.3.1,0,.3,0,.4-.1.5-.2,1-.2,1.4-.1,0,0,.2.2.2.2.6,0,1.3.2,1.9.5.6.3,1.2.6,1.8.9.4.2.7.5,1.1.7,1,.9,1.9,2,2.4,3.3.4.8.7,1.7.9,2.6,0,.3.1.5.1.8,0,.2,0,.5.1.7,0,.3.1.5.1.8,0,.3,0,.6,0,.8.1.5,0,.9.1,1.4,0,.4-.1.8-.2,1.2,0,.4.1.8-.1,1.1,0,0,0,0,0,.1,0,.6,0,1.2-.2,1.7,0,.6-.2,1.1-.4,1.7-.1.3-.3.7-.2,1.1,0,.2,0,.3-.1.5-.2.5-.3.9-.5,1.4-.1.3-.2.5-.2.9-.2-.2-.2-.3-.3-.3,0,0,0-.2-.2-.3,0,.1,0,.2,0,.3,0,1.9,0,1.5-.6,3.5-.4,1.2-.8,2.4-1.4,3.5-.2.5-.6.9-.9,1.4.3.8-.2,1.6-.4,2.5-.2,0-.2-.1-.3-.2,0,0,0,0,0,.1,0,0,0,.2,0,.2,0,.3,0,.7,0,1,0,.3,0,.6-.1.9,0,0,0,.2-.1.2,0,0-.1.2-.1.2,0,.4-.3.7-.3,1.1,0,.3-.3.4-.5.7-.1.2-.3.5-.5.7-.1,0-.2,0-.3-.1,0,0,0,.1,0,.2.1.9-.2,1.6-.5,2.4-.2.5-.4.9-.6,1.3-.2.6-.6,1.2-.6,1.9,0,.1,0,.2-.2.4-.2,0-.4,0-.6,0-.8.5-1.4,1.3-2.2,1.8-.3.2-.6.5-.8.8-.2.3-.5.6-.7.8,0,.5.5.5.8.6.6,0,1.1,0,1.7,0,.2,0,.5,0,.8-.2.6-.2,1.1-.4,1.7-.6.4-.2.9-.3,1.3-.5.4-.2,1-.1,1.4-.2.3.3.5.5.6.7.2.2.3.4.4.7h.9c0,.3.1.5.2.8.8.1,1.5.6,2.2,1.1.2.1.3.3.5.4.2.1.3.2.5.3,0,0,0,0,0,0,.4.5.9.8,1.3,1.3.4.5.8,1,1.2,1.5.4,0,.9.1,1.4.2.2.2.3.5.3.8,0,.4.4,1,.7,1.3.5.5,1,1,1.4,1.5,0,0,0,.2,0,.3.2.6.2.7.1,1.2,0,0,0,.2,0,.3,0,.3.2.7.2,1,0,.4,0,.8.1,1.3,0,0,0,.1.1.2.2.1.2.3.3.5,0,.4.2.7.4,1.1.2.3.3.7.3,1.1,0,.2.2.4.1.6-.1.2,0,.4-.1.6,0,0,0,.2,0,.2-.5.7-1,1.4-1.5,2.2,0,.1-.2.2-.2.3,0,.6-.6.6-1,.7-.3,0-.6,0-1,0-.3,0-.6-.1-1-.1-.3,0-.6,0-1,0-1.4-.3-2.6-.8-3.7-1.7-.6-.5-1.2-1.1-1.8-1.7-.6-.7-1.2-1.4-1.7-2.2-.2-.3-.5-.6-.8-.8-.3-.2-.6-.4-.8-.7,0,0-.2-.2-.4-.3,0-.2,0-.4,0-.7,0-.7-.2-1.4-.5-2-.3-.7-.7-1.4-1-2.1-.5-1-1.1-1.8-2-2.4-.5-.4-1.1-.6-1.7-.8-.6-.2-1.3-.3-1.9-.4-.6-.1-1.1,0-1.7-.1-.6-.1-1.3,0-1.9-.1-.3,0-.6-.1-1-.1-.3,0-.6-.2-1-.2-.3,0-.6-.1-.9-.2-.1.2-.2.4-.4.7-.4-.2-.8-.4-1.2-.7-.2-.1-.5-.2-.7-.2-.3,0-.6-.2-.9-.1-.3,0-.6,0-.9,0-.8,0-1.5.2-2.3.4-.4.1-.9.2-1.3.4-.2.1-.5.1-.7.1-.2,0-.5,0-.7,0,0,0-.1.2-.2.3,0,0-.2.3-.2.2-.4,0-.7.3-1,.4-.3,0-.5.4-.9.4-.6,0-1,.5-1.5.5,0,0,0,0,0,0-.4.5-1,.4-1.5.6-.2,0-.4,0-.6,0-.2,1-.6,1.9-1.5,2.5-.7.5-1.4.8-2.2,1.2-.6.3-1.3.5-1.8,1.1-.2.2-.4.5-.5.7-.5.9-.9,1.8-1.3,2.7-.4.8-.6,1.6-1.1,2.3-.2.3-.3.7-.4,1.1,0-.1-.2-.2-.2-.3,0,0,0,0,0,0-.1.5-.2.6-.6,1.1-.2.2-.2.4-.4.5-.4.4-.8.7-1.3,1.1-.3,0-.6,0-.8.1-.3.2-.7,0-1,.2-.7.2-1.4,0-2,.1-.6,0-1-.2-1.4-.5-1-.7-1.9-1.6-2.5-2.7-.5-.8-.9-1.6-1.3-2.5-.2-.4-.3-.9-.2-1.3,0,0-.2-.2-.2-.3,0-.5-.3-.8-.4-1.3-.1-.4-.1-.9-.2-1.4,0,0,0-.2,0-.3-.2-.3-.1-.7,0-1,.1-.3.2-.6.2-1,0-.3,0-.6,0-.8,0-.5.2-1,.6-1.4.4-.4.8-.7,1-1.2,0,0,0,0,0,0,.2-.1.3-.2.5-.3.2,0,0-.4.4-.4,0-.3.3-.3.4-.4,0-.2.1-.3.4-.4.2,0,.3-.3.4-.5,0-.1.2-.3.2-.4.4-.6,1-.7,1.6-.9.4,0,.8-.2,1.3-.3,0-.3,0-.5,0-.8,0-.9-.3-1.7-1-2.3,0,0,0,0-.2-.2v-2.8c0-.5,0-.9-.2-1.4,0-.3-.1-.6-.2-.9,0,0,0-.2.1-.3,0,0-.1,0-.2,0,0,0,0,0,0-.1,0-.2,0-.4-.1-.7-.2-.3-.1-.7-.2-1.1,0-.2,0-.5-.1-.7,0-.2,0-.5-.1-.7h0c0-.7-.2-1.4-.1-2.1,0-.7,0-1.3,0-2,0-.3.1-.7.3-1,.3-.5.6-1,.7-1.5.1-.5.2-.9.4-1.4,0-.2,0-.5.1-.8,0-.3.2-.5.1-.8.3-.2,0-.6.3-.7,0-.6.2-1.1.3-1.6.2-.8.4-1.5.7-2.3.1-.3.2-.6.5-.8,0-.5.5-.7.7-1,0-.5.1-.8.5-1.2.2-.1.3-.3.4-.5.3-.4.6-.9,1-1.3.6-.7,1-1.4,1.4-2.3,0-.2.1-.5.3-.7,0,0,0-.2,0-.2-.2-.2,0-.5-.2-.8-.5,0-.9-.1-1.2-.3-.5.3-1,.7-1.6.9-.3,0-.6.2-.7.5h-.5c-.4.6-1,.8-1.6,1.1-.9.5-1.8,1-2.7,1.4-.5.3-1,.5-1.6.7-.1,0-.3,0-.4,0h-2.3c-.6.6-.9,1.4-1.2,2.2-.4,1-.6,2.1-.8,3.1,0,.4-.2.9-.3,1.3-.1.4-.2.8-.3,1.2-.2.6-.2,1.2-.4,1.8-.1.5-.3.9-.4,1.4,0,.5-.2,1-.4,1.4-.2.6-.5,1.2-.7,1.7,0,0-.2,0-.2.1v1.4s0,0,0,.2c0-.2,0-.4,0-.7.3.4,0,.7,0,1.1,0,0-.1.2-.1.4,0,.7-.3,1.2-.6,1.8,0,.1-.2.3-.2.5,0,.3-.1.5-.3.8-.5,1-1,2-1.5,3-.2.6-.4,1.1-.5,1.7,0,.2,0,.5-.1.7,0,.2,0,.4-.1.6-.1.7-.5,1.3-.9,1.8-.3.5-.6,1.1-.7,1.7-.1.4-.5.7-.4,1.1-.5.8-.7,1.8-1.2,2.7-.2.3-.4.5-.3.9-.1,0-.4.2-.4.3,0,.5-.4.7-.6,1.1-.2.4-.4.8-.6,1.1-.2.4-.5.7-.7,1.1-.5.9-1.1,1.6-1.5,2.5-.3.7-.7,1.3-1.2,2v.8c-1,.6-1.9,1.3-2.7,2.1-.8.8-1.7,1.6-2.3,2.7h-1c0-.5,0-1,.2-1.5,0-.6,0-1-.4-1.4,0,0,0,0,0,0h-.5c-.2-.4-.5-.7-.7-1.1-.2-.3-.1-.5.1-.7,0,0,.2.2.3.3v-.5c-.2-.2-.3-.3-.5-.5,0-.3-.2-.7.3-1.1v.6h.4c0-.1,0-.3,0-.3-.1-.2-.2-.2,0-.4,0,0,0-.2,0-.3,0-.7.2-1.3.4-2,.2-.8.5-1.6.7-2.4,0,0,0-.1,0-.1.4-.4.4-1,.8-1.5,0-.5.5-.8.5-1.3h0c.2-.3.4-.6.7-.9v-.5c.2-.2.3-.3.4-.4,0-.3,0-.6.4-.6.1-.7.5-1.3.9-1.9.4-.6.8-1.2,1.3-1.7,0-.2-.1-.3-.2-.5,0-.4,0-.7.2-1,.4-.9.7-1.9,1-2.8.2-.5.3-.9.4-1.4,0,0,.1,0,.3-.1,0-.3,0-.6.3-.9,0,0,0-.4.1-.6,0-.2.3-.3.3-.6,0-.2.2-.4.3-.6,0-.2,0-.5.1-.8,0,0,.2-.2.2-.3,0-.1,0-.3,0-.4,0-.2,0-.3,0-.5,0-.2.4-.3.4-.6,0-.2.3,0,.3-.3,0-.1,0-.3,0-.4.2-.6.5-1.3.8-1.9.3-.5.4-1.1.7-1.6.2-.5.4-1.1.7-1.6.3-.7.6-1.5.9-2.2.2-.5.4-1.1.6-1.7.3-.8.5-1.7.9-2.5.3-.6.4-1.2.6-1.8.2-.7.5-1.4.7-2.1.2-.7.5-1.4.8-2.1.3-.7.6-1.4.7-2.2,0,0,0-.1,0-.1.4-.6.6-1.3.8-2,.2-.6.4-1.2.6-1.7.2-.4.4-.9.5-1.3,0-.3.4-.5.4-.9s.2-.6.3-.9c.2-.7.6-1.4.8-2.1.3-1,.8-2,1.2-3,.3-.7.6-1.3.9-2,.1-.3.2-.6.2-1,0-.4,0-.7,0-1.1s0-.4.2-.6c.2-.1.1-.4,0-.6,0-.2-.2-.3-.4-.6v-1.3c0-.4.2-.7.3-1.1.2-.5.6-1,.5-1.6,0-.1,0-.3.1-.4.1-.3.2-.7.4-1,.2-.3.4-.6.6-.8.2-.3.5-.5.8-.7.6-.4,1-.9,1.3-1.6.4-.8.8-1.6,1.2-2.5.3-.6.5-1.2.7-1.8,0,0,0-.2,0-.2-.4-.4,0-.7.2-.9.3-.4.3-.8.6-1.1,0,0,0-.2,0-.3,0-.6.4-1.1.6-1.7.2,0,.2-.2.2-.4,0-.3.2-.7.4-1,.3-.4.5-.9.8-1.3.6-1,1.2-1.9,1.8-2.8.5-.7.9-1.4,1.4-2,0-.5,0-.8-.1-1.2-.4,0-.8,0-1.2,0-.5,0-.8.3-1.2.6-.3.3-.7.5-1.1.6-.2,0-.1.3-.3.4h-.5c-.9,0-1.8.2-2.7.5-.3.1-.6,0-.8.2-.6,0-1.1.2-1.7.2-.2,0-.5,0-.8,0-.2.1-.6,0-.8,0-.2,0-.3,0-.5,0-.6,0-1.1-.2-1.6-.3-.5-.2-.9-.3-1.4-.5-.5-.2-.8-.5-1.2-.7-.3-.2-.5-.6-.9-.7-.1-.4-.5-.5-.7-.8-.3-.4-.5-.8-.8-1.2-.3-.4-.6-.8-.9-1.2-.5-.7-.9-1.5-.8-2.3,0-.4.2-.7.2-1.1,0-.4,0-.8,0-1.2,0,0,0-.1,0-.2.3-.5.7-1,1.2-1.3,1.1-.5,1.1-.5,2.2-.5.4,0,.9.1,1.3.3.8.4,1.7.6,2.3,1.2,0,0,.1,0,.2.1.6,0,1,.5,1.6.6.2,0,.3,0,.5,0h1.4c.3,0,.6,0,1,.1.3.2.6,0,.9-.2.4-.2.7-.3,1.1-.4.4,0,.7-.3,1.1-.4.8-.3,1.6-.8,2.4-1.2.5-.2,1-.5,1.5-.8.7-.4,1.5-.8,2.2-1.3,1-.6,1.9-1.2,2.9-1.9.6-.4,1.2-.8,1.8-1.2.7-.5,1.4-1,2-1.5.4-.3.7-.7,1.2-.9.1,0,.2-.2.3-.4.4-.4.9-.5,1.4-.7.3-.1.7-.2,1-.3.3-.1.6-.2.8-.4.7-.6,1.4-1.3,2.1-1.9v-.6c0,0-.2-.1-.3-.2,0,0-.1-.2-.2-.3-.9-.5-1.9-.8-2.9-.7-.5,0-1,.3-1.4.6-.5.3-.9.8-1.4,1.1-.6.3-.9.9-1.5,1.1-.2,0,0,.3-.3.3-.1,0-.2.2-.4.4-.3,0-.6,0-.9,0-.2,0-.4,0-.5.2-.8.7-1.6,1.3-2.1,2.1,0,0,0,0,0,0-.7.7-1.4,1.5-2,2.2-.1.1-.3.2-.4.3-.1,0-.1.3-.2.4-.6.6-1.3,1.1-2.2,1.2-.2,0-.4.2-.6.3-.1,0-.3,0-.5,0,.2-.4.5-.6.8-.8.5-.3,1.1-.6,1.6-1,0,0,.2-.1.3-.2.8-.7,1.6-1.4,2.3-2.2.7-.7,1.4-1.5,2.1-2.2.9-1.1,1.9-2.3,2.7-3.5.1-.2.2-.4.2-.7,0-.8,0-1.7,0-2.6-.6,0-1.2-.4-1.7-.6-.1,0-.2-.3-.3-.4-.2-.4-.5-.8-.7-1.2h-.4c-.7,0-1.3-.2-1.9-.6-.3-.2-.6-.4-1-.7-.2-.2-.5-.3-.7-.3-.2,0-.3-.1-.5-.2-.5,0-.7-.3-.7-.8,0-.2-.2-.4-.3-.6-.5-.5-1-.9-1.5-1.3-.6-.5-1.3-.8-1.7-1.5-.1-.1-.2-.3-.3-.4-.1-.1-.1-.3,0-.4.2-.4.3-.8.4-1.2.1-.7.2-1.5.4-2.1.4-.8.7-1.7,1.6-2.3.6-.4,1.2-.8,1.8-1.1.6-.3,1.2-.7,1.7-1.2.6-.5,1.3-1,1.8-1.6.1-.1.2-.2.4-.2.5,0,.7-.3,1-.6.3-.3.7-.3.9-.6,0,0,.2,0,.2,0h1c.5,0,1,0,1.5-.2.3-.2.8-.2,1.2-.2.7,0,1.4,0,2.1,0s1,.1,1.4.3c.1,0,.2,0,.4,0,.3,0,.6,0,.8.2.6.2,1.3.5,2,.8.5.2.9.5,1.4.8,0,0,0,.1.1.2.2.2.3.6.7.5,0,0,.2,0,.3.1.2.3.6.5,1,.7.3.2.6.5.8.8.2.3.6.5.9.7,0,0,.1,0,.1,0,.3.8,1,1.3,1.4,2,.6,1.2,1.4,2.2,1.9,3.3.3.6.6,1.1.9,1.6.4.8.7,1.7,1,2.5,0,.3,0,.6.1.8,0,.2-.1.4-.2.6,0,0,0,.2-.1.4.3.2.5.4.8.6.5.4,1.1.4,1.6.7.4,0,.6.3.9.3,0,0,.2,0,.2,0,.6,0,.9,0,1.3.2.2,0,.5.4.8.1.4.1.8,0,1.1.3.6.5,1.3,1,2,1.4.3.2.6.4.9.6.1,1,.3,2.1,0,3.2-.2,0-.4.2-.7.3v.6c-.3,0-.6,0-1,0-.3,0-.6,0-.6.5-.4.8-.8,1.5-1.7,1.9,0,0,0,0-.2.2,0,0,0,.2,0,.3,0,.1,0,.3,0,.4-.8.2-1.6.2-2.4.6,0,0-.1,0-.2,0-.3,0-.6.1-.9.2-.7.3-1.4.6-2.2.6-.2.2.1.6-.3.8h-.6c-.3,0-.7,0-1,.2-.1.1-.4,0-.6.2-.7.2-1.3.6-1.9.9-.4.2-.8.4-1.2.5,0,.2,0,.3,0,.5-.2.3-.8.2-.9.8-.4,0-.7,0-1,.3-.2.1-.4.2-.6.2-.3,0-.6.2-1,.2-.4,0-.8,0-1.1.3-.7.4-1.4.8-2.1,1.2-.9.6-1.8,1.2-2.7,1.8-.4.2-.8.6-.9,1.1-.1.5-.5.7-.7,1.1,0,.2-.5.2-.7.4,0,0-.2,0-.2,0h-.6v.9c0,0,.2.2.4.3.8,0,1.6-.2,2.5-.1.2,0,.4,0,.6.1.2.1.2.4.5.5.2,0,.3.2.5.4.1,0,.3.1.5.2v.8c0,.5,0,1.1,0,1.6,0,.4,0,.7.3,1.1.2.3.4.7.5,1,.1.4.3.8.5,1.2.2.5.4,1,.6,1.5,0,.2,0,.4.1.6,0,0-.2,0-.3,0,.1.7.4,1.5.3,2.2.3.2.6.3.9.5.8-.7,1.6-1.4,2.4-2.1.4.3.3.7.3,1.1.5,0,1.1.1,1.6-.1.2,0,.5,0,.7,0,.4,0,.4,0,.5-.5.2,0,.5-.1.8-.2,0-.6.2-1.1.9-1.4.6-.7,1.2-1.5,1.4-2.4.2-.7.2-1.3.4-2h0c0-.7,0-1.3.1-2,0-.3.1-.7.1-1,0-.3,0-.7,0-1s0-.3.1-.5c0-.2,0-.3,0-.5-.4-.3-.8-.3-1.1-.7-.2-.3-.4-.6-.1-1,.1-.2.2-.4.1-.6v-1.3c0-.6.2-1.2.2-1.8,0-.2.1-.4.2-.7h0ZM42.2,86.6s-.2,0-.2,0c-.3.2-.6.4-.9.6-.3.2-.7.5-.8.8-.2.4-.4.7-.7,1-.4.5-.7,1-1,1.6-.3.5-.5,1.1-.8,1.6-.5,1-.8,2-1,3,0,.2-.1.3-.1.5,0,.2,0,.4,0,.5-.2.7-.1,1.1,0,1.8,0,.3,0,.6-.1.9-.1.2-.2.4-.1.6v.8c0,.3,0,.6-.2.9-.2.3-.2.7-.3,1.1,0,.4,0,.8-.2,1.1-.2.3,0,.5-.2.8-.2.3,0,.6,0,.9,0,.2,0,.5,0,.7,0,.6.2,1,.7,1.2.3.2.6.4.8.6,0,.6-.1,1.1-.2,1.7,0,0,0,0,0,0,.3.3.9.3.8,1,0,0,0,0,0,0,.3.2.2.5.4.8.2.3.3.6.3.9,0,.3.1.6.2.8.1.3.3.7.6.8.3.2.7.4,1,.3,0-.2,0-.3.2-.4.1-.2.3-.7.3-.9,0-.4,0-.8,0-1.2,0-.7.3-1.3.4-1.9,0,0,0-.1.1-.2.3-.1.5-.3.6-.6.1-.2.3-.4.5-.5.8-.5,1.6-1,2.4-1.4.4-.2.8-.5,1.2-.7v-.9c-.2,0-.4-.2-.4-.2-.4.2-.8,0-1.2.1-.4,0-1.2-.2-1.6-.5-.3-.2-.6-.3-.8-.3-.4-.3-.5-.6-.6-1,0,0,0-.1,0-.2-.3-.7-.6-1.5-.8-2.3-.1-.7-.2-1.4,0-2,0-.2.2-.3.4-.3.5,0,1.1,0,1.6-.1.4-.1.9,0,1.4-.1.3,0,.6,0,.9-.2.3,0,.6-.2.9-.2.8-.2,1.6-.6,2.3-1,.7-.3,1.3-.7,1.7-1.3.2-.3.4-.6.6-.9.2-.3,0-.7,0-1.1v-.2c0-.5-.3-.8-.8-1-.3,0-.7-.2-1-.3-.2,0-.3-.2-.5-.1-.4,0-.7-.1-.9-.4-.1-.2-.3-.4-.4-.4-.5,0-.8-.4-1.1-.7-.4-.4-.8-.9-1.3-1.2-.2-.1-.4-.4-.6-.6-.2-.2-.5-.2-.7-.3,0-1.5,0-1.3-.7-1.9h0ZM65.1,79c0,.2-.1.4-.4.4-.2,0-.3,0-.5.2-.2.1-.4.2-.6.2-.2,0-.6,0-.7.3-.2.5-.6.6-1,.8-.4.3-.8.7-1,1.2,0,.1,0,.3,0,.5,0,.2-.1.3-.1.5,0,.5-.3.9-.6,1.3,0,0,0,0,0,.1.1,0,.3.2.4.3-.2.4-.3.8-.3,1.3,0,.4,0,.7-.2,1-.2.3-.1.6-.1.8,0,.8,0,1.5,0,2.3,0,.5.1,1,.4,1.3.4,0,.8-.2,1.2-.2.4,0,.8-.1,1.1.1.7,0,1.3.3,2,.6.2.1.4.4.7.5.6.3,1.1.7,1.6,1.2.3.3.5.7.8,1.1h.6c.2-.1.3-.2.3-.3,0-.5,0-.8.2-1.1,0-.2,0-.3.1-.5.1-.6.2-1.1.8-1.4v-1.2c.1,0,.2,0,.2,0,0-.4,0-.8.2-1.1.1-.4.5-.8.4-1.3,0,0,0,0,0,0,.2-.4.3-.9.5-1.3.2-.6.4-1.2.5-1.8.1-.6.4-1.1.3-1.7,0,0,0-.2,0-.3,0-.6,0-1.2,0-1.8,0-.6-.5-1-.3-1.6-.1,0-.2,0-.3-.1-.3-.3-.7-.5-1-.7-.3-.2-.6-.2-1-.2s-.3,0-.4,0c-.5-.3-.8,0-1.2.2-.2,0-.5.2-.7.2-.4,0-.7.2-.9.4h-1.1,0ZM41.5,42c0,0-.2.2-.2.3-.2.5-.6.6-.9.9-.3.2-.5.4-.8.6-.6.6-1,1.3-1.4,2-.6,1.1-1.1,2.3-1.6,3.5-.4.9-.7,1.8-1.1,2.7-.4,1.1-.8,2.2-1.3,3.3-.2.6-.4,1.1-.6,1.7-.2.7-.5,1.5-.4,2.3-.2.3,0,.7-.2.9-.2.3,0,.6-.1.9,0,0,0,.2,0,.2-.3.2,0,.6-.2.9-.1.3-.1.6,0,.9,0,.5.2.8.9.9,1,0,2-.3,2.8-.9.6-.4,1.1-.7,1.6-1.2.4-.3.8-.6,1.1-.9.3-.3.7-.4,1-.7v-.8c0-.3,0-.5,0-.8.1,0,.2,0,.2,0,.1-.5-.2-1,.3-1.4h0c0-.5,0-.9.1-1.3,0,0,0,0,0-.1,0,0,.1,0,.2,0,0-.1,0-.3,0-.4,0-.5,0-1,.2-1.5.2-.7.5-1.4.7-2.1.2-.5.3-1.1.6-1.6,0-.9.4-1.7.3-2.6,0-.3-.1-.6-.1-1v-1c0-.1,0-.3,0-.4,0-.2-.2-.5-.2-.7,0-.2,0-.5,0-.7-.1-.2,0-.5,0-.8v-.8c-.3,0-.6,0-.8-.2h0ZM57.2,123.5c.6,0,1.3,0,1.9-.2.2,0,.3-.2.5-.2.6-.4.6-1.1,1.1-1.5,0,0,0-.2,0-.3-.4-.2-.2-.6-.3-1-.2,0-.3,0-.4,0-.2-.1-.5-.3-.6-.5-.2-.4-.6-.5-.7-1,0-.2-.3-.4-.3-.6,0-.3-.4-.4-.3-.7,0,0-.2-.2-.2-.2-.3,0-.3-.2-.4-.3-.1-.2-.3-.3-.4-.4-.2-.1-.4-.2-.6-.3,0,0-.2.2-.2.2h-.6c0,0,0-.2-.1-.3,0,.1,0,.2-.1.3-.4,0-.9,0-1.4.1-.4.1-.8.4-1.3.3-.4.3-.9.3-1.2.5-.4.2-.9.3-1.1.7h-2.2c-.3,0-.5,0-.7.2-.3.2-.6.4-.8.7-.3.3-.6.6-1,.8-.3.2-.3.2-.2.6,0,.1,0,.3,0,.4v1.3c.1.1.2.2.3.3.1.4.4.7.6,1.1.3.6.6,1.3.9,1.9,0,0,0,0,.1,0,1.1,0,2.3,0,3.4,0,1.1,0,2.3,0,3.4-.1.5,0,1.1-.2,1.6-.3.5-.1,1-.3,1.3-.8,0-.1.2-.3.3-.5h0ZM27.6,82h.3c.5,0,.9-.1,1.4-.1.5,0,1,0,1.4-.3,0,0,.1,0,.2,0,.8-.2,1.4-.5,2-.9.5-.3,1-.7,1.6-.9.3-.1.5-.3.7-.5.5-.5,1-.9,1.6-1.2.1,0,.3,0,.4-.1.3-.4.7-.7,1.3-.9,0-.3.4-.2.6-.4,0-.1,0-.2,0-.3,0-.2,0-.4.1-.6,0-.2,0-.5.1-.7,0-.9.2-1.9-.2-2.8,0-.2,0-.3,0-.5-.2-.2-.4-.5-.7-.8h-1.3c-.1,0-.2.2-.3.3-.3,0-.6.1-.7.4-.2.3-.5.2-.7.4-.2.3-.6.4-.9.6-.4.2-.8.3-1.2.5-.5.2-.9.4-1.4.3-.4.6-1,.6-1.5.8-.2,0-.5,0-.7.2-.1.1-.3.2-.5.2-.1.6-.2,1.1-.4,1.6-.2.5-.3,1-.6,1.5-.2.4-.2.9-.3,1.4,0,.2-.1.4-.1.6,0,.7,0,1.5,0,2.2h0ZM64.1,105.1c0-.1,0-.2,0-.3.2-.7.6-1.2.8-1.9,0,0,.2,0,.2,0,0-.2,0-.5.1-.7.2-.5.5-1,.7-1.5,0-.1,0-.3,0-.4-.4,0-.6,0-.9-.1-.2,0-.3-.2-.4-.3-.2,0-.4,0-.6,0,0,0,0,0,0,0-.6.6-1.2,1.2-1.9,1.6-.8.5-1.5,1-2.3,1.4-.2,0-.3.2-.3.4.2.5.3.9.9,1.2.5.2,1.1.3,1.4.8h2.2ZM52.4,67.1c.2-.2.3-.4.5-.5.8-.5,1.2-1.2,1.6-2,.2-.3.2-.7.4-1,.2-.4,0-.8.1-1.2v-.2l-.3-.3c-.3,0-.6-.1-.9-.2-.2.3-.5.5-.6.8-.2.5-.5.9-.7,1.3-.3.5-.7,1-1.1,1.5.3.5,0,1.2.2,1.7h.8ZM49.9,83.1h1.4c.5-.5.3-1.1.3-1.6h-1.5c-.2.4-.4.9-.6,1.3,0,0,.2.2.3.3Z"/>
      <path class="cls-1" d="M81.6,351.5c.2.1.3.2.4.3,0,.2,0,.4,0,.6,0,.3,0,.6-.4.8-.3.2-.5.6-.7.8,0,.6.4.8.7,1.1.4.4.6,1,.8,1.6.1.3-.1,1-.4,1.3,0,.1-.2.3-.2.4,0,.1-.2.2-.4.4.2.7.3,1.3.5,2-.4.4-.7.7-1,1,.1,1.8-.2,3.6-.1,5.3,0,.3.2.6.2.9,0,.3,0,.6.1.8,0,.2.2.5.4.8v.6c0,0,0,.2,0,.2-.3.2-.2.5-.2.8,0,.3-.1.7-.1,1,0,.3,0,.7,0,1-.2.7,0,1.3-.1,2,0,.7,0,1.4,0,2.1.1.6,0,1.3.1,1.9,0,.3,0,.6.3.8,0,0,0,.2.2.4,0,0-.2.2-.3.3-.1.2-.3.4-.3.7,0,.9-.1,1.9,0,2.8.1.9,0,1.8.1,2.7,0,0,.2,0,.2,0,0,.3.2.5.2.8,0,.7,0,1.4,0,2.1,0,.3,0,.6.1.8,0,0,0,.1,0,.2,0,.3-.2.6,0,.9.2.3,0,.6,0,.9.2,1,0,2,.2,3,.2,1.1,0,2.1.1,3.1-.3.3-.6.6-.9.8,0,.5.6.7.8,1.2,0,.2,0,.5,0,.9,0,.2,0,.4-.1.6,0,0-.1.2-.1.3,0,.7-.1,1.4-.2,2.2,0,0-.2.2-.4.3,0,.4,0,.7,0,1,0,.7,0,1.3-.1,2,0,.3-.1.6-.2.8-.3-.4-.2-.9-.4-1.3-.5,0-.9-.5-1.5-.6-.2,0-.3-.2-.4-.3-.5-.2-.5-.2-1,0v.7h-1.1c0-.3,0-.6-.1-.8-.2-.2-.2-.6-.3-.8,0-.3-.2-.5-.4-.7,0-.2,0-.5,0-.7,0-.5,0-1,.3-1.5.1-.2.3-.5.2-.8,0-.3-.1-.6-.2-.8,0,0-.1-.1,0-.2,0-.3-.1-.6-.2-.8,0-.4-.1-.8-.1-1.2,0-.4,0-.9,0-1.3v-1.5c0,0,0-.2,0-.2-.3-.3-.2-.7-.2-1,0-.8-.2-1.6-.2-2.4,0-.3,0-.7-.1-1,0-.3,0-.7-.2-1-.1-.4,0-.7-.2-1.1-.1-.3-.2-.7-.3-1,0-.1,0-.2,0-.4,0-.3-.2-.5-.4-.6.1-.3.3-.6.4-.9,0-.3,0-.6,0-.9,0-.3-.1-.6,0-.9,0-.2.1-.4,0-.6-.2-.2-.2-.5-.2-.8,0-.6-.2-1.2-.1-1.9-.2-.4,0-.8-.1-1.2,0-.3-.1-.6-.1-.8,0-.3,0-.6,0-.9-.2-.4,0-.8-.1-1.2-.3-2.2,0-4.3-.1-6.5,0-.3-.2-.6-.2-.9,0-.3.1-.6-.1-.9,0,0,0,0,0-.1,0-.7,0-1.4-.1-2.2,0,0,0-.2,0-.3-.4-.5-.3-1.2-.5-1.7-.1-.3,0-.7,0-1.1-.1,0-.3-.2-.4-.2v-6.3c.3-1.2,0-2.3.1-3.5,0-.3,0-.6-.1-.8,0-.3,0-.6-.1-.8,0-.1,0-.4,0-.5,0,0-.2-.2-.3-.3,0-.5,0-1,.2-1.5,0-.1,0-.3,0-.4v-5.1c0-.3,0-.6-.2-.8-.1-.3-.1-.6-.1-.8v-3.9c0-1,.2-2,.1-3,.3-.9,0-1.9.1-2.8,0-1,0-1.9,0-2.9,0-.3,0-.6-.2-.9,0-.3,0-.5,0-.8,0-.5,0-.9-.1-1.4-.1-.4,0-.9.2-1.3,0-.2.1-.5.2-.8.2-.8.2-1.6.5-2.3,0,0,0-.2,0-.3v-.9c.1-.1.3-.3.4-.4v-.7c-.1,0-.3-.2-.4-.3v-1.3c.2-.2.4-.4.5-.5,0-.3,0-.7.2-1,0-.3-.1-.7.1-1,0,0,0-.2,0-.3,0-2.4.2-4.8.1-7.3v-.9c-.1-.1-.3-.2-.4-.3v-7.4c0,0,.2,0,.3,0-.1-.4.4-.9-.3-1.1v-1.2c0-.4.2-.7.2-1.1,0-.4,0-.7.2-1,0-.1,0-.3,0-.5.1-.3-.3-.5,0-.8.1-.2,0-.6,0-.9v-1.9c0-.3,0-.6,0-.9,0-.3,0-.5.2-.7.2-.2.2-.5.2-.7v-2.3c0-.6,0-.6.4-1.5.1-.3.2-.6.2-.9,0-.4,0-.9,0-1.3s0-.5.1-.8c0-.2,0-.5.2-.7,0-.1.1-.3.1-.4,0-.2,0-.4,0-.6,0-.7.1-1.3.2-2,0,0,.2-.2.2-.2v-5.7c0-.7.2-1.4.2-2.1,0-.7,0-1.4,0-2.1,0-.8-.3-1.6-.1-2.3-.5-.5-1-.9-1.5-1.5h-1.8c0,0-.2,0-.2,0-.2.2-.4.2-.7.2v-1.7c0,0,0-.2.1-.3.2-.3.5-.7.4-1.1h.7c0-.2.1-.3.2-.5,0,0,.2,0,.3-.1.6-.5,1.3-.9,1.9-1.4.2-.1.3-.2.5-.2.3,0,.5-.3.8-.5h.4c.3-.4.7-.5,1.1-.6.1.2.2.4.4.6h.7c.8,0,1.5.3,2.3.1.6-.1,1.3-.1,1.9-.1h.3c.6.9,1.4,1.5,2.2,2.1.7.5,1.4,1,2.3,1.5h.6v.7c.5.4.9.8,1.3,1,.6.3.5.9,1,1.2,0,.6,0,1.1,0,1.6,0,.2-.4.4,0,.7v.8c0,.2,0,.5,0,.8,0,.2,0,.3.1.5,0,.2.2.5.1.6,0,.2-.1.4-.1.6,0,.5-.2,1-.2,1.5,0,.5,0,1,0,1.5,0,.2,0,.4-.1.5-.3.5-.3,1-.3,1.6s0,.4-.1.5c0,0-.2.2-.3.3,0,.2,0,.5-.1.8,0,0,0,.3,0,.4.1.3.2.7,0,1,0,0,0,0,0,.1,0,.6-.2,1-.4,1.5,0,0,0,.2,0,.2,0,.8-.2,1.5-.5,2.3,0,.2,0,.4-.3.5,0,.4-.1.8-.2,1.2,0,.2-.4.3-.3.7-.3.4,0,.8-.3,1.2,0,0,0,.2,0,.2-.5.5-.4,1.2-.4,1.8v1.5c-.1.1-.3.3-.4.4,0,.7,0,1.3-.2,1.9,0,.3-.2.6-.3.9,0,.3,0,.7,0,1-.2.6-.1,1.2-.4,1.8-.2.4,0,.8-.2,1.2,0,.4-.2.9-.4,1.3-.2.3-.2.5-.2.8v2.3c0,.3,0,.7-.2,1,0,0,0,.2,0,.3,0,.3,0,.6,0,.9,0,.4,0,.8-.1,1.3,0,.2-.2.4-.3.5-.1.1-.2.3,0,.4.2.3,0,.6,0,.9s0,.7.1,1c0,0,0,.2,0,.2-.2.4,0,.8-.1,1.2-.3,2.8,0,5.6-.1,8.4,0,.3,0,.7-.3,1-.1.2-.2.4-.2.7,0,.8,0,1.6,0,2.4s-.1,1-.3,1.5c0,.1,0,.2,0,.4v1c0,.9-.2,1.7-.4,2.5-.2.2-.1.4-.1.6v10c0,.3,0,.7-.2.9-.2.2-.2.5-.2.8,0,.7,0,1.3,0,2,0,.5.1,1-.3,1.3,0,.3-.2.5-.2.8,0,.3,0,.7,0,1s-.2.9-.2,1.4c0,.5-.3.9-.3,1.3,0,.5,0,.9,0,1.4,0,.3.2.7.1,1,0,.2-.2.5,0,.6.1.2,0,.4.1.5h0Z"/>
      <path class="cls-1" d="M45.4,187.7c.2-.5.6-.7,1.1-.5.2,0,.3,0,.5.1,0-.2.2-.3.3-.4.3,0,.7,0,1-.2.2-.1.5-.1.7-.2.6-.1,1.1-.4,1.6-.8.3-.3.6-.7,1-.9.2,0,.2-.3.4-.5.1-.1.3-.2.5-.3h.8c.2-.4.6-.6,1-.6.2,0,.3,0,.5-.2.2-.1.4-.2.6-.2.7,0,1.3-.4,1.9-.6,0,0,.2,0,.2-.1.5-.5,1-.9,1.5-1.4h.9c.1-.1.2-.2.3-.3.4,0,.8,0,1.2-.1,0,0,.2,0,.2-.1.1-.3.4-.3.6-.3h2.6c0,0,0-.1,0-.2,0,0,.2,0,.3,0h2.1c.3,0,.6,0,.8.3,0,0,.2,0,.3,0,0,.2.1.4.3.5.2,0,.4,0,.6,0,0,0,.1.2.2.2.3,0,.4.1.7.2.3.2.6.4,1,.3.2,0,.4,0,.6.2.3.1.5,0,.8.1,0,.1.1.3.2.5h.6c.2.2.5.3.5.6,0,0,0,0,0,0,.5,0,.7.6,1,.9.3.3.6.7.6,1.2,0,.2.1.4.3.5.6.6.6,1.3.5,2.1,0,.4-.2.9-.4,1.4-.1.2-.2.4-.3.6-.2.2-.5.4-.4.8,0,.2-.3.3-.5.6.2.5-.2.9-.5,1.3-.5.8-1.1,1.6-1.7,2.4-.2.2-.4.4-.6.6,0,0,0,.1,0,.3-.1,0-.2,0-.3,0-.1.3-.6.3-.4.8-.5.1-.8.3-.9.9-.1,0-.4,0-.5.3,0,.2,0,.5,0,.7-.2.2-.4.3-.5.6-.1.3-.5,0-.6.4,0,.2-.4.4-.6.6,0,0-.1,0-.2,0v.4c-.3.5-.8.7-1,1.2-.3,0-.4.4-.6.6-.2.2-.2.4,0,.6,0,0,0,.2,0,.3.3,0,.7,0,.9.4,0,.2.4.2.7.2.8-.1,1.4.3,1.9.8.2.2.5.4.6.6.2.2.3.5.6.6,0,0,.1.2.2.3.2.5.2.5.6.5h.2c0,.3,0,.6,0,.8,0,.2-.2.4-.4.7.1,0,.2.2.4.2,0,.3,0,.6.2.9.3.5,0,.9-.2,1.3-.5.6-.9,1.2-1.6,1.6,0,0,0,0,0,0-.2.2-.6,0-.7.4,0,.2-.5.3-.7.4-.3.1-.5.3-.8.4-.2.1-.5.2-.7.3-.4.2-.8.2-1.3.2,0,.1-.2.2-.3.4-.3,0-.6,0-.9.4,0,0-.2,0-.4,0h-2.2c0,.2-.2.3-.3.4-.7-.1-1.4.2-2.1.1-.2,0-.5,0-.7.2-.5.2-1,.5-1.6.7-.5.2-1,.5-1.5.6-.2,0-.3.1-.5.1h-1.4c0,0-.2.2-.3.3h-1.3c0,0-.2-.2-.2-.2h-2c-.2-.2-.3-.4-.5-.5-.3,0-.3-.4-.5-.5s-.4-.3-.6-.5v-1.3c-.3-.4-.6-.7-.8-1h0v-3.5c.5-.3.6-.8.5-1.4.1,0,.2,0,.3-.1,0-.3,0-.7-.1-1,.2-.2.3-.5.5-.7.2-.2.3-.5.4-.7.2-.3.3-.6.5-.7.2-.1.2-.5.6-.5,0-.3.4-.5.6-.8v-.7c.5,0,1-.1,1.4-.4,0,0,.2-.1.2-.1.5,0,.7-.3,1.1-.4.2,0,.3-.3.4-.5.3-.6.5-1.2.9-1.6,0,0,0-.2.2-.3.2-.2.3-.5.6-.6.1,0,.2-.3.3-.4.2-.4.5-.8,1-.9,0-.2.2-.4.3-.7.3,0,.3-.4.6-.5.2,0,.3-.3.6-.5v-.7c0,0,.2,0,.3,0,0-.1.2-.4.3-.4.3,0,.2-.3.2-.4h.5c.1-.3.3-.4.6-.5,0-.3.1-.7.6-.8v-.6c.3-.1.3-.5.7-.6,0,0,.1,0,.2,0,.2-.3.5-.6.7-.9.4-.4.6-.8.9-1.2.2-.3.5-.7.6-1.2.1-.5,0-1-.5-1.3-.3-.2-.7-.3-1.1-.3-.2,0-.5,0-.7.1-.2,0-.5,0-.7.1-.3.2-.8,0-1.1.3,0,0-.2,0-.2,0-.4.5-.9.4-1.4.4-.3,0-.4,0-.5.4-.2,0-.4,0-.6.2-.2.1-.2.4-.5.4-.5.5-1.1.7-1.6,1.1-.4.2-.7.5-1.1.7v.7h-1.1v.8c-.1,0-.2,0-.3.2-.2.2-.4.4-.7.6-.3.2-.5.6-.7.9-.3.5-.6,1-.7,1.6,0,0,0,.2-.1.3-.2.4-.5.7-.4,1.2-.2.1,0,.5-.3.6,0,0,0,.1,0,.2,0,.6-.3,1.1-.7,1.5,0,0,0,.2,0,.2,0,.1-.1.3-.2.3-.2,0-.3.2-.4.3-.4.4-.8.7-1.2,1-.4.3-.6.7-.8,1.3-.1.5-.3,1-.3,1.5,0,.7-.5,1.4-.3,2.2h.7c0,.2,0,.2-.2.3,0,.1-.2.2-.3.3,0,0-.2,0-.3.2-.1.2-.4.2-.4.6,0,.1,0,.3-.2.4-.2.3-.3.5-.4.9,0,.4-.2.9-.3,1.3,0,0,0,0,0,.1,0,.4,0,.9-.1,1.3,0,.3,0,.5-.1.8-.1.2,0,.5-.1.8-.1.3,0,.7,0,1.1,0,.3,0,.6-.2.8,0,0,0,.2,0,.3,0,.7,0,1.4,0,2.1,0,.5,0,.9-.6,1.1v1.4c0,0-.2.1-.3.2,0,.6,0,1.1-.5,1.4v.6c0,.1,0,.3-.1.4-.1,0-.2.2-.2.4,0,.2,0,.4-.1.6,0,.3-.4.5-.3.9,0,.3-.2.7-.3,1-.1.3-.2.6-.3.9-.1.3-.2.7-.3,1,0,.3-.2.6-.3.9-.4.8-.6,1.6-.8,2.4,0,.2-.3.4-.5.7v.6c0,.2,0,.3-.1.4-.2.3-.2.7-.4,1.1-.1.3-.4.6-.3,1-.3.2-.3.6-.4.9,0,.3-.4,0-.4.4v.6c-.1.1-.2.2-.3.3,0,.5,0,1-.4,1.5-.3.5-.4,1-.6,1.6,0,0,0,0,0,.1-.4.5-.5,1.2-.8,1.8-.3.4-.4.9-.4,1.4,0,.3,0,.7-.2,1-.1.2,0,.4,0,.7-.4,0-.5.4-.5.6,0,.5-.2.8-.4,1.2-.2.5-.5,1-.7,1.6-.1.3-.2.5-.5.5-.1,0-.2.2-.3.3v.8c-.2.2-.4.3-.6.5.2.4-.2.7-.3.9-.2.3-.3.6-.5.8-.3.2-.4.5-.7.6-.3.2-.6.3-.9.4v1.5h-1c-.6.9-1.4,1.5-2,2.2h-.4c-.5.7-.9,1.4-1.8,1.7v.7c-.9.5-1.7,1.1-2.4,1.9-.1.5-.6.9-.6,1.5h-.6c-.2,0-.4,0-.5.2,0,0-.2,0-.2,0-1.1.4-2.2.8-3.2,1.4-.3.2-.7.4-1.1.4-.2,0-.5.2-.6.4-.5.5-1.1.8-1.6,1.3,0,0-.2-.1-.3-.2,0-.1,0-.3,0-.5.2-.2.2-.5.2-.8s0-.2.2-.3c.2-.3.4-.7.4-1.1,0-.3.3-.4.4-.5.3-.2.4-.4.4-.7v-.5c.2,0,.3-.2.4-.4.1-.2.3-.3.5-.5,0-.2,0-.5.2-.7,0,0,0-.3,0-.5,0,0,.2-.2.3-.3.2-.2.6-.4.5-.8,0,0,.2-.2.2-.2.2-.2.5-.4.6-.8,0,0,.2-.1.3-.2.4,0,.5-.4.5-.7,0,0,.3-.1.3-.2,0-.3.4-.5.6-.7.2-.2.3-.6.7-.6,0-.2.2-.4.4-.4,0,0,0-.2,0-.3h.4c0-.1,0-.2,0-.3,0,0,.2-.1.2-.2,0-.1,0-.2.1-.4.2-.2.3-.3.4-.5.6-.7,1.2-1.5,1.6-2.4.2-.6.5-1.1.7-1.7,0,0,0-.2.1-.3.2-.1.2-.3.2-.5,0-.4.1-.7.4-.9v-.7c.2-.1.5-.2.4-.5,0-.3,0-.7,0-1,.4-.5.7-1,1.2-1.5.3-.4.5-1,.6-1.5.3-1,.6-2.1,1-3.1.3-.8.5-1.7.9-2.5.2-.4.4-.9.4-1.4,0-.2,0-.3.1-.5,0-.2,0-.3,0-.5,0-.2.2-.3.3-.4.2-.3.2-.6.1-1,0-.3,0-.5.4-.5,0-.3,0-.6.2-.9.1-.1.1-.4.2-.7,0-.3.2-.4.4-.5v-.6c.2-.2.4-.5.4-.8,0-.4.3-.7.5-1.1,0,0,.1,0,.2,0,0-.4.1-.8.2-1.2,0,0,0-.1,0-.2.1-.2.3-.4.3-.6,0-.2,0-.4.2-.6,0-.1,0-.3.1-.5.3-1,.7-2,1-3,.3-.3.3-.7.4-1,.1-.3.2-.6.4-1,.1-.3.3-.7.4-1,.3-.9.7-1.9.9-2.9,0-.5.2-1,.3-1.5,0-.5,0-1,.3-1.4,0-.1,0-.3,0-.5,0-.5,0-1,.2-1.5,0-.1,0-.3,0-.4v-1.5c.2-.2.4-.3.6-.4,0-.5,0-1,0-1.5,0-.4.2-.8.2-1.2.2-.2,0-.5.2-.6.1-.2,0-.4.1-.6,0-.3,0-.6.3-.9.2-.3.1-.7.2-1,0-.4,0-.7-.2-1-.4-.6-.6-1.2-1-1.9-.3-.6-.6-1.1-.9-1.7,0-.2-.1-.3-.1-.5s0-.2,0-.2c-.3-.2-.2-.6-.2-.9,0-.9,0-1.9,0-2.8,0-.4.1-.8.3-1.2,0-.2.2-.5.4-.7.3-.5.7-.9,1.3-1.1,0-.3,0-.6.4-.7,0,0,.2-.2.3-.4h4.5c.3,0,.6,0,.9-.2.4-.1.8-.2,1.1-.2.5,0,1,0,1.4,0v-.2Z"/>
      <path class="cls-1" d="M24.2,342.3c0,1.2.4,2.2.7,3.3-.5.5-.8,1-.9,1.6,0,.3-.3.6-.5.9,0,.2,0,.5,0,.8,0,.2-.1.4-.3.6-.6.5-1.3.8-1.9,1.2-.4.2-.7.5-1,.8,0,0,0,.2,0,.2,0,.2-.2.4-.3.6h-.6c-.5,0-.9.1-1.4.1-.2,0-.4,0-.6-.1,0,.1-.2.3-.4.5h-.6c-.1-.2-.2-.4-.3-.7-.6.2-1.1.2-2.8-.2v-.8c-1.2-.6-1.9-1.6-2.6-2.8h-.6c-.2-.4,0-.8,0-1.2-.3-.3-.6-.5-.8-.8-.3-.3-.6-.7-.7-1.1,0,0,0,0,0-.1-.7-.7-.7-1.7-1.2-2.5,0-.8-.5-1.5-.4-2.3,0,0,0-.2,0-.2,0-.2,0-.4,0-.6.1-.2.2-.5.2-.7,0-.3,0-.6,0-.9,0-.3,0-.7.4-.9.6-.3,1-.8,1.3-1.6.2-.7.6-1.4.8-2.1,0-.1,0-.3.1-.4,0,0,0,0,.2.1,0,0,0,0,0-.1,0-.6,0-1.2.2-1.8.1-.9.3-1.8.5-2.6.1-.4.3-.7.3-1.1,0-.3.3-.6.3-.9.2-.2,0-.5.2-.7.1-.1.3-.3.4-.4v-.9c0-.3.2-.5.2-.8,0,0,0-.2,0-.2.2-.2.3-.6.3-.8,0-.2,0-.5.2-.7.2-.5.3-.9.4-1.4.1-.5.3-.9.4-1.3.3-1.1.7-2.2,1-3.3.2-.6.4-1.3.3-1.9,0-1.1,0-2.2,0-3.3,0-.5,0-.9.3-1.3.4-.6.2-1.2.2-1.8,0-.6-.2-1.1-.4-1.6-.1-.5-.2-1.1-.4-1.6,0,0,0,0,0-.1.1-.5-.2-1-.4-1.4-.2-.4-.2-.9-.6-1.1,0-.3-.1-.6-.2-.8,0-.4.2-.7.3-1,0,0,0,0,.1-.2.4-.6.4-1,0-1.6,0-.1-.2-.2-.2-.4,0-.2-.2-.4-.2-.7,0-.2,0-.4.1-.6,0-.2.2-.3.3-.5.1-.4.2-.7.3-1.1h.7c.2.2.4.4.7.4.7,0,1.4.2,2,.4.6.2,1.1.5,1.8.6.2.4.7.3,1,.5.3.2.7.4,1.1.4.1,0,.3.1.4.2.2.2.4.3.7.3,0,0,.1,0,.1,0,.3.4.8.2,1.1.6.5,0,.8.3,1.2.6.4.2.8.3,1.1.6.4.2.8.4.9,1h.3c0,.2.2.3.3.4h.7c.2.2.6.3.5.8.2.2.4.4.5.8,0,.3.4.4.4.8,0,.2.2.5.2.7,0,.3.2.5.2.8,0,.2,0,.4,0,.6,0,.2,0,.4.2.6,0,0,0,.2,0,.3,0,.4,0,.7,0,1.1,0,.4,0,.7.2,1,.2.4.4,1.5.4,1.9,0,.3,0,.7.1,1,0,0,0,.2,0,.3-.2.4,0,.8-.1,1.2,0,.4,0,.9-.1,1.3,0,0,0,.1-.1.2-.2.4-.3.7-.3,1.1,0,.3-.1.4-.4.5,0,.3,0,.6,0,.9,0,.3,0,.7-.2.9-.3.6-.4,1.3-.7,2,0,.2-.2.4-.3.6-.1.3-.2.7-.3,1,0,.7-.1,1.5-.2,2.2,0,0-.1.1-.2.2v1.6c0,1-.2,1.9-.5,2.8-.2.5-.3,1-.8,1.4,0,.3-.1.6.1.8,0,0,0,.1,0,.2,0,.3,0,.5-.1.8,0,.3,0,.5,0,.8-.2.2,0,.6-.2.9,0,.2,0,.4-.2.6,0,0,0,.1,0,.2,0,1.1-.3,2.1-.7,3.1-.2.6-.5,1.3-.8,1.9,0,.2-.2.3-.4.4v1.1c.1-.1.2-.2.4-.3,0,.7,0,1.3,0,1.9,0,.4-.3.7-.6.8h0Z"/>
      <path class="cls-1" d="M57.3,320.8c.2.1.3.3.6.4v2.4c0,.6.1,1.1.2,1.7.1.4.1.9,0,1.4,0,0,.2.2.2.3,0,.1,0,.3,0,.4,0,.1,0,.2,0,.3,0,.2-.2.3-.3.5v1.9c-.4.3-.6.8-.5,1.4-.2.1-.3.2-.4.3v.6c-.1.1-.3.3-.4.4v.5c0,.3,0,.5-.4.6,0,0-.2.2-.2.3,0,.4-.3.6-.5.8-.3.3-.5.7-.8.9-.6.5-1.2.9-1.8,1.4-.3.2-.6.2-.9.2-.2.3-.4.5-.7.6-.5.2-1,.4-1.6.4-.4,0-.8,0-1.2.3-.1.1-.4,0-.7.1,0,0-.2.2-.3.4h-.5v-.6c0,0-.1,0-.2,0-.3-.2-.5-.3-.8-.5-.2-.1-.5-.2-.7-.3,0,0-.2,0-.2,0-.3-.2-.5-.4-.8-.6,0,0,0-.2,0-.4-.2,0-.5-.1-.9-.2-.2-.3-.6-.6-.9-1v-1.3c-.2-.2-.5-.4-.4-.8-.3-.4-.5-.8-1-1-.2,0-.5-.1-.8-.2,0-.5,0-1.1,0-1.7,0-.4.2-.9.3-1.3,0-.2.2-.5.2-.7,0-.2,0-.4.2-.5,0,0,0-.2,0-.2,0-.4.2-.8.4-1.2.1-.3.2-.5.2-.8v-3.6c.2-.1.3-.2.6-.4v-2.3c0-.5,0-1,.2-1.6,0-.3,0-.6,0-.9,0-.2,0-.6,0-.8,0-.2,0-.3,0-.5v-2.8c.8-.3.5-1.1.6-1.6,0,0,.2-.2.3-.3v-.9c0-.2,0-.4.1-.6,0-.2,0-.4,0-.6,0,0,0-.3,0-.4v-2.5c-.4-.3-.9-.6-1.4-1-.4-.1-.9-.2-1.4-.2-.3,0-.6-.2-.9,0-.3.1-.7,0-1,0-.4,0-.7.2-1.1.3-.4,0-.7.3-1,.5-.2.1-.5.2-.8.2-.3,0-.5,0-.9,0,0,.2-.1.3-.2.5,0,0,0,0,0,0-.2,0-.3,0-.4.2-.4.5-1,.9-1.5,1.1-.2-.2.2-.3.2-.5.2,0,.2-.2.2-.2.6-.5.9-1.3,1.6-1.7,0,0,.1-.2.2-.3h.7c.3-.2.2-.6.6-.6v-.5c.2-.5.8-.5,1.1-.8.2,0,.3,0,.4-.2,0-.1.4-.2.4-.3.1-.3.6-.3.6-.8.3,0,.4-.4.8-.4.2,0,.5,0,.8-.2,0,0,.1-.2.2-.4.4,0,.8,0,1.1-.3.4,0,.8-.2,1.2-.2s.6,0,.8,0c.2,0,.3-.2.5-.2,0-.4.6-.4.6-.8h.6c.2.2.3.4.5.5h1.7c.1.2.2.3.4.4h1.7c.3,0,.6.1.9.3.1,0,.2.1.4.1.3,0,.6,0,.7.4.1.2.3.4.5.5.1.1.2.3.3.4h.7c0,.2,0,.4,0,.6.5.6,1.1,1.2,1.9,1.3.2-.3.3-.6.8-.5,0,.6,0,1.2.4,1.8.3.5.6,1.1,1.1,1.6,0,0-.2.2-.2.3,0,0-.1.5,0,.7,0,.1.1.3.1.4,0,.2,0,.4,0,.6,0,.5,0,1,.2,1.5,0,.3.2.7.6.8-.2.2-.3.4-.4.6-.2.3-.3.7-.3,1,0,1.1,0,2.2,0,3.2,0,.8,0,1.5,0,2.3,0,.8,0,1.6,0,2.4h0Z"/>
      <path class="cls-1" d="M55.3,158c.5-.2.8.1,1.2.3.6.2,1.1.2,1.6-.2.4,0,.6.4.9.7.3.3.5.6.9.6.3.4.8.2,1.2.3v.8c1.1-.1,2,.4,2.9.9,0,.4.1.8.2,1.2.3.1.7.3,1,.4,0,.5,0,1,.2,1.4.7,0,1,.7,1.4,1.2v.5s0,0,0,.1c.3.1.4.5.5.8,0,.2,0,.3,0,.6,0,0,.2.1.3.2,0,.4,0,.8,0,1.2,0,.2,0,.4.2.5.3.3.3.8.3,1.2-1.5,1.5-2.9,3-4.2,4.8h-.6c-.2,0-.5,0-.8,0-.2,0-.4.2-.6.2-.2,0-.5,0-.7,0-.4,0-.7,0-1.1.1-.3.2-.7,0-1.1.1-.3.1-.7,0-1,.2-.6-.1-1.2.2-1.8.1-.1,0-.2,0-.4,0-.2,0-.5.1-.6,0-.3-.2-.6,0-.8-.1,0,0-.2.2-.3.3-.8,0-1.5.2-2.3.2-.3,0-.5,0-.6.3-.4.5-.9.8-1.2,1.3-.1.2-.3.4-.6.5-.2,0-.2.2-.2.5-.2.2-.5.3-.7.4,0,0,0,.1-.1.2,0,0,0,.2,0,.2-.5.2-.8.7-1.4.9,0,0-.1,0-.2,0v.8h-.4v-.6c.2,0,.3-.2.2-.4.6-.5,1-1.3,1.6-1.8v-.4c.3-.3.5-.6.8-.9,0-.2-.2-.6.3-.7.1-.5.2-1,.3-1.5.3-.8.3-1.7.2-2.6,0-.5-.2-.9-.7-1.2-.6,0-1.1-.5-1.7-.3-.2-.2-.3-.4-.5-.6h-.6c-.3-.2-.6-.5-1-.8h-.5c0,0,0-.2,0-.3h-1v-.8c-.5,0-.6-.5-.9-.7-.2-.3-.5-.7-.5-.9,0,0-.2,0-.3,0-.2-.3-.3-.6-.7-.6s-.5-.3-.7-.3c0,0,0-.2-.1-.3-.1-.5-.2-.9-.5-1.3-.1-.2-.2-.4-.3-.6,0-.2,0-.5,0-.8,0,0,.2,0,.3-.1v-1.6c.4,0,2.2-1,2.5-1.2.6-.5,1.3-1,1.7-1.7,0,.1.2.2.2.4h.7c.3-.2.5-.6.9-.9.4-.4.9-.5,1.4-.5.7,0,1.3,0,2,0s.3,0,.4,0c.4-.3.9-.2,1.3-.2.3,0,.7,0,1-.1.2,0,.5-.1.7,0,0,0,.2,0,.2,0,.4,0,.7,0,1,.2,0,0,.1,0,.2,0,.4,0,.6.2.8.6h0Z"/>
      <path class="cls-1" d="M78.9,410.2v-.8c.2-.1.6,0,.8-.2.2-.1.5.1.8-.2.2.5-.1.9-.2,1.3,0,.4-.2.8-.3,1.4-.1-.8-.6-1.2-1.2-1.5Z"/>
    </g>
  </g>
</svg>