<?xml version="1.0" encoding="UTF-8" standalone="no"?>
<!-- Created with Inkscape (http://www.inkscape.org/) -->

<svg
   version="1.1"
   id="svg1"
   width="475.04132"
   height="129.97546"
   viewBox="0 0 475.04132 129.97546"
   sodipodi:docname="ソフトテック様ロゴ_1C.ai"
   xmlns:inkscape="http://www.inkscape.org/namespaces/inkscape"
   xmlns:sodipodi="http://sodipodi.sourceforge.net/DTD/sodipodi-0.dtd"
   xmlns="http://www.w3.org/2000/svg"
   xmlns:svg="http://www.w3.org/2000/svg">
  <defs
     id="defs1">
    <clipPath
       clipPathUnits="userSpaceOnUse"
       id="clipPath2">
      <path
         d="M 0,97.482 H 356.281 V 0 H 0 Z"
         transform="translate(-124.0104,-26.9481)"
         id="path2" />
    </clipPath>
    <clipPath
       clipPathUnits="userSpaceOnUse"
       id="clipPath4">
      <path
         d="M 0,97.482 H 356.281 V 0 H 0 Z"
         transform="translate(-160.2406,-56.041002)"
         id="path4" />
    </clipPath>
    <clipPath
       clipPathUnits="userSpaceOnUse"
       id="clipPath6">
      <path
         d="M 0,97.482 H 356.281 V 0 H 0 Z"
         transform="translate(-191.60271,-54.118501)"
         id="path6" />
    </clipPath>
    <clipPath
       clipPathUnits="userSpaceOnUse"
       id="clipPath8">
      <path
         d="M 0,97.482 H 356.281 V 0 H 0 Z"
         transform="translate(-216.4588,-54.118501)"
         id="path8" />
    </clipPath>
    <clipPath
       clipPathUnits="userSpaceOnUse"
       id="clipPath10">
      <path
         d="M 0,97.482 H 356.281 V 0 H 0 Z"
         transform="translate(-246.9223,-54.118501)"
         id="path10" />
    </clipPath>
    <clipPath
       clipPathUnits="userSpaceOnUse"
       id="clipPath12">
      <path
         d="M 0,97.482 H 356.281 V 0 H 0 Z"
         transform="translate(-271.32501,-49.246201)"
         id="path12" />
    </clipPath>
    <clipPath
       clipPathUnits="userSpaceOnUse"
       id="clipPath14">
      <path
         d="M 0,97.482 H 356.281 V 0 H 0 Z"
         transform="translate(-315.18211,-57.001902)"
         id="path14" />
    </clipPath>
    <clipPath
       clipPathUnits="userSpaceOnUse"
       id="clipPath16">
      <path
         d="M 0,97.482 H 356.281 V 0 H 0 Z"
         transform="translate(-324.39271,-69.777202)"
         id="path16" />
    </clipPath>
    <clipPath
       clipPathUnits="userSpaceOnUse"
       id="clipPath18">
      <path
         d="M 0,97.482 H 356.281 V 0 H 0 Z"
         transform="translate(-118.0477,-10.7285)"
         id="path18" />
    </clipPath>
    <clipPath
       clipPathUnits="userSpaceOnUse"
       id="clipPath20">
      <path
         d="M 0,97.482 H 356.281 V 0 H 0 Z"
         transform="translate(-129.1188,-8.6284027)"
         id="path20" />
    </clipPath>
    <clipPath
       clipPathUnits="userSpaceOnUse"
       id="clipPath22">
      <path
         d="M 0,97.482 H 356.281 V 0 H 0 Z"
         transform="translate(-132.84741,-9.2645002)"
         id="path22" />
    </clipPath>
    <clipPath
       clipPathUnits="userSpaceOnUse"
       id="clipPath24">
      <path
         d="M 0,97.482 H 356.281 V 0 H 0 Z"
         transform="translate(-140.5722,-10.866598)"
         id="path24" />
    </clipPath>
    <clipPath
       clipPathUnits="userSpaceOnUse"
       id="clipPath26">
      <path
         d="M 0,97.482 H 356.281 V 0 H 0 Z"
         transform="translate(-150.7356,-8.6863027)"
         id="path26" />
    </clipPath>
    <clipPath
       clipPathUnits="userSpaceOnUse"
       id="clipPath28">
      <path
         d="M 0,97.482 H 356.281 V 0 H 0 Z"
         transform="translate(-157.437,-9.7543027)"
         id="path28" />
    </clipPath>
    <clipPath
       clipPathUnits="userSpaceOnUse"
       id="clipPath30">
      <path
         d="M 0,97.482 H 356.281 V 0 H 0 Z"
         transform="translate(-166.3456,-9.6209002)"
         id="path30" />
    </clipPath>
    <clipPath
       clipPathUnits="userSpaceOnUse"
       id="clipPath32">
      <path
         d="M 0,97.482 H 356.281 V 0 H 0 Z"
         transform="translate(-173.4297,-6.1988977)"
         id="path32" />
    </clipPath>
    <clipPath
       clipPathUnits="userSpaceOnUse"
       id="clipPath34">
      <path
         d="M 0,97.482 H 356.281 V 0 H 0 Z"
         transform="translate(-176.5801,-10.866598)"
         id="path34" />
    </clipPath>
    <clipPath
       clipPathUnits="userSpaceOnUse"
       id="clipPath36">
      <path
         d="M 0,97.482 H 356.281 V 0 H 0 Z"
         transform="translate(-186.49431,-6.1988977)"
         id="path36" />
    </clipPath>
    <clipPath
       clipPathUnits="userSpaceOnUse"
       id="clipPath38">
      <path
         d="M 0,97.482 H 356.281 V 0 H 0 Z"
         transform="translate(-190.5793,-9.2645002)"
         id="path38" />
    </clipPath>
    <clipPath
       clipPathUnits="userSpaceOnUse"
       id="clipPath40">
      <path
         d="M 0,97.482 H 356.281 V 0 H 0 Z"
         transform="translate(-198.61521,-9.7543027)"
         id="path40" />
    </clipPath>
    <clipPath
       clipPathUnits="userSpaceOnUse"
       id="clipPath42">
      <path
         d="M 0,97.482 H 356.281 V 0 H 0 Z"
         transform="translate(-207.24811,-5.4380001)"
         id="path42" />
    </clipPath>
    <clipPath
       clipPathUnits="userSpaceOnUse"
       id="clipPath44">
      <path
         d="M 0,97.482 H 356.281 V 0 H 0 Z"
         transform="translate(-220.3747,-8.6863027)"
         id="path44" />
    </clipPath>
    <clipPath
       clipPathUnits="userSpaceOnUse"
       id="clipPath46">
      <path
         d="M 0,97.482 H 356.281 V 0 H 0 Z"
         transform="translate(-224.99371,-13.4342)"
         id="path46" />
    </clipPath>
    <clipPath
       clipPathUnits="userSpaceOnUse"
       id="clipPath48">
      <path
         d="M 0,97.482 H 356.281 V 0 H 0 Z"
         transform="translate(-233.48401,-6.5191027)"
         id="path48" />
    </clipPath>
    <clipPath
       clipPathUnits="userSpaceOnUse"
       id="clipPath50">
      <path
         d="M 0,97.482 H 356.281 V 0 H 0 Z"
         transform="translate(-239.18841,-8.6863027)"
         id="path50" />
    </clipPath>
    <clipPath
       clipPathUnits="userSpaceOnUse"
       id="clipPath52">
      <path
         d="M 0,97.482 H 356.281 V 0 H 0 Z"
         transform="translate(-245.7298,-7.2668977)"
         id="path52" />
    </clipPath>
    <clipPath
       clipPathUnits="userSpaceOnUse"
       id="clipPath54">
      <path
         d="M 0,97.482 H 356.281 V 0 H 0 Z"
         transform="translate(-253.5967,-6.9644002)"
         id="path54" />
    </clipPath>
    <clipPath
       clipPathUnits="userSpaceOnUse"
       id="clipPath56">
      <path
         d="M 0,97.482 H 356.281 V 0 H 0 Z"
         transform="translate(-260.1382,-9.2645002)"
         id="path56" />
    </clipPath>
    <clipPath
       clipPathUnits="userSpaceOnUse"
       id="clipPath58">
      <path
         d="M 0,97.482 H 356.281 V 0 H 0 Z"
         transform="translate(-268.1746,-9.7543027)"
         id="path58" />
    </clipPath>
    <clipPath
       clipPathUnits="userSpaceOnUse"
       id="clipPath60">
      <path
         d="M 0,97.482 H 356.281 V 0 H 0 Z"
         transform="translate(-274.7602,-8.7305002)"
         id="path60" />
    </clipPath>
    <clipPath
       clipPathUnits="userSpaceOnUse"
       id="clipPath62">
      <path
         d="M 0,97.482 H 356.281 V 0 H 0 Z"
         transform="translate(-282.8317,-9.8477002)"
         id="path62" />
    </clipPath>
    <clipPath
       clipPathUnits="userSpaceOnUse"
       id="clipPath64">
      <path
         d="M 0,97.482 H 356.281 V 0 H 0 Z"
         transform="translate(-286.24051,-7.2668977)"
         id="path64" />
    </clipPath>
    <clipPath
       clipPathUnits="userSpaceOnUse"
       id="clipPath66">
      <path
         d="M 0,97.482 H 356.281 V 0 H 0 Z"
         transform="translate(-296.36841,-13.4342)"
         id="path66" />
    </clipPath>
    <clipPath
       clipPathUnits="userSpaceOnUse"
       id="clipPath68">
      <path
         d="M 0,97.482 H 356.281 V 0 H 0 Z"
         transform="translate(-300.95141,-11.769703)"
         id="path68" />
    </clipPath>
    <clipPath
       clipPathUnits="userSpaceOnUse"
       id="clipPath70">
      <path
         d="M 0,97.482 H 356.281 V 0 H 0 Z"
         transform="translate(-310.04681,-9.6209002)"
         id="path70" />
    </clipPath>
    <clipPath
       clipPathUnits="userSpaceOnUse"
       id="clipPath72">
      <path
         d="M 0,97.482 H 356.281 V 0 H 0 Z"
         transform="translate(-317.74511,-11.769703)"
         id="path72" />
    </clipPath>
    <clipPath
       clipPathUnits="userSpaceOnUse"
       id="clipPath74">
      <path
         d="M 0,97.482 H 356.281 V 0 H 0 Z"
         transform="translate(-325.65671,-13.4342)"
         id="path74" />
    </clipPath>
    <clipPath
       clipPathUnits="userSpaceOnUse"
       id="clipPath76">
      <path
         d="M 0,97.482 H 356.281 V 0 H 0 Z"
         transform="translate(-328.37111,-10.866598)"
         id="path76" />
    </clipPath>
    <clipPath
       clipPathUnits="userSpaceOnUse"
       id="clipPath78">
      <path
         d="M 0,97.482 H 356.281 V 0 H 0 Z"
         transform="translate(-336.93241,-9.7543027)"
         id="path78" />
    </clipPath>
    <clipPath
       clipPathUnits="userSpaceOnUse"
       id="clipPath80">
      <path
         d="M 0,97.482 H 356.281 V 0 H 0 Z"
         transform="translate(-340.84841,-11.1869)"
         id="path80" />
    </clipPath>
    <clipPath
       clipPathUnits="userSpaceOnUse"
       id="clipPath82">
      <path
         d="M 0,97.482 H 356.281 V 0 H 0 Z"
         transform="translate(-343.37591,-2.0204976)"
         id="path82" />
    </clipPath>
    <linearGradient
       x1="0"
       y1="0"
       x2="1"
       y2="0"
       gradientUnits="userSpaceOnUse"
       gradientTransform="matrix(-80.276199,-7.0185971,-21.290003,-82.75,94.678513,77.215195)"
       spreadMethod="pad"
       id="linearGradient87">
      <stop
         style="stop-opacity:1;stop-color:#cbe135"
         offset="0"
         id="stop82" />
      <stop
         style="stop-opacity:1;stop-color:#cbe135"
         offset="0.08831189"
         id="stop83" />
      <stop
         style="stop-opacity:1;stop-color:#a6c62f"
         offset="0.55562"
         id="stop84" />
      <stop
         style="stop-opacity:1;stop-color:#a6c62f"
         offset="0.59785337"
         id="stop85" />
      <stop
         style="stop-opacity:1;stop-color:#609c28"
         offset="0.821334"
         id="stop86" />
      <stop
         style="stop-opacity:1;stop-color:#133816"
         offset="1"
         id="stop87" />
    </linearGradient>
    <linearGradient
       x1="0"
       y1="0"
       x2="1"
       y2="0"
       gradientUnits="userSpaceOnUse"
       gradientTransform="matrix(-72.418442,-6.3315721,-19.206165,-74.650482,83.106392,22.370361)"
       spreadMethod="pad"
       id="linearGradient93">
      <stop
         style="stop-opacity:1;stop-color:#133816"
         offset="0"
         id="stop88" />
      <stop
         style="stop-opacity:1;stop-color:#609c28"
         offset="0.178666"
         id="stop89" />
      <stop
         style="stop-opacity:1;stop-color:#a6c62f"
         offset="0.40214663"
         id="stop90" />
      <stop
         style="stop-opacity:1;stop-color:#a6c62f"
         offset="0.44438"
         id="stop91" />
      <stop
         style="stop-opacity:1;stop-color:#cbe135"
         offset="0.91168811"
         id="stop92" />
      <stop
         style="stop-opacity:1;stop-color:#cbe135"
         offset="1"
         id="stop93" />
    </linearGradient>
    <linearGradient
       x1="0"
       y1="0"
       x2="1"
       y2="0"
       gradientUnits="userSpaceOnUse"
       gradientTransform="matrix(-1.8344923,-0.1603131,-0.4864046,-1.8909663,49.552734,48.378193)"
       spreadMethod="pad"
       id="linearGradient98">
      <stop
         style="stop-opacity:1;stop-color:#cbe135"
         offset="0"
         id="stop94" />
      <stop
         style="stop-opacity:1;stop-color:#cbe135"
         offset="0.20813"
         id="stop95" />
      <stop
         style="stop-opacity:1;stop-color:#609c28"
         offset="0.60393"
         id="stop96" />
      <stop
         style="stop-opacity:1;stop-color:#133816"
         offset="0.810116"
         id="stop97" />
      <stop
         style="stop-opacity:1;stop-color:#133816"
         offset="1"
         id="stop98" />
    </linearGradient>
    <linearGradient
       x1="0"
       y1="0"
       x2="1"
       y2="0"
       gradientUnits="userSpaceOnUse"
       gradientTransform="matrix(9.9963245,37.308529,37.308529,-9.9963245,6.2397327,5.5123444)"
       spreadMethod="pad"
       id="linearGradient104">
      <stop
         style="stop-opacity:1;stop-color:#133816"
         offset="0"
         id="stop99" />
      <stop
         style="stop-opacity:1;stop-color:#609c28"
         offset="0.178666"
         id="stop100" />
      <stop
         style="stop-opacity:1;stop-color:#a6c62f"
         offset="0.40214663"
         id="stop101" />
      <stop
         style="stop-opacity:1;stop-color:#a6c62f"
         offset="0.44438"
         id="stop102" />
      <stop
         style="stop-opacity:1;stop-color:#cbe135"
         offset="0.91168811"
         id="stop103" />
      <stop
         style="stop-opacity:1;stop-color:#cbe135"
         offset="1"
         id="stop104" />
    </linearGradient>
    <linearGradient
       x1="0"
       y1="0"
       x2="1"
       y2="0"
       gradientUnits="userSpaceOnUse"
       gradientTransform="matrix(10.930878,40.796551,40.796551,-10.930878,80.755485,51.326206)"
       spreadMethod="pad"
       id="linearGradient110">
      <stop
         style="stop-opacity:1;stop-color:#cbe135"
         offset="0"
         id="stop105" />
      <stop
         style="stop-opacity:1;stop-color:#cbe135"
         offset="0.08831189"
         id="stop106" />
      <stop
         style="stop-opacity:1;stop-color:#a6c62f"
         offset="0.55562"
         id="stop107" />
      <stop
         style="stop-opacity:1;stop-color:#a6c62f"
         offset="0.59785337"
         id="stop108" />
      <stop
         style="stop-opacity:1;stop-color:#609c28"
         offset="0.821334"
         id="stop109" />
      <stop
         style="stop-opacity:1;stop-color:#133816"
         offset="1"
         id="stop110" />
    </linearGradient>
    <linearGradient
       x1="0"
       y1="0"
       x2="1"
       y2="0"
       gradientUnits="userSpaceOnUse"
       gradientTransform="matrix(-61.405666,-5.3688931,-16.285355,-63.298157,82.385284,40.112999)"
       spreadMethod="pad"
       id="linearGradient116">
      <stop
         style="stop-opacity:1;stop-color:#cbe135"
         offset="0"
         id="stop111" />
      <stop
         style="stop-opacity:1;stop-color:#cbe135"
         offset="0.08831189"
         id="stop112" />
      <stop
         style="stop-opacity:1;stop-color:#a6c62f"
         offset="0.55562"
         id="stop113" />
      <stop
         style="stop-opacity:1;stop-color:#a6c62f"
         offset="0.59785337"
         id="stop114" />
      <stop
         style="stop-opacity:1;stop-color:#609c28"
         offset="0.821334"
         id="stop115" />
      <stop
         style="stop-opacity:1;stop-color:#133816"
         offset="1"
         id="stop116" />
    </linearGradient>
    <linearGradient
       x1="0"
       y1="0"
       x2="1"
       y2="0"
       gradientUnits="userSpaceOnUse"
       gradientTransform="matrix(-52.41859,-4.5831361,-13.902027,-54.034077,74.213722,56.391377)"
       spreadMethod="pad"
       id="linearGradient122">
      <stop
         style="stop-opacity:1;stop-color:#133816"
         offset="0"
         id="stop117" />
      <stop
         style="stop-opacity:1;stop-color:#609c28"
         offset="0.178666"
         id="stop118" />
      <stop
         style="stop-opacity:1;stop-color:#a6c62f"
         offset="0.40214663"
         id="stop119" />
      <stop
         style="stop-opacity:1;stop-color:#a6c62f"
         offset="0.44438"
         id="stop120" />
      <stop
         style="stop-opacity:1;stop-color:#cbe135"
         offset="0.91168811"
         id="stop121" />
      <stop
         style="stop-opacity:1;stop-color:#cbe135"
         offset="1"
         id="stop122" />
    </linearGradient>
    <clipPath
       clipPathUnits="userSpaceOnUse"
       id="clipPath124">
      <path
         d="M 0,97.482 H 356.281 V 0 H 0 Z"
         transform="translate(-13.522,-38.624301)"
         id="path124" />
    </clipPath>
    <linearGradient
       x1="0"
       y1="0"
       x2="1"
       y2="0"
       gradientUnits="userSpaceOnUse"
       gradientTransform="matrix(-39.255737,2.0596638,-15.903612,-38.528473,55.767914,41.927105)"
       spreadMethod="pad"
       id="linearGradient128">
      <stop
         style="stop-opacity:1;stop-color:#cbe135"
         offset="0"
         id="stop124" />
      <stop
         style="stop-opacity:1;stop-color:#cbe135"
         offset="0.20813"
         id="stop125" />
      <stop
         style="stop-opacity:1;stop-color:#609c28"
         offset="0.60393"
         id="stop126" />
      <stop
         style="stop-opacity:1;stop-color:#133816"
         offset="0.810116"
         id="stop127" />
      <stop
         style="stop-opacity:1;stop-color:#133816"
         offset="1"
         id="stop128" />
    </linearGradient>
    <linearGradient
       x1="0"
       y1="0"
       x2="1"
       y2="0"
       gradientUnits="userSpaceOnUse"
       gradientTransform="matrix(-39.252052,2.0594704,-15.90212,-38.524857,57.549404,46.11887)"
       spreadMethod="pad"
       id="linearGradient134">
      <stop
         style="stop-opacity:1;stop-color:#133816"
         offset="0"
         id="stop129" />
      <stop
         style="stop-opacity:1;stop-color:#609c28"
         offset="0.178666"
         id="stop130" />
      <stop
         style="stop-opacity:1;stop-color:#a6c62f"
         offset="0.40214663"
         id="stop131" />
      <stop
         style="stop-opacity:1;stop-color:#a6c62f"
         offset="0.44438"
         id="stop132" />
      <stop
         style="stop-opacity:1;stop-color:#cbe135"
         offset="0.91168811"
         id="stop133" />
      <stop
         style="stop-opacity:1;stop-color:#cbe135"
         offset="1"
         id="stop134" />
    </linearGradient>
    <linearGradient
       x1="0"
       y1="0"
       x2="1"
       y2="0"
       gradientUnits="userSpaceOnUse"
       gradientTransform="matrix(-39.261623,2.0599728,-15.905996,-38.534252,57.303066,45.724438)"
       spreadMethod="pad"
       id="linearGradient140">
      <stop
         style="stop-opacity:1;stop-color:#cbe135"
         offset="0"
         id="stop135" />
      <stop
         style="stop-opacity:1;stop-color:#cbe135"
         offset="0.08831189"
         id="stop136" />
      <stop
         style="stop-opacity:1;stop-color:#a6c62f"
         offset="0.55562"
         id="stop137" />
      <stop
         style="stop-opacity:1;stop-color:#a6c62f"
         offset="0.59785337"
         id="stop138" />
      <stop
         style="stop-opacity:1;stop-color:#609c28"
         offset="0.821334"
         id="stop139" />
      <stop
         style="stop-opacity:1;stop-color:#133816"
         offset="1"
         id="stop140" />
    </linearGradient>
    <linearGradient
       x1="0"
       y1="0"
       x2="1"
       y2="0"
       gradientUnits="userSpaceOnUse"
       gradientTransform="matrix(-24.07687,1.2632701,-9.7538853,-23.630716,39.664894,40.419601)"
       spreadMethod="pad"
       id="linearGradient145">
      <stop
         style="stop-opacity:1;stop-color:#cbe135"
         offset="0"
         id="stop141" />
      <stop
         style="stop-opacity:1;stop-color:#cbe135"
         offset="0.20813"
         id="stop142" />
      <stop
         style="stop-opacity:1;stop-color:#609c28"
         offset="0.60393"
         id="stop143" />
      <stop
         style="stop-opacity:1;stop-color:#133816"
         offset="0.810116"
         id="stop144" />
      <stop
         style="stop-opacity:1;stop-color:#133816"
         offset="1"
         id="stop145" />
    </linearGradient>
    <linearGradient
       x1="0"
       y1="0"
       x2="1"
       y2="0"
       gradientUnits="userSpaceOnUse"
       gradientTransform="matrix(-15.65447,0.8214496,-6.3419733,-15.36425,56.024837,42.471176)"
       spreadMethod="pad"
       id="linearGradient151">
      <stop
         style="stop-opacity:1;stop-color:#cbe135"
         offset="0"
         id="stop146" />
      <stop
         style="stop-opacity:1;stop-color:#cbe135"
         offset="0.08831189"
         id="stop147" />
      <stop
         style="stop-opacity:1;stop-color:#a6c62f"
         offset="0.55562"
         id="stop148" />
      <stop
         style="stop-opacity:1;stop-color:#a6c62f"
         offset="0.59785337"
         id="stop149" />
      <stop
         style="stop-opacity:1;stop-color:#609c28"
         offset="0.821334"
         id="stop150" />
      <stop
         style="stop-opacity:1;stop-color:#133816"
         offset="1"
         id="stop151" />
    </linearGradient>
  </defs>
  <sodipodi:namedview
     id="namedview1"
     pagecolor="#ffffff"
     bordercolor="#000000"
     borderopacity="0.25"
     inkscape:showpageshadow="2"
     inkscape:pageopacity="0.0"
     inkscape:pagecheckerboard="0"
     inkscape:deskcolor="#d1d1d1">
    <inkscape:page
       x="0"
       y="0"
       inkscape:label="1"
       id="page1"
       width="475.04132"
       height="129.97546"
       margin="0"
       bleed="0" />
  </sodipodi:namedview>
  <g
     id="layer-MC0"
     inkscape:groupmode="layer"
     inkscape:label="レイヤー 1">
    <path
       id="path1"
       d="m 0,0 c -6.515,0 -10.626,1.918 -12.086,2.732 -0.934,1.625 -1.949,6.862 -2.1,10.337 0.391,0.512 1.557,0.663 1.86,0.223 1.166,-3.765 4.343,-11.005 13.34,-11.005 6.506,0 9.683,4.067 9.683,8.49 0,3.253 -0.703,6.875 -6.354,10.342 l -7.369,4.583 c -3.871,2.434 -8.365,6.639 -8.365,12.695 0,7.018 5.731,12.7 15.814,12.7 2.394,0 5.189,-0.441 7.2,-0.957 1.014,-0.302 2.1,-0.445 2.714,-0.445 0.703,-1.771 1.397,-5.909 1.397,-9.006 -0.302,-0.445 -1.548,-0.668 -1.94,-0.222 -1.006,3.546 -3.097,8.343 -10.537,8.343 -7.6,0 -9.229,-4.797 -9.229,-8.197 0,-4.285 3.72,-7.382 6.595,-9.082 l 6.194,-3.693 c 4.886,-2.875 9.691,-7.16 9.691,-14.177 C 16.508,5.54 10.074,0 0,0"
       style="fill:#ffffff;fill-opacity:1;fill-rule:nonzero;stroke:none"
       transform="matrix(1.3333333,0,0,-1.3333333,165.3472,94.044667)"
       clip-path="url(#clipPath2)" />
    <path
       id="path3"
       d="m 0,0 c -5.117,0 -8.918,-4.654 -8.918,-12.78 0,-6.71 3.178,-13.95 9.995,-13.95 6.825,0 8.917,6.79 8.917,12.482 C 9.994,-7.974 7.36,0 0,0 m 16.66,-13.069 c 0,-9.234 -6.666,-15.882 -16.357,-15.882 -8.909,0 -15.886,5.985 -15.886,15.219 0,9.3 7.36,15.939 16.508,15.939 8.686,0 15.735,-6.194 15.735,-15.276"
       style="fill:#ffffff;fill-opacity:1;fill-rule:nonzero;stroke:none"
       transform="matrix(1.3333333,0,0,-1.3333333,213.65413,55.254133)"
       clip-path="url(#clipPath4)" />
    <path
       id="path5"
       d="m 0,0 c -1.326,0 -1.326,-0.147 -1.326,-2.145 v -15.574 c 0,-5.322 0.16,-6.203 2.945,-6.425 l 2.804,-0.223 c 0.534,-0.374 0.383,-1.624 -0.16,-1.847 -3.489,0.147 -5.732,0.223 -8.455,0.223 -2.785,0 -5.117,-0.076 -7.44,-0.223 -0.543,0.223 -0.703,1.473 -0.16,1.847 l 1.789,0.223 c 2.874,0.373 2.945,1.103 2.945,6.425 v 15.574 c 0,1.998 0,2.145 -1.548,2.145 h -2.714 c -0.472,0.294 -0.544,0.966 -0.232,1.406 l 3.329,1.549 c 0.623,0.298 1.165,0.747 1.165,1.477 0,4.285 0.543,8.864 2.403,12.993 1.941,4.214 6.274,9.38 13.955,9.38 4.103,0 7.591,-1.771 7.591,-4.432 0,-1.472 -1.468,-2.656 -2.936,-2.656 -0.855,0 -1.327,0.298 -1.87,0.886 -1.468,1.628 -3.639,3.248 -6.194,3.248 -2.402,0 -4.343,-1.402 -5.509,-4.059 -1.397,-3.39 -1.708,-8.788 -1.708,-12.486 V 5.171 c 0,-1.994 0,-2.065 1.326,-2.065 H 8.828 C 9.683,2.367 9.14,0.294 8.294,0 Z"
       style="fill:#ffffff;fill-opacity:1;fill-rule:nonzero;stroke:none"
       transform="matrix(1.3333333,0,0,-1.3333333,255.47027,57.817467)"
       clip-path="url(#clipPath6)" />
    <path
       id="path7"
       d="m 0,0 c -1.317,0 -1.397,-0.218 -1.397,-1.771 v -13.808 c 0,-4.276 0.543,-8.192 5.66,-8.192 0.774,0 1.477,0.142 2.092,0.365 0.694,0.223 1.708,1.032 1.94,1.032 0.623,0 0.925,-0.809 0.774,-1.255 -1.398,-1.548 -4.183,-3.399 -8.143,-3.399 -6.666,0 -8.054,3.551 -8.054,7.974 V -2.145 C -7.128,-0.147 -7.208,0 -8.766,0 h -2.162 c -0.472,0.294 -0.543,1.112 -0.232,1.557 2.243,0.659 4.183,1.62 4.957,2.287 1.006,0.886 2.483,2.884 3.258,4.357 0.382,0.147 1.316,0.147 1.628,-0.374 V 4.503 c 0,-1.326 0.08,-1.397 1.397,-1.397 H 8.677 C 9.612,2.438 9.452,0.445 8.757,0 Z"
       style="fill:#ffffff;fill-opacity:1;fill-rule:nonzero;stroke:none"
       transform="matrix(1.3333333,0,0,-1.3333333,288.61173,57.817467)"
       clip-path="url(#clipPath8)" />
    <path
       id="path9"
       d="m 0,0 c -1.317,0 -1.398,-0.218 -1.398,-1.771 v -13.808 c 0,-4.276 0.552,-8.192 5.661,-8.192 0.774,0 1.477,0.142 2.1,0.365 0.694,0.223 1.7,1.032 1.931,1.032 0.623,0 0.935,-0.809 0.774,-1.255 -1.388,-1.548 -4.182,-3.399 -8.133,-3.399 -6.675,0 -8.064,3.551 -8.064,7.974 V -2.145 C -7.129,-0.147 -7.209,0 -8.757,0 h -2.171 c -0.463,0.294 -0.544,1.112 -0.232,1.557 2.243,0.659 4.183,1.62 4.966,2.287 0.997,0.886 2.483,2.884 3.248,4.357 0.392,0.147 1.326,0.147 1.629,-0.374 V 4.503 c 0,-1.326 0.08,-1.397 1.397,-1.397 H 8.677 C 9.612,2.438 9.46,0.445 8.757,0 Z"
       style="fill:#ffffff;fill-opacity:1;fill-rule:nonzero;stroke:none"
       transform="matrix(1.3333333,0,0,-1.3333333,329.22973,57.817467)"
       clip-path="url(#clipPath10)" />
    <path
       id="path11"
       d="m 0,0 c 5.74,0 7.449,0.298 8.072,0.739 0.222,0.146 0.462,0.449 0.462,1.41 0,2.06 -1.477,4.646 -5.971,4.646 -4.566,0 -8.526,-3.987 -8.606,-6.426 0,-0.147 0,-0.369 0.543,-0.369 z m -4.806,-2.212 c -2.011,0 -2.091,-0.151 -2.091,-1.998 0,-7.462 4.574,-13.808 12.878,-13.808 2.553,0 4.725,0.744 7.128,3.618 0.774,0.227 1.317,-0.218 1.397,-0.885 -2.563,-5.02 -8.143,-6.862 -12.174,-6.862 -5.038,0 -8.989,2.065 -11.241,4.873 -2.331,2.874 -3.257,6.35 -3.257,9.598 0,9.086 6.283,16.687 15.583,16.687 6.666,0 11.009,-4.361 11.009,-8.789 0,-1.037 -0.16,-1.624 -0.312,-1.918 -0.231,-0.445 -1.316,-0.516 -4.574,-0.516 z"
       style="fill:#ffffff;fill-opacity:1;fill-rule:nonzero;stroke:none"
       transform="matrix(1.3333333,0,0,-1.3333333,361.76667,64.313867)"
       clip-path="url(#clipPath12)" />
    <path
       id="path13"
       d="m 0,0 c 0.632,-0.516 1.166,-1.7 1.166,-2.954 0,-1.327 -0.775,-2.733 -1.709,-2.733 -0.383,0 -0.774,0.147 -1.077,0.516 -1.709,1.994 -4.574,3.916 -7.76,3.916 -5.42,0 -10.689,-4.063 -10.689,-11.89 0,-5.757 4.183,-12.628 12.477,-12.628 4.495,0 6.817,1.922 8.606,4.432 0.615,0.151 1.318,-0.374 1.389,-1.033 -2.634,-5.464 -8.446,-7.529 -12.94,-7.529 -4.112,0 -7.912,1.255 -10.626,3.765 -2.706,2.51 -4.495,6.123 -4.495,10.929 0,7.974 5.892,16.455 18.761,16.455 C -5.117,1.246 -2.091,0.881 0,0"
       style="fill:#ffffff;fill-opacity:1;fill-rule:nonzero;stroke:none"
       transform="matrix(1.3333333,0,0,-1.3333333,420.2428,53.972933)"
       clip-path="url(#clipPath14)" />
    <path
       id="path15"
       d="m 0,0 c 0,4.357 -0.08,4.797 -2.403,6.127 l -0.774,0.445 c -0.383,0.214 -0.383,1.255 0,1.478 1.94,0.587 5.58,1.7 8.375,3.097 C 5.5,11.147 5.811,11 5.972,10.702 5.892,8.486 5.74,4.797 5.74,1.553 v -15.512 c 0,-0.663 0.071,-1.255 0.303,-1.402 2.794,2.069 6.514,3.841 10.466,3.841 7.36,0 10.003,-4.352 10.003,-9.527 v -12.331 c 0,-5.317 0.16,-6.132 2.946,-6.425 l 2.091,-0.223 c 0.543,-0.369 0.392,-1.628 -0.151,-1.842 -2.795,0.147 -5.046,0.214 -7.761,0.214 -2.785,0 -5.108,-0.067 -7.208,-0.214 -0.534,0.214 -0.694,1.473 -0.152,1.842 l 1.549,0.223 c 2.875,0.445 2.946,1.108 2.946,6.425 v 10.555 c 0,4.726 -2.403,7.903 -7.36,7.903 -2.643,0 -4.655,-0.89 -6.052,-1.989 -1.388,-1.108 -1.62,-1.477 -1.62,-4.063 v -12.406 c 0,-5.317 0.152,-6.051 2.937,-6.425 l 1.638,-0.223 c 0.534,-0.293 0.382,-1.628 -0.16,-1.842 -2.323,0.147 -4.575,0.214 -7.289,0.214 -2.786,0 -5.117,-0.067 -7.6,-0.214 -0.534,0.214 -0.686,1.473 -0.152,1.842 l 1.941,0.223 C -0.08,-39.51 0,-38.695 0,-33.378 Z"
       style="fill:#ffffff;fill-opacity:1;fill-rule:nonzero;stroke:none"
       transform="matrix(1.3333333,0,0,-1.3333333,432.5236,36.9392)"
       clip-path="url(#clipPath16)" />
    <path
       id="path17"
       d="M 0,0 C 0.418,0 1.388,0.014 1.629,0.076 1.931,0.103 2.18,0.289 2.438,0.672 2.563,0.868 2.652,1.179 2.714,1.446 2.732,1.513 2.777,1.58 2.83,1.58 L 3.141,1.544 c 0.063,0 0.09,-0.031 0.09,-0.098 C 3.204,1.179 3.204,-0.076 3.204,-0.289 3.204,-0.841 3.257,-1.566 3.293,-1.873 3.31,-1.989 3.257,-2.007 3.204,-2.024 L 2.866,-2.087 c -0.063,0 -0.107,0.032 -0.116,0.116 C 2.732,-1.855 2.589,-1.392 2.518,-1.25 2.332,-0.916 2.056,-0.681 1.753,-0.627 1.175,-0.529 0.454,-0.529 0,-0.529 V -4.33 c 0,-0.427 0.116,-0.489 0.481,-0.489 h 0.827 c 0.098,0 0.125,-0.027 0.125,-0.107 v -0.382 c 0,-0.098 -0.027,-0.116 -0.125,-0.116 -0.151,0 -0.765,0.035 -2.26,0.035 -1.371,0 -1.949,-0.035 -2.163,-0.035 -0.062,0 -0.098,0.018 -0.098,0.102 v 0.41 c 0,0.066 0.036,0.093 0.098,0.093 h 0.605 c 0.374,0 0.499,0.062 0.507,0.32 0.018,0.307 0.045,2.225 0.045,4.851 v 1.067 c 0,0.677 -0.027,2.84 -0.027,3.009 0,0.276 -0.213,0.427 -0.605,0.427 h -0.765 c -0.072,0 -0.125,0.026 -0.125,0.076 v 0.44 c 0,0.062 0.053,0.093 0.125,0.093 0.142,0 0.721,-0.049 2.474,-0.049 0.213,0 4.236,0.036 5.206,0.036 0.285,0 0.525,0.058 0.587,0.058 C 4.975,5.482 5.001,5.415 5.001,5.295 5.064,5.051 5.553,2.941 5.616,2.764 5.625,2.71 5.616,2.656 5.571,2.643 L 5.277,2.523 C 5.224,2.492 5.189,2.523 5.091,2.643 4.939,2.915 4.539,3.435 3.996,4.045 3.747,4.383 3.355,4.65 2.954,4.748 2.563,4.819 0.578,4.881 0,4.881 Z"
       style="fill:#ffffff;fill-opacity:1;fill-rule:nonzero;stroke:none"
       transform="matrix(1.3333333,0,0,-1.3333333,157.39693,115.6708)"
       clip-path="url(#clipPath18)" />
    <path
       id="path19"
       d="m 0,0 c 0,1.678 -0.881,2.652 -1.593,2.652 -0.392,0 -0.703,-0.12 -0.961,-0.414 -0.472,-0.534 -0.659,-1.174 -0.659,-2.287 0,-0.886 0.071,-1.464 0.481,-2.127 0.249,-0.4 0.596,-0.65 1.201,-0.65 C -0.516,-2.826 0,-1.562 0,0 M 0.81,2.363 C 1.522,1.642 1.86,0.85 1.86,-0.049 c 0,-0.855 -0.374,-1.682 -0.952,-2.323 -0.623,-0.698 -1.54,-1.095 -2.555,-1.095 -0.961,0 -1.788,0.277 -2.474,1.095 -0.676,0.792 -0.827,1.437 -0.827,2.372 0,0.73 0.365,1.802 1.281,2.532 0.748,0.605 1.54,0.73 2.163,0.73 1.032,0 1.789,-0.396 2.314,-0.899"
       style="fill:#ffffff;fill-opacity:1;fill-rule:nonzero;stroke:none"
       transform="matrix(1.3333333,0,0,-1.3333333,172.1584,118.47093)"
       clip-path="url(#clipPath20)" />
    <path
       id="path21"
       d="M 0,0 C 0,0.703 -0.116,0.948 -0.578,1.193 L -0.854,1.344 C -0.943,1.38 -0.979,1.406 -0.979,1.459 v 0.098 c 0,0.063 0.036,0.09 0.125,0.139 l 1.842,0.867 c 0.098,0.027 0.151,0.063 0.249,0.063 0.089,0 0.116,-0.089 0.134,-0.183 L 1.513,1.313 H 1.567 C 2.091,2.172 2.732,2.683 3.4,2.683 3.889,2.683 4.192,2.35 4.192,1.922 4.192,1.5 3.765,1.099 3.373,1.099 3.16,1.099 2.973,1.161 2.857,1.219 2.732,1.313 2.581,1.344 2.43,1.344 2.243,1.344 1.976,1.219 1.789,0.904 1.665,0.685 1.602,0.356 1.602,0.151 v -2.91 c 0,-0.489 0.124,-0.645 0.427,-0.645 h 0.668 c 0.098,0 0.124,-0.027 0.124,-0.102 v -0.356 c 0,-0.071 -0.026,-0.103 -0.098,-0.103 -0.115,0 -0.783,0.05 -1.895,0.05 -1.068,0 -1.673,-0.05 -1.789,-0.05 -0.08,0 -0.107,0.032 -0.107,0.103 v 0.338 c 0,0.093 0.027,0.12 0.134,0.12 h 0.543 c 0.24,0 0.391,0.12 0.391,0.423 z"
       style="fill:#ffffff;fill-opacity:1;fill-rule:nonzero;stroke:none"
       transform="matrix(1.3333333,0,0,-1.3333333,177.12987,117.6228)"
       clip-path="url(#clipPath22)" />
    <path
       id="path23"
       d="m 0,0 c -0.115,0 -0.205,0.062 -0.205,0.214 0,0.124 0.09,0.218 0.294,0.284 0.419,0.16 1.745,1.291 2.092,1.932 0.053,0.124 0.142,0.151 0.231,0.151 0.133,0 0.187,-0.094 0.187,-0.214 L 2.545,0.854 h 2.003 c 0.098,0 0.124,-0.058 0.107,-0.12 L 4.512,0.098 C 4.485,0.031 4.45,0 4.352,0 H 2.501 C 2.474,-0.641 2.456,-1.371 2.456,-2.042 v -1.375 c 0,-1.193 0.508,-1.433 0.81,-1.433 0.339,0 0.677,0.075 0.891,0.187 0.106,0.044 0.151,0.044 0.177,-0.032 l 0.098,-0.182 c 0.036,-0.098 0,-0.151 -0.062,-0.218 -0.213,-0.156 -0.855,-0.61 -1.922,-0.61 -0.917,0 -1.602,0.73 -1.602,1.375 0,0.548 0.044,1.767 0.044,2.346 L 0.89,0 Z"
       style="fill:#ffffff;fill-opacity:1;fill-rule:nonzero;stroke:none"
       transform="matrix(1.3333333,0,0,-1.3333333,187.4296,115.48667)"
       clip-path="url(#clipPath24)" />
    <path
       id="path25"
       d="m 0,0 c 0,0.792 0,1.646 -0.401,2.038 -0.24,0.249 -0.48,0.374 -0.845,0.374 -0.4,0 -0.801,-0.214 -1.13,-0.552 C -2.501,1.709 -2.652,1.406 -2.652,1.112 V -2.18 c 0,-0.49 0.062,-0.646 0.276,-0.646 h 0.365 c 0.089,0 0.151,-0.026 0.151,-0.129 v -0.28 c 0,-0.094 -0.026,-0.151 -0.124,-0.151 -0.125,0 -0.793,0.049 -1.585,0.049 -0.943,0 -1.53,-0.049 -1.646,-0.049 -0.08,0 -0.125,0.031 -0.125,0.12 v 0.338 c 0,0.076 0.063,0.102 0.134,0.102 h 0.382 c 0.25,0 0.463,0.067 0.508,0.245 0.053,0.307 0.071,1.193 0.071,1.896 l -0.027,5.446 c 0,0.855 -0.187,1.162 -0.703,1.371 L -5.242,6.225 C -5.34,6.256 -5.375,6.288 -5.375,6.354 v 0.147 c 0,0.058 0.035,0.085 0.222,0.183 0.454,0.124 1.495,0.632 1.985,0.885 0.187,0.058 0.267,0.12 0.418,0.12 0.124,0 0.16,-0.12 0.124,-0.373 C -2.652,7.049 -2.652,3.965 -2.652,3.221 V 2.274 h 0.089 c 0.427,0.596 1.255,0.93 1.967,0.93 0.676,0 1.077,-0.214 1.531,-0.615 0.694,-0.605 0.676,-1.37 0.676,-2.238 v -0.916 -2.016 c 0,-0.214 0.267,-0.245 0.507,-0.245 h 0.276 c 0.124,0 0.16,-0.026 0.16,-0.102 v -0.338 c 0,-0.071 -0.036,-0.12 -0.133,-0.12 -0.08,0 -0.579,0.049 -1.504,0.049 -0.917,0 -1.469,-0.049 -1.611,-0.049 -0.098,0 -0.133,0.031 -0.133,0.102 v 0.365 c 0,0.067 0.035,0.093 0.106,0.093 h 0.267 c 0.178,0 0.392,0.067 0.418,0.307 C 0,-2.305 0,-1.513 0,-1.023 Z"
       style="fill:#ffffff;fill-opacity:1;fill-rule:nonzero;stroke:none"
       transform="matrix(1.3333333,0,0,-1.3333333,200.9808,118.39373)"
       clip-path="url(#clipPath26)" />
    <path
       id="path27"
       d="m 0,0 c 0.329,0 0.507,0.098 0.507,0.213 0,0.454 -0.151,1.362 -0.943,1.362 -0.747,0 -1.202,-0.552 -1.397,-1.575 z m -1.886,-1.024 c 0,-1.557 1.112,-2.474 1.984,-2.474 0.952,0 1.531,0.401 1.851,0.886 0.054,0.111 0.116,0.111 0.178,0.075 L 2.358,-2.67 c 0.072,-0.044 0.107,-0.107 0,-0.303 -0.32,-0.578 -1.103,-1.62 -2.776,-1.62 -0.979,0 -1.664,0.214 -2.198,0.824 -0.703,0.814 -0.855,1.58 -0.855,2.523 0,0.832 0.089,1.397 0.748,2.26 0.641,0.81 1.326,1.122 2.652,1.122 1.736,0 2.305,-1.816 2.305,-2.439 0,-0.231 -0.152,-0.245 -0.427,-0.245 h -3.693 z"
       style="fill:#ffffff;fill-opacity:1;fill-rule:nonzero;stroke:none"
       transform="matrix(1.3333333,0,0,-1.3333333,209.916,116.96973)"
       clip-path="url(#clipPath28)" />
    <path
       id="path29"
       d="M 0,0 C 0,-1.229 -0.009,-2.902 0.018,-3.329 0.053,-3.605 0.169,-3.76 0.454,-3.76 h 0.694 c 0.125,0 0.152,-0.027 0.152,-0.13 v -0.28 c 0,-0.093 -0.027,-0.151 -0.09,-0.151 -0.098,0 -0.676,0.049 -2.011,0.049 -0.925,0 -1.717,-0.049 -1.833,-0.049 -0.098,0 -0.125,0.031 -0.125,0.12 v 0.347 c 0,0.067 0.027,0.094 0.16,0.094 h 0.606 c 0.302,0 0.391,0.187 0.391,0.52 v 4.579 h -1.032 c -0.063,0 -0.098,0.049 -0.08,0.169 l 0.062,0.512 c 0,0.067 0.08,0.08 0.196,0.08 h 0.854 v 0.294 c 0,1.553 0.463,2.563 1.13,3.262 0.828,0.796 1.647,1.099 2.563,1.099 0.828,0 1.495,-0.303 1.495,-0.944 C 3.586,5.384 3.133,5.072 2.83,5.072 2.643,5.072 2.456,5.108 2.341,5.197 2.154,5.26 2.002,5.437 1.913,5.598 1.726,5.873 1.513,5.989 1.3,5.989 0.935,5.989 0.632,5.9 0.356,5.504 -0.045,4.957 0.018,3.729 0,2.589 V 2.1 H 1.815 C 1.94,2.1 1.94,2.02 1.94,1.967 L 1.86,1.415 C 1.851,1.352 1.789,1.339 1.664,1.339 H 0 Z"
       style="fill:#ffffff;fill-opacity:1;fill-rule:nonzero;stroke:none"
       transform="matrix(1.3333333,0,0,-1.3333333,221.79413,117.1476)"
       clip-path="url(#clipPath30)" />
    <path
       id="path31"
       d="m 0,0 h -0.098 c -0.338,-0.547 -1.219,-1.037 -2.011,-1.037 -0.552,0 -1.033,0 -1.575,0.672 -0.544,0.716 -0.561,1.282 -0.561,2.14 0,0.73 0.017,1.26 0.017,1.575 0,0.374 0,0.917 -0.035,1.113 -0.044,0.374 -0.258,0.507 -0.534,0.543 -0.24,0.027 -0.338,0.027 -0.338,0.12 v 0.28 c 0,0.089 0.035,0.116 0.187,0.116 h 1.833 c 0.089,0 0.169,0.013 0.222,0.036 0.063,0.017 0.134,0.026 0.17,0.026 0.089,0 0.16,-0.089 0.16,-0.178 0,-0.16 -0.071,-0.863 -0.071,-1.904 v -0.97 c 0,-0.61 -0.107,-1.647 0.311,-2.287 0.303,-0.459 0.641,-0.428 0.979,-0.428 0.365,0 0.828,0.249 1.059,0.579 0.071,0.089 0.178,0.302 0.178,0.489 v 3.596 c 0,0.4 -0.294,0.489 -0.659,0.525 -0.275,0.027 -0.302,0.053 -0.302,0.12 v 0.28 c 0,0.103 0.045,0.116 0.187,0.116 h 1.887 c 0.098,0 0.186,0.013 0.258,0.036 0.071,0.017 0.142,0.026 0.195,0.026 0.089,0 0.125,-0.089 0.125,-0.151 0,-0.156 -0.098,-0.552 -0.098,-2.065 V 2.256 c 0,-0.73 0,-1.464 0.036,-1.771 0.062,-0.454 0.213,-0.512 0.338,-0.512 0.089,0 0.303,0 0.489,0.027 0.116,0.013 0.161,0 0.179,-0.067 l 0.044,-0.24 C 2.59,-0.396 2.563,-0.432 2.501,-0.441 L 0.605,-0.979 C 0.516,-1.01 0.427,-1.037 0.303,-1.037 c -0.125,0 -0.205,0.058 -0.214,0.187 z"
       style="fill:#ffffff;fill-opacity:1;fill-rule:nonzero;stroke:none"
       transform="matrix(1.3333333,0,0,-1.3333333,231.2396,121.71027)"
       clip-path="url(#clipPath32)" />
    <path
       id="path33"
       d="m 0,0 c -0.125,0 -0.214,0.062 -0.214,0.214 0,0.124 0.089,0.218 0.294,0.284 0.418,0.16 1.744,1.291 2.092,1.932 0.053,0.124 0.142,0.151 0.231,0.151 0.133,0 0.187,-0.094 0.187,-0.214 L 2.536,0.854 h 2.011 c 0.098,0 0.125,-0.058 0.108,-0.12 L 4.503,0.098 C 4.485,0.031 4.441,0 4.343,0 H 2.501 C 2.465,-0.641 2.456,-1.371 2.456,-2.042 v -1.375 c 0,-1.193 0.508,-1.433 0.81,-1.433 0.33,0 0.668,0.075 0.881,0.187 0.116,0.044 0.151,0.044 0.187,-0.032 l 0.098,-0.182 c 0.027,-0.098 0,-0.151 -0.071,-0.218 -0.214,-0.156 -0.855,-0.61 -1.923,-0.61 -0.916,0 -1.601,0.73 -1.601,1.375 0,0.548 0.044,1.767 0.044,2.346 l 0,1.984 z"
       style="fill:#ffffff;fill-opacity:1;fill-rule:nonzero;stroke:none"
       transform="matrix(1.3333333,0,0,-1.3333333,235.44013,115.48667)"
       clip-path="url(#clipPath34)" />
    <path
       id="path35"
       d="m 0,0 h -0.089 c -0.338,-0.547 -1.228,-1.037 -2.02,-1.037 -0.543,0 -1.033,0 -1.567,0.672 -0.552,0.716 -0.569,1.282 -0.569,2.14 0,0.73 0.017,1.26 0.017,1.575 0,0.374 0,0.917 -0.035,1.113 -0.036,0.374 -0.249,0.507 -0.534,0.543 -0.231,0.027 -0.329,0.027 -0.329,0.12 v 0.28 c 0,0.089 0.026,0.116 0.178,0.116 h 1.833 c 0.089,0 0.169,0.013 0.232,0.036 0.062,0.017 0.124,0.026 0.169,0.026 0.088,0 0.151,-0.089 0.151,-0.178 0,-0.16 -0.063,-0.863 -0.063,-1.904 v -0.97 c 0,-0.61 -0.106,-1.647 0.303,-2.287 0.312,-0.459 0.641,-0.428 0.979,-0.428 0.365,0 0.828,0.249 1.068,0.579 0.062,0.089 0.169,0.302 0.169,0.489 v 3.596 c 0,0.4 -0.294,0.489 -0.659,0.525 -0.275,0.027 -0.302,0.053 -0.302,0.12 v 0.28 c 0,0.103 0.045,0.116 0.187,0.116 h 1.895 c 0.098,0 0.178,0.013 0.25,0.036 0.08,0.017 0.142,0.026 0.204,0.026 0.089,0 0.125,-0.089 0.125,-0.151 0,-0.156 -0.098,-0.552 -0.098,-2.065 V 2.256 c 0,-0.73 0,-1.464 0.027,-1.771 0.071,-0.454 0.213,-0.512 0.338,-0.512 0.098,0 0.311,0 0.489,0.027 0.116,0.013 0.169,0 0.187,-0.067 l 0.036,-0.24 C 2.59,-0.396 2.563,-0.432 2.501,-0.441 L 0.614,-0.979 C 0.516,-1.01 0.427,-1.037 0.303,-1.037 c -0.125,0 -0.196,0.058 -0.205,0.187 z"
       style="fill:#ffffff;fill-opacity:1;fill-rule:nonzero;stroke:none"
       transform="matrix(1.3333333,0,0,-1.3333333,248.65907,121.71027)"
       clip-path="url(#clipPath36)" />
    <path
       id="path37"
       d="M 0,0 C 0,0.703 -0.116,0.948 -0.579,1.193 L -0.854,1.344 C -0.952,1.38 -0.979,1.406 -0.979,1.459 v 0.098 c 0,0.063 0.027,0.09 0.125,0.139 l 1.851,0.867 c 0.08,0.027 0.142,0.063 0.24,0.063 0.089,0 0.115,-0.089 0.142,-0.183 l 0.134,-1.13 h 0.062 c 0.516,0.859 1.157,1.37 1.824,1.37 0.49,0 0.793,-0.333 0.793,-0.761 C 4.192,1.5 3.764,1.099 3.364,1.099 3.159,1.099 2.972,1.161 2.848,1.219 2.732,1.313 2.581,1.344 2.42,1.344 2.242,1.344 1.975,1.219 1.788,0.904 1.664,0.685 1.602,0.356 1.602,0.151 v -2.91 c 0,-0.489 0.124,-0.645 0.427,-0.645 h 0.676 c 0.089,0 0.116,-0.027 0.116,-0.102 v -0.356 c 0,-0.071 -0.027,-0.103 -0.098,-0.103 -0.116,0 -0.792,0.05 -1.896,0.05 -1.076,0 -1.673,-0.05 -1.788,-0.05 -0.081,0 -0.107,0.032 -0.107,0.103 v 0.338 c 0,0.093 0.026,0.12 0.133,0.12 h 0.534 c 0.241,0 0.401,0.12 0.401,0.423 z"
       style="fill:#ffffff;fill-opacity:1;fill-rule:nonzero;stroke:none"
       transform="matrix(1.3333333,0,0,-1.3333333,254.10573,117.6228)"
       clip-path="url(#clipPath38)" />
    <path
       id="path39"
       d="m 0,0 c 0.32,0 0.498,0.098 0.498,0.213 0,0.454 -0.151,1.362 -0.943,1.362 -0.747,0 -1.201,-0.552 -1.406,-1.575 z m -1.896,-1.024 c 0,-1.557 1.113,-2.474 1.994,-2.474 0.943,0 1.522,0.401 1.834,0.886 0.071,0.111 0.124,0.111 0.186,0.075 L 2.35,-2.67 c 0.071,-0.044 0.106,-0.107 0,-0.303 -0.321,-0.578 -1.104,-1.62 -2.777,-1.62 -0.979,0 -1.664,0.214 -2.198,0.824 -0.694,0.814 -0.854,1.58 -0.854,2.523 0,0.832 0.088,1.397 0.747,2.26 0.641,0.81 1.326,1.122 2.652,1.122 1.745,0 2.305,-1.816 2.305,-2.439 0,-0.231 -0.151,-0.245 -0.418,-0.245 h -3.703 z"
       style="fill:#ffffff;fill-opacity:1;fill-rule:nonzero;stroke:none"
       transform="matrix(1.3333333,0,0,-1.3333333,264.82027,116.96973)"
       clip-path="url(#clipPath40)" />
    <path
       id="path41"
       d="M 0,0 -2.091,5.366 C -2.216,5.673 -2.43,5.767 -2.679,5.767 h -0.258 c -0.071,0 -0.107,0.044 -0.107,0.107 v 0.329 c 0,0.093 0.036,0.133 0.125,0.133 0.186,0 0.489,-0.053 1.584,-0.053 0.739,0 1.104,0.053 1.317,0.053 0.089,0 0.125,-0.04 0.125,-0.133 V 5.874 c 0,-0.08 -0.036,-0.107 -0.125,-0.107 h -0.16 c -0.143,0 -0.223,-0.125 -0.143,-0.356 L 0.774,1.824 H 0.863 L 2.055,4.832 C 2.153,5.046 2.073,5.34 1.931,5.522 1.842,5.642 1.691,5.673 1.539,5.673 H 1.37 c -0.08,0 -0.106,0.031 -0.106,0.111 v 0.334 c 0,0.085 0.044,0.12 0.142,0.12 0.098,0 0.587,-0.044 1.566,-0.044 0.703,0 1.033,0.044 1.157,0.044 0.116,0 0.161,-0.035 0.161,-0.12 V 5.794 C 4.29,5.723 4.254,5.673 4.165,5.673 H 3.915 C 3.764,5.673 3.64,5.522 3.702,5.326 L 4.832,2.011 H 4.895 L 5.9,4.788 C 6.15,5.456 5.971,5.767 5.598,5.767 H 5.384 c -0.062,0 -0.098,0.044 -0.098,0.107 v 0.329 c 0,0.093 0.045,0.133 0.125,0.133 0.097,0 0.56,-0.053 1.29,-0.053 0.667,0 0.944,0.053 1.095,0.053 0.089,0 0.116,-0.053 0.116,-0.115 V 5.887 c 0,-0.076 -0.027,-0.12 -0.107,-0.12 H 7.582 C 7.333,5.767 7.093,5.673 6.995,5.504 6.844,5.233 4.895,0.396 4.663,-0.125 4.592,-0.285 4.467,-0.32 4.343,-0.32 4.192,-0.32 4.129,-0.232 4.04,0 L 2.518,4.129 H 2.42 L 0.658,-0.063 C 0.56,-0.267 0.445,-0.32 0.285,-0.32 0.169,-0.32 0.071,-0.2 0,0"
       style="fill:#ffffff;fill-opacity:1;fill-rule:nonzero;stroke:none"
       transform="matrix(1.3333333,0,0,-1.3333333,276.3308,122.7248)"
       clip-path="url(#clipPath42)" />
    <path
       id="path43"
       d="m 0,0 c 0,0.792 0,1.646 -0.401,2.038 -0.24,0.249 -0.48,0.374 -0.845,0.374 -0.4,0 -0.801,-0.214 -1.13,-0.552 C -2.501,1.709 -2.652,1.406 -2.652,1.112 V -2.18 c 0,-0.49 0.063,-0.646 0.276,-0.646 h 0.365 c 0.089,0 0.151,-0.026 0.151,-0.129 v -0.28 c 0,-0.094 -0.036,-0.151 -0.124,-0.151 -0.116,0 -0.793,0.049 -1.585,0.049 -0.952,0 -1.522,-0.049 -1.646,-0.049 -0.08,0 -0.125,0.031 -0.125,0.12 v 0.338 c 0,0.076 0.063,0.102 0.143,0.102 h 0.373 c 0.241,0 0.463,0.067 0.508,0.245 0.062,0.307 0.071,1.193 0.071,1.896 l -0.027,5.446 c 0,0.855 -0.187,1.162 -0.703,1.371 L -5.242,6.225 C -5.34,6.256 -5.375,6.288 -5.375,6.354 v 0.147 c 0,0.058 0.035,0.085 0.213,0.183 0.463,0.124 1.504,0.632 1.994,0.885 0.178,0.058 0.267,0.12 0.418,0.12 0.125,0 0.161,-0.12 0.125,-0.373 C -2.652,7.049 -2.652,3.965 -2.652,3.221 V 2.274 h 0.089 c 0.427,0.596 1.246,0.93 1.967,0.93 0.676,0 1.068,-0.214 1.521,-0.615 0.704,-0.605 0.686,-1.37 0.686,-2.238 v -0.916 -2.016 c 0,-0.214 0.267,-0.245 0.507,-0.245 h 0.276 c 0.125,0 0.16,-0.026 0.16,-0.102 v -0.338 c 0,-0.071 -0.035,-0.12 -0.124,-0.12 -0.089,0 -0.579,0.049 -1.513,0.049 -0.917,0 -1.469,-0.049 -1.611,-0.049 -0.098,0 -0.133,0.031 -0.133,0.102 v 0.365 c 0,0.067 0.035,0.093 0.106,0.093 h 0.259 c 0.186,0 0.4,0.067 0.436,0.307 C 0,-2.305 0,-1.513 0,-1.023 Z"
       style="fill:#ffffff;fill-opacity:1;fill-rule:nonzero;stroke:none"
       transform="matrix(1.3333333,0,0,-1.3333333,293.83293,118.39373)"
       clip-path="url(#clipPath44)" />
    <path
       id="path45"
       d="m 0,0 c -0.489,0 -0.979,0.378 -0.979,0.912 0,0.459 0.445,0.948 1.077,0.948 C 0.73,1.86 1.041,1.339 1.041,0.97 1.041,0.512 0.712,0 0,0 m -0.516,-3.734 c 0,0.454 -0.098,0.757 -0.792,0.944 -0.134,0.026 -0.151,0.071 -0.151,0.134 v 0.164 c 0,0.062 0.026,0.093 0.098,0.12 0.213,0.098 1.726,0.632 1.993,0.739 0.151,0.053 0.267,0.089 0.365,0.089 0.089,0 0.133,-0.063 0.115,-0.182 C 1.086,-1.971 1.086,-2.95 1.086,-4.214 v -1.651 c 0,-0.578 0,-1.126 0.026,-1.308 0.036,-0.281 0.098,-0.4 0.25,-0.4 h 0.614 c 0.115,0 0.142,-0.027 0.142,-0.103 v -0.307 c 0,-0.094 -0.027,-0.151 -0.116,-0.151 -0.124,0 -0.827,0.049 -1.851,0.049 -0.881,0 -1.459,-0.049 -1.646,-0.049 -0.08,0 -0.116,0.031 -0.116,0.151 v 0.289 c 0,0.094 0.054,0.121 0.152,0.121 h 0.667 c 0.151,0 0.222,0.066 0.24,0.306 0.018,0.459 0.036,0.944 0.036,1.375 z"
       style="fill:#ffffff;fill-opacity:1;fill-rule:nonzero;stroke:none"
       transform="matrix(1.3333333,0,0,-1.3333333,299.9916,112.0632)"
       clip-path="url(#clipPath46)" />
    <path
       id="path47"
       d="m 0,0 c 0.053,-0.049 0.071,-0.103 0,-0.182 -0.374,-0.481 -1.442,-1.175 -2.572,-1.175 -1.041,0 -1.86,0.276 -2.448,1.01 -0.578,0.725 -0.729,1.339 -0.729,2.105 0,0.961 0.364,2.029 1.13,2.723 0.641,0.578 1.371,0.89 2.234,0.89 1.762,0 2.162,-0.917 2.162,-1.375 0,-0.361 -0.249,-0.672 -0.667,-0.672 -0.525,0 -0.765,0.374 -0.917,0.766 -0.213,0.525 -0.551,0.627 -0.943,0.627 -0.614,0 -1.38,-0.69 -1.38,-1.776 0,-0.917 0.036,-1.539 0.597,-2.465 0.409,-0.676 1.077,-0.823 1.566,-0.823 0.765,0 1.237,0.254 1.655,0.578 0.027,0.031 0.089,0.031 0.134,-0.017 z"
       style="fill:#ffffff;fill-opacity:1;fill-rule:nonzero;stroke:none"
       transform="matrix(1.3333333,0,0,-1.3333333,311.312,121.28333)"
       clip-path="url(#clipPath48)" />
    <path
       id="path49"
       d="m 0,0 c 0,0.792 0,1.646 -0.391,2.038 -0.25,0.249 -0.49,0.374 -0.855,0.374 -0.4,0 -0.792,-0.214 -1.13,-0.552 C -2.501,1.709 -2.652,1.406 -2.652,1.112 V -2.18 c 0,-0.49 0.062,-0.646 0.276,-0.646 h 0.365 c 0.089,0 0.151,-0.026 0.151,-0.129 v -0.28 c 0,-0.094 -0.036,-0.151 -0.124,-0.151 -0.125,0 -0.793,0.049 -1.585,0.049 -0.943,0 -1.522,-0.049 -1.646,-0.049 -0.08,0 -0.125,0.031 -0.125,0.12 v 0.338 c 0,0.076 0.063,0.102 0.143,0.102 h 0.383 c 0.24,0 0.453,0.067 0.498,0.245 0.062,0.307 0.08,1.193 0.08,1.896 l -0.027,5.446 c 0,0.855 -0.186,1.162 -0.712,1.371 L -5.242,6.225 C -5.34,6.256 -5.366,6.288 -5.366,6.354 v 0.147 c 0,0.058 0.026,0.085 0.213,0.183 0.463,0.124 1.495,0.632 1.985,0.885 0.178,0.058 0.276,0.12 0.427,0.12 0.116,0 0.151,-0.12 0.116,-0.373 C -2.652,7.049 -2.652,3.965 -2.652,3.221 V 2.274 h 0.098 c 0.418,0.596 1.246,0.93 1.958,0.93 0.676,0 1.077,-0.214 1.531,-0.615 0.703,-0.605 0.676,-1.37 0.676,-2.238 v -0.916 -2.016 c 0,-0.214 0.267,-0.245 0.507,-0.245 h 0.276 c 0.134,0 0.16,-0.026 0.16,-0.102 v -0.338 c 0,-0.071 -0.026,-0.12 -0.124,-0.12 -0.089,0 -0.579,0.049 -1.513,0.049 -0.917,0 -1.469,-0.049 -1.611,-0.049 -0.098,0 -0.125,0.031 -0.125,0.102 v 0.365 c 0,0.067 0.027,0.093 0.107,0.093 h 0.258 c 0.178,0 0.401,0.067 0.428,0.307 C 0,-2.305 0,-1.513 0,-1.023 Z"
       style="fill:#ffffff;fill-opacity:1;fill-rule:nonzero;stroke:none"
       transform="matrix(1.3333333,0,0,-1.3333333,318.91787,118.39373)"
       clip-path="url(#clipPath50)" />
    <path
       id="path51"
       d="M 0,0 C -0.018,0.067 0,0.102 0.053,0.12 L 0.338,0.213 C 0.401,0.227 0.445,0.227 0.472,0.169 l 0.507,-0.85 c 0.276,-0.463 0.561,-0.828 1.308,-0.828 0.596,0 1.086,0.365 1.086,0.926 0,0.614 -0.401,0.881 -1.469,1.192 -1.032,0.307 -1.851,0.828 -1.851,1.914 0,0.668 0.24,1.21 0.774,1.593 0.534,0.365 0.961,0.507 1.585,0.507 0.747,0 1.201,-0.178 1.477,-0.338 C 4.121,4.165 4.165,4.098 4.182,4.013 L 4.378,2.977 C 4.396,2.924 4.396,2.839 4.361,2.808 L 4.076,2.674 C 4.031,2.656 3.978,2.674 3.951,2.736 L 3.221,3.555 C 3.035,3.751 2.759,4.031 2.261,4.031 1.691,4.031 1.21,3.698 1.21,3.155 1.21,2.532 1.664,2.354 2.581,2.105 3.284,1.922 3.711,1.74 4.103,1.312 4.441,0.979 4.565,0.609 4.565,0.093 c 0,-1.29 -1.041,-2.198 -2.554,-2.198 -0.801,0 -1.477,0.258 -1.646,0.396 -0.062,0.058 -0.098,0.102 -0.116,0.169 z"
       style="fill:#ffffff;fill-opacity:1;fill-rule:nonzero;stroke:none"
       transform="matrix(1.3333333,0,0,-1.3333333,327.63973,120.28627)"
       clip-path="url(#clipPath52)" />
    <path
       id="path53"
       d="m 0,0 c 0,-0.334 0.098,-0.672 0.401,-0.859 0.302,-0.245 0.703,-0.347 1.192,-0.347 0.73,0 1.478,0.609 1.513,2.216 0,1.415 -0.498,3.034 -1.789,3.034 C 0.828,4.044 0.303,3.8 0,3.368 Z m 0.027,-4.303 c 0.018,-0.89 0.124,-0.944 0.436,-0.944 h 0.552 c 0.089,0 0.115,-0.053 0.115,-0.124 v -0.325 c 0,-0.094 -0.026,-0.12 -0.151,-0.12 -0.125,0 -0.578,0.045 -1.771,0.045 -1.006,0 -1.557,-0.045 -1.682,-0.045 -0.08,0 -0.116,0.026 -0.116,0.12 v 0.338 c 0,0.058 0.036,0.111 0.089,0.111 h 0.552 c 0.205,0 0.312,0.147 0.338,0.392 0.027,0.334 0.027,0.952 0.027,2.1 v 5.269 c 0,0.463 -0.053,0.676 -0.516,0.917 L -2.438,3.613 C -2.528,3.68 -2.554,3.706 -2.554,3.764 V 3.92 c 0,0.058 0.026,0.089 0.116,0.124 l 1.744,0.766 c 0.178,0.071 0.303,0.116 0.418,0.116 0.081,0 0.125,-0.089 0.142,-0.196 L -0.026,3.978 H 0 c 0.401,0.485 1.202,0.948 2.074,0.948 0.738,0 1.281,-0.276 1.771,-0.761 0.614,-0.646 0.827,-1.224 0.827,-2.176 0,-2.203 -1.468,-3.792 -3.328,-3.792 -0.329,0 -0.881,0.058 -1.344,0.277 z"
       style="fill:#ffffff;fill-opacity:1;fill-rule:nonzero;stroke:none"
       transform="matrix(1.3333333,0,0,-1.3333333,338.12893,120.6896)"
       clip-path="url(#clipPath54)" />
    <path
       id="path55"
       d="M 0,0 C 0,0.703 -0.116,0.948 -0.579,1.193 L -0.846,1.344 C -0.944,1.38 -0.979,1.406 -0.979,1.459 v 0.098 c 0,0.063 0.035,0.09 0.133,0.139 l 1.843,0.867 c 0.089,0.027 0.151,0.063 0.24,0.063 0.089,0 0.125,-0.089 0.142,-0.183 L 1.513,1.313 H 1.575 C 2.091,2.172 2.732,2.683 3.4,2.683 3.898,2.683 4.201,2.35 4.201,1.922 4.201,1.5 3.773,1.099 3.373,1.099 3.159,1.099 2.972,1.161 2.857,1.219 2.732,1.313 2.581,1.344 2.43,1.344 2.243,1.344 1.976,1.219 1.789,0.904 1.664,0.685 1.611,0.356 1.611,0.151 v -2.91 c 0,-0.489 0.115,-0.645 0.418,-0.645 h 0.676 c 0.09,0 0.116,-0.027 0.116,-0.102 v -0.356 c 0,-0.071 -0.026,-0.103 -0.098,-0.103 -0.116,0 -0.783,0.05 -1.896,0.05 -1.068,0 -1.664,-0.05 -1.788,-0.05 -0.08,0 -0.098,0.032 -0.098,0.103 v 0.338 c 0,0.093 0.018,0.12 0.124,0.12 h 0.543 c 0.241,0 0.392,0.12 0.392,0.423 z"
       style="fill:#ffffff;fill-opacity:1;fill-rule:nonzero;stroke:none"
       transform="matrix(1.3333333,0,0,-1.3333333,346.85093,117.6228)"
       clip-path="url(#clipPath56)" />
    <path
       id="path57"
       d="m 0,0 c 0.32,0 0.507,0.098 0.507,0.213 0,0.454 -0.151,1.362 -0.943,1.362 -0.757,0 -1.211,-0.552 -1.406,-1.575 z m -1.887,-1.024 c 0,-1.557 1.112,-2.474 1.985,-2.474 0.943,0 1.521,0.401 1.842,0.886 0.062,0.111 0.116,0.111 0.187,0.075 L 2.358,-2.67 c 0.072,-0.044 0.098,-0.107 0,-0.303 -0.329,-0.578 -1.104,-1.62 -2.785,-1.62 -0.979,0 -1.664,0.214 -2.198,0.824 -0.695,0.814 -0.855,1.58 -0.855,2.523 0,0.832 0.098,1.397 0.747,2.26 0.642,0.81 1.327,1.122 2.661,1.122 1.736,0 2.306,-1.816 2.306,-2.439 0,-0.231 -0.161,-0.245 -0.428,-0.245 h -3.693 z"
       style="fill:#ffffff;fill-opacity:1;fill-rule:nonzero;stroke:none"
       transform="matrix(1.3333333,0,0,-1.3333333,357.56613,116.96973)"
       clip-path="url(#clipPath58)" />
    <path
       id="path59"
       d="m 0,0 c -0.668,-0.427 -1.673,-0.685 -1.673,-1.806 0,-0.614 0.329,-0.926 0.694,-0.926 C -0.543,-2.696 0,-2.274 0,-1.993 Z m 0.098,-2.639 c -0.339,-0.364 -0.739,-0.627 -1.326,-0.823 -0.356,-0.107 -0.677,-0.107 -0.979,-0.107 -0.561,0 -1.051,0.455 -1.051,1.309 0,0.703 0.312,1.397 1.398,1.878 0.943,0.462 1.531,0.703 1.86,0.947 v 0.797 c -0.027,0.303 -0.054,0.668 -0.241,0.845 -0.151,0.169 -0.427,0.232 -0.765,0.232 -0.267,0 -0.632,-0.089 -0.881,-0.267 -0.214,-0.16 -0.062,-0.383 -0.062,-0.748 0,-0.551 -0.276,-0.89 -0.917,-0.89 -0.267,0 -0.516,0.183 -0.516,0.516 0,0.432 0.249,0.926 0.703,1.255 0.641,0.49 1.46,0.855 2.465,0.855 0.863,0 1.13,-0.187 1.406,-0.427 0.339,-0.303 0.365,-0.74 0.365,-1.14 l 0.036,-2.42 v -0.73 c 0,-0.819 0.124,-1.068 0.4,-1.068 0.205,0 0.419,0.124 0.481,0.249 0.062,0.089 0.089,0.089 0.151,0.058 l 0.187,-0.12 C 2.874,-2.469 2.901,-2.536 2.839,-2.683 2.687,-2.954 2.322,-3.569 1.442,-3.569 c -0.579,0 -1.077,0.277 -1.291,0.93 z"
       style="fill:#ffffff;fill-opacity:1;fill-rule:nonzero;stroke:none"
       transform="matrix(1.3333333,0,0,-1.3333333,366.34693,118.3348)"
       clip-path="url(#clipPath60)" />
    <path
       id="path61"
       d="m 0,0 c 0,0.245 -0.036,0.512 -0.151,0.73 -0.214,0.382 -0.703,0.716 -1.344,0.716 -0.365,0 -0.765,-0.089 -1.059,-0.458 -0.472,-0.566 -0.605,-1.202 -0.605,-1.829 0,-1.736 0.934,-2.991 1.878,-2.991 0.614,0 1.005,0.303 1.157,0.544 C -0.036,-3.102 0,-2.924 0,-2.674 Z m 1.593,-1.998 c 0,-0.579 0.018,-1.193 0.143,-1.344 0.151,-0.187 0.436,-0.244 0.64,-0.276 0.214,0 0.276,-0.035 0.303,-0.089 l 0.036,-0.187 c 0.035,-0.093 0,-0.151 -0.098,-0.186 L 0.579,-4.65 C 0.49,-4.686 0.392,-4.632 0.365,-4.499 L 0.152,-3.8 c -0.49,-0.521 -1.433,-0.886 -2.136,-0.886 -0.597,0 -1.273,0.187 -1.834,0.748 -0.641,0.623 -0.943,1.264 -0.943,2.242 0,1.051 0.276,1.905 1.068,2.76 0.614,0.645 1.344,0.978 2.26,0.978 0.579,0 1.068,-0.089 1.433,-0.213 L -0.053,4.788 C -0.062,5.308 -0.187,5.522 -1.014,5.673 -1.103,5.7 -1.13,5.736 -1.13,5.789 v 0.28 c 0,0.067 0.027,0.094 0.116,0.121 0.765,0.093 1.771,0.186 2.171,0.275 0.178,0.031 0.276,0.063 0.4,0.063 0.054,0 0.116,-0.094 0.09,-0.276 C 1.593,5.491 1.593,3.297 1.593,1.321 Z"
       style="fill:#ffffff;fill-opacity:1;fill-rule:nonzero;stroke:none"
       transform="matrix(1.3333333,0,0,-1.3333333,377.10893,116.8452)"
       clip-path="url(#clipPath62)" />
    <path
       id="path63"
       d="M 0,0 C -0.018,0.067 0,0.102 0.053,0.12 L 0.338,0.213 C 0.401,0.227 0.445,0.227 0.481,0.169 l 0.498,-0.85 c 0.276,-0.463 0.569,-0.828 1.317,-0.828 0.587,0 1.077,0.365 1.077,0.926 0,0.614 -0.392,0.881 -1.46,1.192 -1.041,0.307 -1.86,0.828 -1.86,1.914 0,0.668 0.24,1.21 0.774,1.593 0.535,0.365 0.962,0.507 1.585,0.507 0.748,0 1.201,-0.178 1.486,-0.338 C 4.121,4.165 4.165,4.098 4.183,4.013 L 4.378,2.977 C 4.396,2.924 4.396,2.839 4.37,2.808 L 4.076,2.674 C 4.032,2.656 3.987,2.674 3.951,2.736 L 3.222,3.555 C 3.035,3.751 2.768,4.031 2.261,4.031 1.7,4.031 1.21,3.698 1.21,3.155 1.21,2.532 1.664,2.354 2.581,2.105 3.284,1.922 3.711,1.74 4.103,1.312 4.45,0.979 4.565,0.609 4.565,0.093 c 0,-1.29 -1.041,-2.198 -2.545,-2.198 -0.81,0 -1.486,0.258 -1.655,0.396 -0.062,0.058 -0.098,0.102 -0.116,0.169 z"
       style="fill:#ffffff;fill-opacity:1;fill-rule:nonzero;stroke:none"
       transform="matrix(1.3333333,0,0,-1.3333333,381.654,120.28627)"
       clip-path="url(#clipPath64)" />
    <path
       id="path65"
       d="m 0,0 c -0.481,0 -0.979,0.378 -0.979,0.912 0,0.459 0.445,0.948 1.077,0.948 0.631,0 0.943,-0.521 0.943,-0.89 C 1.041,0.512 0.721,0 0,0 m -0.516,-3.734 c 0,0.454 -0.098,0.757 -0.801,0.944 -0.134,0.026 -0.143,0.071 -0.143,0.134 v 0.164 c 0,0.062 0.027,0.093 0.098,0.12 0.214,0.098 1.727,0.632 1.985,0.739 0.151,0.053 0.276,0.089 0.374,0.089 0.08,0 0.133,-0.063 0.115,-0.182 C 1.077,-1.971 1.077,-2.95 1.077,-4.214 v -1.651 c 0,-0.578 0,-1.126 0.035,-1.308 0.027,-0.281 0.098,-0.4 0.24,-0.4 h 0.623 c 0.116,0 0.143,-0.027 0.143,-0.103 v -0.307 c 0,-0.094 -0.027,-0.151 -0.125,-0.151 -0.115,0 -0.818,0.049 -1.842,0.049 -0.881,0 -1.468,-0.049 -1.646,-0.049 -0.081,0 -0.116,0.031 -0.116,0.151 v 0.289 c 0,0.094 0.054,0.121 0.151,0.121 h 0.668 c 0.151,0 0.222,0.066 0.24,0.306 0.018,0.459 0.036,0.944 0.036,1.375 z"
       style="fill:#ffffff;fill-opacity:1;fill-rule:nonzero;stroke:none"
       transform="matrix(1.3333333,0,0,-1.3333333,395.15787,112.0632)"
       clip-path="url(#clipPath66)" />
    <path
       id="path67"
       d="m 0,0 c 0.125,0.058 0.222,0.12 0.312,0.12 0.089,0 0.151,-0.062 0.177,-0.186 L 0.614,-0.85 h 0.098 c 0.178,0.205 0.454,0.45 0.757,0.605 0.365,0.209 0.765,0.365 1.219,0.365 0.525,0 1.014,-0.093 1.344,-0.365 0.676,-0.489 0.836,-0.952 0.836,-1.566 v -2.202 c 0,-0.486 -0.009,-1.162 -0.009,-1.464 0,-0.339 0.187,-0.432 0.365,-0.432 h 0.427 c 0.143,0 0.187,-0.031 0.187,-0.103 v -0.347 c 0,-0.084 -0.036,-0.111 -0.125,-0.111 -0.115,0 -0.578,0.045 -1.646,0.045 -0.917,0 -1.406,-0.045 -1.495,-0.045 -0.098,0 -0.125,0.058 -0.125,0.178 v 0.263 c 0,0.089 0.027,0.12 0.187,0.12 h 0.303 c 0.115,0 0.24,0.093 0.276,0.369 0.044,0.396 0.062,0.823 0.062,1.433 v 1.753 c 0,0.614 -0.036,1.01 -0.4,1.308 -0.303,0.281 -0.579,0.281 -0.917,0.281 -0.24,0 -0.605,-0.067 -0.979,-0.396 C 0.739,-1.41 0.668,-1.829 0.668,-2.247 v -3.142 c 0,-0.333 0.071,-0.52 0.284,-0.52 h 0.276 c 0.125,0 0.151,-0.031 0.151,-0.133 v -0.281 c 0,-0.089 -0.026,-0.147 -0.124,-0.147 -0.089,0 -0.516,0.045 -1.433,0.045 -0.952,0 -1.433,-0.045 -1.522,-0.045 -0.062,0 -0.089,0.058 -0.089,0.147 v 0.294 c 0,0.089 0.027,0.12 0.151,0.12 h 0.303 c 0.178,0 0.392,0.062 0.392,0.307 v 3.435 c 0,0.454 -0.267,0.703 -0.641,0.881 L -1.7,-1.223 c -0.089,0.026 -0.124,0.093 -0.124,0.159 v 0.116 c 0,0.063 0.062,0.116 0.151,0.152 z"
       style="fill:#ffffff;fill-opacity:1;fill-rule:nonzero;stroke:none"
       transform="matrix(1.3333333,0,0,-1.3333333,401.26853,114.28253)"
       clip-path="url(#clipPath68)" />
    <path
       id="path69"
       d="M 0,0 C 0,-1.78 -0.018,-2.902 0.018,-3.329 0.027,-3.605 0.151,-3.76 0.365,-3.76 H 0.73 c 0.151,0 0.187,-0.027 0.187,-0.13 v -0.28 c 0,-0.093 -0.036,-0.151 -0.125,-0.151 -0.089,0 -0.578,0.049 -1.619,0.049 -0.971,0 -1.674,-0.049 -1.798,-0.049 -0.089,0 -0.125,0.031 -0.125,0.12 v 0.347 c 0,0.067 0.036,0.094 0.16,0.094 h 0.668 c 0.24,0 0.338,0.187 0.338,0.52 L -1.602,1.339 H -2.59 c -0.071,0 -0.097,0.031 -0.097,0.12 l 0.079,0.534 C -2.59,2.073 -2.536,2.1 -2.403,2.1 h 0.801 v 0.267 c 0,1.673 0.561,2.652 1.264,3.32 0.801,0.734 1.771,1.068 2.714,1.068 1.041,0 1.745,-0.49 1.745,-1.099 C 4.121,5.17 3.694,4.805 3.231,4.805 2.75,4.805 2.474,5.046 2.172,5.504 1.958,5.775 1.744,5.989 1.433,5.989 1.13,5.989 0.73,5.838 0.516,5.598 -0.062,4.895 0,3.729 0,2.403 V 2.1 h 2.091 c 0.517,-0.013 1.015,0.013 1.46,0.107 0.276,0.031 0.498,0.08 0.614,0.08 0.098,0 0.151,-0.08 0.116,-0.2 C 4.227,1.842 4.227,0.863 4.227,-0.387 V -2.051 -3.356 C 4.263,-3.636 4.316,-3.76 4.53,-3.76 h 0.552 c 0.124,0 0.151,-0.027 0.151,-0.13 v -0.28 c 0,-0.12 -0.027,-0.151 -0.151,-0.151 -0.125,0 -0.677,0.049 -1.558,0.049 -0.827,0 -1.37,-0.049 -1.531,-0.049 -0.053,0 -0.115,0.031 -0.115,0.12 v 0.321 c 0,0.093 0.062,0.12 0.151,0.12 h 0.294 c 0.16,0 0.258,0.093 0.285,0.338 0.018,0.245 0.018,1.099 0.018,1.344 v 2.456 c 0,0.61 -0.063,0.961 -0.819,0.961 L 0,1.339 Z"
       style="fill:#ffffff;fill-opacity:1;fill-rule:nonzero;stroke:none"
       transform="matrix(1.3333333,0,0,-1.3333333,413.39573,117.1476)"
       clip-path="url(#clipPath70)" />
    <path
       id="path71"
       d="m 0,0 c 0.124,0.058 0.213,0.12 0.303,0.12 0.088,0 0.159,-0.062 0.186,-0.186 L 0.614,-0.85 h 0.089 c 0.187,0.205 0.454,0.45 0.765,0.605 0.365,0.209 0.757,0.365 1.219,0.365 0.517,0 1.006,-0.093 1.344,-0.365 0.668,-0.489 0.837,-0.952 0.837,-1.566 v -2.202 c 0,-0.486 -0.009,-1.162 -0.009,-1.464 0,-0.339 0.178,-0.432 0.365,-0.432 h 0.427 c 0.142,0 0.178,-0.031 0.178,-0.103 v -0.347 c 0,-0.084 -0.027,-0.111 -0.125,-0.111 -0.115,0 -0.578,0.045 -1.646,0.045 -0.917,0 -1.397,-0.045 -1.495,-0.045 -0.089,0 -0.116,0.058 -0.116,0.178 v 0.263 c 0,0.089 0.027,0.12 0.178,0.12 h 0.312 c 0.115,0 0.24,0.093 0.267,0.369 0.053,0.396 0.062,0.823 0.062,1.433 v 1.753 c 0,0.614 -0.036,1.01 -0.4,1.308 -0.303,0.281 -0.579,0.281 -0.908,0.281 -0.249,0 -0.614,-0.067 -0.979,-0.396 C 0.739,-1.41 0.658,-1.829 0.658,-2.247 v -3.142 c 0,-0.333 0.081,-0.52 0.285,-0.52 h 0.285 c 0.116,0 0.142,-0.031 0.142,-0.133 v -0.281 c 0,-0.089 -0.026,-0.147 -0.116,-0.147 -0.097,0 -0.515,0.045 -1.432,0.045 -0.952,0 -1.433,-0.045 -1.531,-0.045 -0.062,0 -0.089,0.058 -0.089,0.147 v 0.294 c 0,0.089 0.027,0.12 0.151,0.12 h 0.303 c 0.187,0 0.4,0.062 0.4,0.307 v 3.435 c 0,0.454 -0.275,0.703 -0.64,0.881 l -0.125,0.063 c -0.089,0.026 -0.115,0.093 -0.115,0.159 v 0.116 c 0,0.063 0.053,0.116 0.151,0.152 z"
       style="fill:#ffffff;fill-opacity:1;fill-rule:nonzero;stroke:none"
       transform="matrix(1.3333333,0,0,-1.3333333,423.66013,114.28253)"
       clip-path="url(#clipPath72)" />
    <path
       id="path73"
       d="m 0,0 c -0.481,0 -0.97,0.378 -0.97,0.912 0,0.459 0.445,0.948 1.068,0.948 0.641,0 0.943,-0.521 0.943,-0.89 C 1.041,0.512 0.721,0 0,0 m -0.516,-3.734 c 0,0.454 -0.089,0.757 -0.792,0.944 -0.134,0.026 -0.151,0.071 -0.151,0.134 v 0.164 c 0,0.062 0.035,0.093 0.106,0.12 0.214,0.098 1.718,0.632 1.985,0.739 0.151,0.053 0.276,0.089 0.365,0.089 0.089,0 0.133,-0.063 0.115,-0.182 C 1.086,-1.971 1.086,-2.95 1.086,-4.214 v -1.651 c 0,-0.578 0,-1.126 0.026,-1.308 0.036,-0.281 0.098,-0.4 0.25,-0.4 h 0.614 c 0.115,0 0.151,-0.027 0.151,-0.103 v -0.307 c 0,-0.094 -0.036,-0.151 -0.125,-0.151 -0.124,0 -0.827,0.049 -1.842,0.049 -0.89,0 -1.468,-0.049 -1.655,-0.049 -0.072,0 -0.116,0.031 -0.116,0.151 v 0.289 c 0,0.094 0.054,0.121 0.152,0.121 h 0.667 c 0.151,0 0.231,0.066 0.249,0.306 0.018,0.459 0.027,0.944 0.027,1.375 z"
       style="fill:#ffffff;fill-opacity:1;fill-rule:nonzero;stroke:none"
       transform="matrix(1.3333333,0,0,-1.3333333,434.20893,112.0632)"
       clip-path="url(#clipPath74)" />
    <path
       id="path75"
       d="m 0,0 c -0.116,0 -0.214,0.062 -0.214,0.214 0,0.124 0.098,0.218 0.294,0.284 0.427,0.16 1.753,1.291 2.092,1.932 0.053,0.124 0.151,0.151 0.24,0.151 0.124,0 0.187,-0.094 0.187,-0.214 L 2.536,0.854 h 2.011 c 0.098,0 0.125,-0.058 0.108,-0.12 L 4.503,0.098 C 4.486,0.031 4.441,0 4.352,0 H 2.501 C 2.474,-0.641 2.456,-1.371 2.456,-2.042 v -1.375 c 0,-1.193 0.508,-1.433 0.81,-1.433 0.338,0 0.676,0.075 0.89,0.187 0.107,0.044 0.151,0.044 0.178,-0.032 l 0.098,-0.182 c 0.027,-0.098 0,-0.151 -0.062,-0.218 -0.214,-0.156 -0.855,-0.61 -1.923,-0.61 -0.916,0 -1.602,0.73 -1.602,1.375 0,0.548 0.045,1.767 0.045,2.346 L 0.89,0 Z"
       style="fill:#ffffff;fill-opacity:1;fill-rule:nonzero;stroke:none"
       transform="matrix(1.3333333,0,0,-1.3333333,437.82813,115.48667)"
       clip-path="url(#clipPath76)" />
    <path
       id="path77"
       d="m 0,0 c 0.312,0 0.498,0.098 0.498,0.213 0,0.454 -0.151,1.362 -0.943,1.362 -0.747,0 -1.201,-0.552 -1.397,-1.575 z m -1.896,-1.024 c 0,-1.557 1.113,-2.474 1.985,-2.474 0.952,0 1.522,0.401 1.842,0.886 0.062,0.111 0.125,0.111 0.187,0.075 L 2.349,-2.67 c 0.071,-0.044 0.107,-0.107 0,-0.303 -0.32,-0.578 -1.103,-1.62 -2.776,-1.62 -0.979,0 -1.664,0.214 -2.199,0.824 -0.693,0.814 -0.854,1.58 -0.854,2.523 0,0.832 0.089,1.397 0.748,2.26 0.641,0.81 1.326,1.122 2.652,1.122 1.744,0 2.305,-1.816 2.305,-2.439 0,-0.231 -0.151,-0.245 -0.418,-0.245 h -3.703 z"
       style="fill:#ffffff;fill-opacity:1;fill-rule:nonzero;stroke:none"
       transform="matrix(1.3333333,0,0,-1.3333333,449.2432,116.96973)"
       clip-path="url(#clipPath78)" />
    <path
       id="path79"
       d="m 0,0 c 0,1.068 -0.036,2.376 -0.062,2.777 -0.027,0.525 -0.285,0.765 -0.784,0.925 l -0.302,0.085 c -0.089,0.031 -0.089,0.062 -0.089,0.12 v 0.178 c 0,0.036 0.026,0.098 0.124,0.124 0.614,0.188 1.798,0.584 2.288,0.886 0.177,0.062 0.275,0.094 0.329,0.094 0.098,0 0.16,-0.063 0.16,-0.277 C 1.629,4.085 1.602,0.917 1.602,0.08 v -2.202 c 0,-0.699 0,-2.256 0.027,-2.719 0.035,-0.272 0.062,-0.485 0.4,-0.485 h 0.578 c 0.152,0 0.188,-0.032 0.188,-0.134 v -0.28 c 0,-0.089 -0.036,-0.147 -0.09,-0.147 -0.124,0 -0.801,0.045 -1.868,0.045 -1.157,0 -1.772,-0.045 -1.887,-0.045 -0.098,0 -0.125,0.058 -0.125,0.147 v 0.294 c 0,0.088 0.027,0.12 0.214,0.12 h 0.578 c 0.152,0 0.383,0.12 0.383,0.552 l 0,4.178 z"
       style="fill:#ffffff;fill-opacity:1;fill-rule:nonzero;stroke:none"
       transform="matrix(1.3333333,0,0,-1.3333333,454.46453,115.0596)"
       clip-path="url(#clipPath80)" />
    <path
       id="path81"
       d="m 0,0 c 0,0.423 0.338,0.761 0.729,0.761 0.25,0 0.499,-0.094 0.677,-0.183 C 1.521,0.516 1.709,0.516 1.806,0.61 1.984,0.792 2.776,2.47 2.954,3.048 2.866,3.506 1.103,8.286 0.997,8.544 0.827,8.939 0.676,9.184 0.365,9.184 H 0.062 c -0.089,0 -0.124,0.045 -0.124,0.121 v 0.333 c 0,0.062 0.035,0.116 0.124,0.116 0.125,0 0.49,-0.054 1.62,-0.054 0.881,0 1.335,0.054 1.522,0.054 0.098,0 0.124,-0.04 0.124,-0.134 V 9.291 C 3.328,9.229 3.302,9.184 3.221,9.184 H 2.99 C 2.839,9.184 2.723,9.091 2.768,8.864 2.803,8.557 3.72,5.429 3.88,5.095 H 3.933 C 4.218,5.673 5.277,8.286 5.357,8.606 5.446,8.997 5.313,9.184 5.037,9.184 h -0.24 c -0.098,0 -0.125,0.045 -0.125,0.107 V 9.62 c 0,0.08 0.027,0.134 0.125,0.134 0.178,0 0.48,-0.054 1.308,-0.054 0.516,0 0.881,0.054 1.023,0.054 0.071,0 0.107,-0.054 0.107,-0.134 V 9.305 C 7.235,9.211 7.199,9.184 7.146,9.184 H 6.959 C 6.808,9.184 6.577,9.14 6.407,8.922 6.105,8.526 5.064,6.221 3.969,3.747 3.204,2.105 2.563,0.667 2.287,0.182 2.047,-0.214 1.735,-0.828 0.916,-0.828 0.365,-0.828 0,-0.489 0,0"
       style="fill:#ffffff;fill-opacity:1;fill-rule:nonzero;stroke:none"
       transform="matrix(1.3333333,0,0,-1.3333333,457.83453,127.28147)"
       clip-path="url(#clipPath82)" />
    <path
       id="path87"
       d="M 26.649,87.439 C 3.759,74.507 20.579,58.123 39.215,49.567 v 0 c -8.89,4.845 -24.58,15.382 -2.384,27.922 v 0 c 19.463,9.176 35.223,3.208 38.49,-0.713 v 0 c 3.204,-3.839 5.518,-8.311 -6.79,-17.723 v 0 c 30.026,13.585 30.872,25.538 23.61,31.126 v 0 c -4.067,3.124 -14.773,7.147 -28.621,7.147 v 0 c -10.911,0 -23.771,-2.497 -36.871,-9.887"
       transform="matrix(1.3333333,0,0,-1.3333333,0,129.97547)"
       style="fill:url(#linearGradient87);stroke:none" />
    <path
       id="path93"
       d="M 60.005,17.879 C 42.588,13.091 13.576,14.186 16.771,25.052 v 0 C 4.854,15.347 8.975,0.064 35.188,0 v 0 h 0.326 c 5.589,0.014 12.172,0.713 19.801,2.296 v 0 c 41.854,8.687 30.232,37.69 4.147,43.403 v 0 c 33.863,-13.696 0.543,-27.82 0.543,-27.82"
       transform="matrix(1.3333333,0,0,-1.3333333,0,129.97547)"
       style="fill:url(#linearGradient93);stroke:none" />
    <path
       id="path98"
       d="m 47.848,48.405 c 0.525,-0.129 1.068,-0.259 1.611,-0.392 v 0 c -0.499,0.151 -1.06,0.348 -1.646,0.57 v 0 c 0.009,-0.062 0.017,-0.115 0.035,-0.178"
       transform="matrix(1.3333333,0,0,-1.3333333,0,129.97547)"
       style="fill:url(#linearGradient98);stroke:none" />
    <path
       id="path104"
       d="M 3.43,22.685 C 1.02,19.802 -0.001,17.273 0,15.057 v 0 -0.008 C 0.017,2.806 31.197,0.133 31.197,0.133 v 0 c 0,0 -43.457,7.38 0.993,38.413 v 0 H 32.188 C 16.768,31.886 7.425,27.464 3.43,22.685"
       transform="matrix(1.3333333,0,0,-1.3333333,0,129.97547)"
       style="fill:url(#linearGradient104);stroke:none" />
    <path
       id="path110"
       d="m 64.339,55.747 c 16.455,7.885 26.413,13.082 30.534,18.44 v 0 C 111.16,95.279 63.787,97.482 63.787,97.482 v 0 c 0,0 47.488,-6.172 0.552,-41.735"
       transform="matrix(1.3333333,0,0,-1.3333333,0,129.97547)"
       style="fill:url(#linearGradient110);stroke:none" />
    <path
       id="path116"
       d="m 49.654,46.812 c 8.615,-3.489 23.557,-10.76 15.272,-20.914 v 0 C 58.216,17.613 50.704,16.705 38.557,15.174 v 0 c 33.631,-0.29 45.485,12.344 40.039,19.517 v 0 c -6.203,8.17 -15.254,11.187 -25.123,14.453 v 0 c -9.871,3.257 -23.94,8.828 -25.783,11.56 v 0 C 29.354,55.632 41.04,50.291 49.654,46.812"
       transform="matrix(1.3333333,0,0,-1.3333333,0,129.97547)"
       style="fill:url(#linearGradient116);stroke:none" />
    <path
       id="path122"
       d="M 26.543,68.892 C 21.407,58.818 30.298,52.65 48.845,45.326 v 0 C 67.4,38.015 67.018,31.763 64.926,25.898 v 0 c 8.473,11.147 -2.18,16.803 -11.116,19.97 v 0 C 46.629,48.414 25.99,55.876 28.269,65.559 v 0 c 1.788,7.631 17.612,16.371 24.563,16.638 v 0 C 47.429,82.134 31.686,78.966 26.543,68.892"
       transform="matrix(1.3333333,0,0,-1.3333333,0,129.97547)"
       style="fill:url(#linearGradient122);stroke:none" />
    <path
       id="path123"
       d="M 0,0 1.459,0.378 V 0.351 C 22.712,3.551 25.008,4.61 28.167,5.002 27.153,3.329 27.224,1.023 23.281,-5.179 l 1.433,-1.202 C 39.87,7.502 47.613,14.186 47.693,14.257 l -0.57,1.104 -0.08,0.556 -6.861,-0.218 -40.68,-13.866 z"
       style="fill:#cbe135;fill-opacity:1;fill-rule:nonzero;stroke:#cbe135;stroke-width:1.668;stroke-linecap:butt;stroke-linejoin:miter;stroke-miterlimit:10;stroke-dasharray:none;stroke-opacity:1"
       transform="matrix(1.3333333,0,0,-1.3333333,18.029333,78.4764)"
       clip-path="url(#clipPath124)" />
    <path
       id="path128"
       d="m 14.839,39.906 c 26.708,2.955 24.928,1.976 24.928,1.976 v 0 c 0,0 -2.251,-6.569 -3.667,-9.732 v 0 c 15.343,14.066 24.501,21.448 24.501,21.448 v 0 c 0,0 -38.527,-11.298 -45.762,-13.692"
       transform="matrix(1.3333333,0,0,-1.3333333,0,129.97547)"
       style="fill:url(#linearGradient128);stroke:none" />
    <path
       id="path134"
       d="m 14.839,39.906 45.762,13.692 -4.165,0.814 z"
       transform="matrix(1.3333333,0,0,-1.3333333,0,129.97547)"
       style="fill:url(#linearGradient134);stroke:none" />
    <path
       id="path140"
       d="M 14.839,39.906 40.39,42.197 60.601,53.598 Z"
       transform="matrix(1.3333333,0,0,-1.3333333,0,129.97547)"
       style="fill:url(#linearGradient140);stroke:none" />
    <path
       id="path145"
       d="m 14.84,39.906 25.55,2.291 z"
       transform="matrix(1.3333333,0,0,-1.3333333,0,129.97547)"
       style="fill:url(#linearGradient145);stroke:none" />
    <path
       id="path151"
       d="m 39.767,41.882 -3.666,-9.73 h 10e-4 l 24.499,21.446 z"
       transform="matrix(1.3333333,0,0,-1.3333333,0,129.97547)"
       style="fill:url(#linearGradient151);stroke:none" />
  </g>
</svg>
